G04 MADE WITH FRITZING*
G04 WWW.FRITZING.ORG*
G04 DOUBLE SIDED*
G04 HOLES PLATED*
G04 CONTOUR ON CENTER OF CONTOUR VECTOR*
%ASAXBY*%
%FSLAX23Y23*%
%MOIN*%
%OFA0B0*%
%SFA1.0B1.0*%
%ADD10C,0.010000*%
%ADD11R,0.001000X0.001000*%
%LNSILK0*%
G90*
G70*
G54D10*
X3053Y1363D02*
X3053Y1163D01*
D02*
X3053Y1163D02*
X2953Y1163D01*
D02*
X2953Y1163D02*
X2953Y1363D01*
D02*
X2953Y1363D02*
X3053Y1363D01*
D02*
X3053Y1063D02*
X3053Y863D01*
D02*
X3053Y863D02*
X2953Y863D01*
D02*
X2953Y863D02*
X2953Y1063D01*
D02*
X2953Y1063D02*
X3053Y1063D01*
D02*
X3053Y763D02*
X3053Y563D01*
D02*
X3053Y563D02*
X2953Y563D01*
D02*
X2953Y563D02*
X2953Y763D01*
D02*
X2953Y763D02*
X3053Y763D01*
D02*
X3353Y1363D02*
X3353Y1163D01*
D02*
X3353Y1163D02*
X3253Y1163D01*
D02*
X3253Y1163D02*
X3253Y1363D01*
D02*
X3253Y1363D02*
X3353Y1363D01*
D02*
X3353Y1063D02*
X3353Y863D01*
D02*
X3353Y863D02*
X3253Y863D01*
D02*
X3253Y863D02*
X3253Y1063D01*
D02*
X3253Y1063D02*
X3353Y1063D01*
D02*
X3353Y763D02*
X3353Y563D01*
D02*
X3353Y563D02*
X3253Y563D01*
D02*
X3253Y563D02*
X3253Y763D01*
D02*
X3253Y763D02*
X3353Y763D01*
D02*
X1653Y363D02*
X1453Y363D01*
D02*
X1453Y363D02*
X1453Y463D01*
D02*
X1453Y463D02*
X1653Y463D01*
D02*
X1653Y463D02*
X1653Y363D01*
D02*
X1453Y1563D02*
X1253Y1563D01*
D02*
X1253Y1563D02*
X1253Y1663D01*
D02*
X1253Y1663D02*
X1453Y1663D01*
D02*
X1453Y1663D02*
X1453Y1563D01*
D02*
X1253Y1363D02*
X1253Y1263D01*
D02*
X1253Y1263D02*
X1153Y1263D01*
D02*
X1153Y1263D02*
X1153Y1363D01*
D02*
X1153Y1363D02*
X1253Y1363D01*
G54D11*
X137Y2102D02*
X3967Y2102D01*
X132Y2101D02*
X136Y2101D01*
X3968Y2101D02*
X3972Y2101D01*
X129Y2100D02*
X131Y2100D01*
X3973Y2100D02*
X3975Y2100D01*
X127Y2099D02*
X128Y2099D01*
X3976Y2099D02*
X3977Y2099D01*
X125Y2098D02*
X126Y2098D01*
X3978Y2098D02*
X3979Y2098D01*
X123Y2097D02*
X124Y2097D01*
X3980Y2097D02*
X3981Y2097D01*
X121Y2096D02*
X122Y2096D01*
X3982Y2096D02*
X3982Y2096D01*
X120Y2095D02*
X121Y2095D01*
X3983Y2095D02*
X3984Y2095D01*
X119Y2094D02*
X119Y2094D01*
X3984Y2094D02*
X3985Y2094D01*
X118Y2093D02*
X118Y2093D01*
X3986Y2093D02*
X3986Y2093D01*
X116Y2092D02*
X117Y2092D01*
X3987Y2092D02*
X3987Y2092D01*
X115Y2091D02*
X116Y2091D01*
X3988Y2091D02*
X3988Y2091D01*
X115Y2090D02*
X115Y2090D01*
X3989Y2090D02*
X3989Y2090D01*
X114Y2089D02*
X114Y2089D01*
X3990Y2089D02*
X3990Y2089D01*
X113Y2088D02*
X113Y2088D01*
X3990Y2088D02*
X3991Y2088D01*
X112Y2087D02*
X112Y2087D01*
X3991Y2087D02*
X3991Y2087D01*
X112Y2086D02*
X112Y2086D01*
X3992Y2086D02*
X3992Y2086D01*
X111Y2085D02*
X111Y2085D01*
X3993Y2085D02*
X3993Y2085D01*
X110Y2084D02*
X110Y2084D01*
X3993Y2084D02*
X3993Y2084D01*
X110Y2083D02*
X110Y2083D01*
X3994Y2083D02*
X3994Y2083D01*
X109Y2082D02*
X109Y2082D01*
X3994Y2082D02*
X3994Y2082D01*
X109Y2081D02*
X109Y2081D01*
X3995Y2081D02*
X3995Y2081D01*
X108Y2080D02*
X108Y2080D01*
X3995Y2080D02*
X3995Y2080D01*
X108Y2079D02*
X108Y2079D01*
X3996Y2079D02*
X3996Y2079D01*
X108Y2078D02*
X108Y2078D01*
X3996Y2078D02*
X3996Y2078D01*
X107Y2077D02*
X107Y2077D01*
X3996Y2077D02*
X3996Y2077D01*
X107Y2076D02*
X107Y2076D01*
X3997Y2076D02*
X3997Y2076D01*
X107Y2075D02*
X107Y2075D01*
X3997Y2075D02*
X3997Y2075D01*
X107Y2074D02*
X107Y2074D01*
X3997Y2074D02*
X3997Y2074D01*
X106Y2073D02*
X106Y2073D01*
X3997Y2073D02*
X3997Y2073D01*
X106Y2072D02*
X106Y2072D01*
X3997Y2072D02*
X3997Y2072D01*
X106Y2071D02*
X106Y2071D01*
X3998Y2071D02*
X3998Y2071D01*
X106Y2070D02*
X106Y2070D01*
X3998Y2070D02*
X3998Y2070D01*
X106Y2069D02*
X106Y2069D01*
X3998Y2069D02*
X3998Y2069D01*
X106Y2068D02*
X106Y2068D01*
X3998Y2068D02*
X3998Y2068D01*
X106Y2067D02*
X106Y2067D01*
X3998Y2067D02*
X3998Y2067D01*
X106Y2066D02*
X106Y2066D01*
X3998Y2066D02*
X3998Y2066D01*
X106Y2065D02*
X106Y2065D01*
X3998Y2065D02*
X3998Y2065D01*
X106Y2064D02*
X106Y2064D01*
X3998Y2064D02*
X3998Y2064D01*
X106Y2063D02*
X106Y2063D01*
X3998Y2063D02*
X3998Y2063D01*
X106Y2062D02*
X106Y2062D01*
X3998Y2062D02*
X3998Y2062D01*
X106Y2061D02*
X106Y2061D01*
X3998Y2061D02*
X3998Y2061D01*
X106Y2060D02*
X106Y2060D01*
X3998Y2060D02*
X3998Y2060D01*
X106Y2059D02*
X106Y2059D01*
X3998Y2059D02*
X3998Y2059D01*
X106Y2058D02*
X106Y2058D01*
X3998Y2058D02*
X3998Y2058D01*
X106Y2057D02*
X106Y2057D01*
X3998Y2057D02*
X3998Y2057D01*
X106Y2056D02*
X106Y2056D01*
X3998Y2056D02*
X3998Y2056D01*
X106Y2055D02*
X106Y2055D01*
X3998Y2055D02*
X3998Y2055D01*
X106Y2054D02*
X106Y2054D01*
X3998Y2054D02*
X3998Y2054D01*
X106Y2053D02*
X106Y2053D01*
X3998Y2053D02*
X3998Y2053D01*
X106Y2052D02*
X106Y2052D01*
X3998Y2052D02*
X3998Y2052D01*
X105Y2051D02*
X105Y2051D01*
X3998Y2051D02*
X3998Y2051D01*
X104Y2050D02*
X104Y2050D01*
X3998Y2050D02*
X3998Y2050D01*
X103Y2049D02*
X103Y2049D01*
X3998Y2049D02*
X3998Y2049D01*
X102Y2048D02*
X102Y2048D01*
X3998Y2048D02*
X3998Y2048D01*
X101Y2047D02*
X101Y2047D01*
X3998Y2047D02*
X3998Y2047D01*
X100Y2046D02*
X100Y2046D01*
X3998Y2046D02*
X3998Y2046D01*
X99Y2045D02*
X99Y2045D01*
X3998Y2045D02*
X3998Y2045D01*
X98Y2044D02*
X98Y2044D01*
X3998Y2044D02*
X3998Y2044D01*
X97Y2043D02*
X97Y2043D01*
X3998Y2043D02*
X3998Y2043D01*
X96Y2042D02*
X96Y2042D01*
X3998Y2042D02*
X3998Y2042D01*
X95Y2041D02*
X95Y2041D01*
X3998Y2041D02*
X3998Y2041D01*
X94Y2040D02*
X94Y2040D01*
X3998Y2040D02*
X3998Y2040D01*
X93Y2039D02*
X93Y2039D01*
X3998Y2039D02*
X3998Y2039D01*
X92Y2038D02*
X92Y2038D01*
X3998Y2038D02*
X3998Y2038D01*
X91Y2037D02*
X91Y2037D01*
X3998Y2037D02*
X3998Y2037D01*
X90Y2036D02*
X90Y2036D01*
X3998Y2036D02*
X3998Y2036D01*
X89Y2035D02*
X89Y2035D01*
X3998Y2035D02*
X3998Y2035D01*
X88Y2034D02*
X88Y2034D01*
X3998Y2034D02*
X3998Y2034D01*
X87Y2033D02*
X87Y2033D01*
X3998Y2033D02*
X3998Y2033D01*
X86Y2032D02*
X86Y2032D01*
X3998Y2032D02*
X3998Y2032D01*
X85Y2031D02*
X85Y2031D01*
X3998Y2031D02*
X3998Y2031D01*
X84Y2030D02*
X84Y2030D01*
X3998Y2030D02*
X3998Y2030D01*
X83Y2029D02*
X83Y2029D01*
X3998Y2029D02*
X3998Y2029D01*
X82Y2028D02*
X82Y2028D01*
X3998Y2028D02*
X3998Y2028D01*
X81Y2027D02*
X81Y2027D01*
X3998Y2027D02*
X3998Y2027D01*
X80Y2026D02*
X80Y2026D01*
X3998Y2026D02*
X3998Y2026D01*
X79Y2025D02*
X79Y2025D01*
X3998Y2025D02*
X3998Y2025D01*
X78Y2024D02*
X78Y2024D01*
X3998Y2024D02*
X3998Y2024D01*
X77Y2023D02*
X77Y2023D01*
X3998Y2023D02*
X3998Y2023D01*
X76Y2022D02*
X76Y2022D01*
X3998Y2022D02*
X3998Y2022D01*
X75Y2021D02*
X75Y2021D01*
X3998Y2021D02*
X3998Y2021D01*
X74Y2020D02*
X74Y2020D01*
X3998Y2020D02*
X3998Y2020D01*
X73Y2019D02*
X73Y2019D01*
X3998Y2019D02*
X3998Y2019D01*
X72Y2018D02*
X72Y2018D01*
X3998Y2018D02*
X3998Y2018D01*
X71Y2017D02*
X71Y2017D01*
X3998Y2017D02*
X3998Y2017D01*
X70Y2016D02*
X70Y2016D01*
X3998Y2016D02*
X3998Y2016D01*
X69Y2015D02*
X69Y2015D01*
X3998Y2015D02*
X3998Y2015D01*
X68Y2014D02*
X68Y2014D01*
X3998Y2014D02*
X3998Y2014D01*
X67Y2013D02*
X67Y2013D01*
X3998Y2013D02*
X3998Y2013D01*
X66Y2012D02*
X66Y2012D01*
X3998Y2012D02*
X3998Y2012D01*
X65Y2011D02*
X65Y2011D01*
X3998Y2011D02*
X3998Y2011D01*
X64Y2010D02*
X64Y2010D01*
X3998Y2010D02*
X3998Y2010D01*
X63Y2009D02*
X63Y2009D01*
X3998Y2009D02*
X3998Y2009D01*
X62Y2008D02*
X62Y2008D01*
X3998Y2008D02*
X3998Y2008D01*
X61Y2007D02*
X61Y2007D01*
X3998Y2007D02*
X3998Y2007D01*
X60Y2006D02*
X60Y2006D01*
X3998Y2006D02*
X3998Y2006D01*
X59Y2005D02*
X59Y2005D01*
X3998Y2005D02*
X3998Y2005D01*
X58Y2004D02*
X58Y2004D01*
X3998Y2004D02*
X3998Y2004D01*
X57Y2003D02*
X57Y2003D01*
X3998Y2003D02*
X3998Y2003D01*
X56Y2002D02*
X56Y2002D01*
X3998Y2002D02*
X3998Y2002D01*
X55Y2001D02*
X55Y2001D01*
X3998Y2001D02*
X3998Y2001D01*
X54Y2000D02*
X54Y2000D01*
X3998Y2000D02*
X3998Y2000D01*
X53Y1999D02*
X53Y1999D01*
X3998Y1999D02*
X3998Y1999D01*
X52Y1998D02*
X52Y1998D01*
X3998Y1998D02*
X3998Y1998D01*
X51Y1997D02*
X51Y1997D01*
X3998Y1997D02*
X3998Y1997D01*
X50Y1996D02*
X50Y1996D01*
X3998Y1996D02*
X3998Y1996D01*
X49Y1995D02*
X49Y1995D01*
X3998Y1995D02*
X3998Y1995D01*
X48Y1994D02*
X48Y1994D01*
X3998Y1994D02*
X3998Y1994D01*
X47Y1993D02*
X47Y1993D01*
X3998Y1993D02*
X3998Y1993D01*
X46Y1992D02*
X46Y1992D01*
X3998Y1992D02*
X3998Y1992D01*
X45Y1991D02*
X45Y1991D01*
X3998Y1991D02*
X3998Y1991D01*
X44Y1990D02*
X44Y1990D01*
X3998Y1990D02*
X3998Y1990D01*
X43Y1989D02*
X43Y1989D01*
X3998Y1989D02*
X3998Y1989D01*
X42Y1988D02*
X42Y1988D01*
X3998Y1988D02*
X3998Y1988D01*
X41Y1987D02*
X41Y1987D01*
X3998Y1987D02*
X3998Y1987D01*
X40Y1986D02*
X40Y1986D01*
X3998Y1986D02*
X3998Y1986D01*
X39Y1985D02*
X39Y1985D01*
X3998Y1985D02*
X3998Y1985D01*
X38Y1984D02*
X38Y1984D01*
X3998Y1984D02*
X3998Y1984D01*
X37Y1983D02*
X37Y1983D01*
X3998Y1983D02*
X3998Y1983D01*
X36Y1982D02*
X36Y1982D01*
X3998Y1982D02*
X3998Y1982D01*
X35Y1981D02*
X35Y1981D01*
X3998Y1981D02*
X3998Y1981D01*
X34Y1980D02*
X34Y1980D01*
X3998Y1980D02*
X3998Y1980D01*
X33Y1979D02*
X33Y1979D01*
X3998Y1979D02*
X3998Y1979D01*
X32Y1978D02*
X32Y1978D01*
X3998Y1978D02*
X3998Y1978D01*
X31Y1977D02*
X31Y1977D01*
X3998Y1977D02*
X3998Y1977D01*
X30Y1976D02*
X30Y1976D01*
X3998Y1976D02*
X3998Y1976D01*
X29Y1975D02*
X29Y1975D01*
X3998Y1975D02*
X3998Y1975D01*
X28Y1974D02*
X28Y1974D01*
X3998Y1974D02*
X3998Y1974D01*
X27Y1973D02*
X27Y1973D01*
X3998Y1973D02*
X3998Y1973D01*
X26Y1972D02*
X26Y1972D01*
X3998Y1972D02*
X3998Y1972D01*
X25Y1971D02*
X25Y1971D01*
X3998Y1971D02*
X3998Y1971D01*
X24Y1970D02*
X24Y1970D01*
X3998Y1970D02*
X3998Y1970D01*
X23Y1969D02*
X23Y1969D01*
X3998Y1969D02*
X3998Y1969D01*
X22Y1968D02*
X22Y1968D01*
X3998Y1968D02*
X3998Y1968D01*
X21Y1967D02*
X21Y1967D01*
X3998Y1967D02*
X3998Y1967D01*
X20Y1966D02*
X20Y1966D01*
X3998Y1966D02*
X3998Y1966D01*
X19Y1965D02*
X19Y1965D01*
X3998Y1965D02*
X3998Y1965D01*
X18Y1964D02*
X18Y1964D01*
X3998Y1964D02*
X3998Y1964D01*
X17Y1963D02*
X17Y1963D01*
X3998Y1963D02*
X3998Y1963D01*
X16Y1962D02*
X16Y1962D01*
X3998Y1962D02*
X3998Y1962D01*
X15Y1961D02*
X15Y1961D01*
X3998Y1961D02*
X3998Y1961D01*
X14Y1960D02*
X14Y1960D01*
X3998Y1960D02*
X3998Y1960D01*
X13Y1959D02*
X13Y1959D01*
X3998Y1959D02*
X3998Y1959D01*
X12Y1958D02*
X12Y1958D01*
X3998Y1958D02*
X3998Y1958D01*
X11Y1957D02*
X11Y1957D01*
X3998Y1957D02*
X3998Y1957D01*
X10Y1956D02*
X10Y1956D01*
X3998Y1956D02*
X3998Y1956D01*
X9Y1955D02*
X9Y1955D01*
X3998Y1955D02*
X3998Y1955D01*
X8Y1954D02*
X8Y1954D01*
X3998Y1954D02*
X3998Y1954D01*
X7Y1953D02*
X7Y1953D01*
X3998Y1953D02*
X3998Y1953D01*
X6Y1952D02*
X6Y1952D01*
X3998Y1952D02*
X3998Y1952D01*
X6Y1951D02*
X6Y1951D01*
X3998Y1951D02*
X3998Y1951D01*
X6Y1950D02*
X6Y1950D01*
X3998Y1950D02*
X3998Y1950D01*
X6Y1949D02*
X6Y1949D01*
X3998Y1949D02*
X3998Y1949D01*
X6Y1948D02*
X6Y1948D01*
X3998Y1948D02*
X3998Y1948D01*
X6Y1947D02*
X6Y1947D01*
X3998Y1947D02*
X3998Y1947D01*
X6Y1946D02*
X6Y1946D01*
X3998Y1946D02*
X3998Y1946D01*
X6Y1945D02*
X6Y1945D01*
X3998Y1945D02*
X3998Y1945D01*
X6Y1944D02*
X6Y1944D01*
X3998Y1944D02*
X3998Y1944D01*
X6Y1943D02*
X6Y1943D01*
X3998Y1943D02*
X3998Y1943D01*
X6Y1942D02*
X6Y1942D01*
X3998Y1942D02*
X3998Y1942D01*
X6Y1941D02*
X6Y1941D01*
X3998Y1941D02*
X3998Y1941D01*
X6Y1940D02*
X6Y1940D01*
X3998Y1940D02*
X3998Y1940D01*
X6Y1939D02*
X6Y1939D01*
X3998Y1939D02*
X3998Y1939D01*
X6Y1938D02*
X6Y1938D01*
X3998Y1938D02*
X3998Y1938D01*
X6Y1937D02*
X6Y1937D01*
X3998Y1937D02*
X3998Y1937D01*
X6Y1936D02*
X6Y1936D01*
X3998Y1936D02*
X3998Y1936D01*
X6Y1935D02*
X6Y1935D01*
X3998Y1935D02*
X3998Y1935D01*
X6Y1934D02*
X6Y1934D01*
X3998Y1934D02*
X3998Y1934D01*
X6Y1933D02*
X6Y1933D01*
X3998Y1933D02*
X3998Y1933D01*
X6Y1932D02*
X6Y1932D01*
X3998Y1932D02*
X3998Y1932D01*
X6Y1931D02*
X6Y1931D01*
X3998Y1931D02*
X3998Y1931D01*
X6Y1930D02*
X6Y1930D01*
X3998Y1930D02*
X3998Y1930D01*
X6Y1929D02*
X6Y1929D01*
X3998Y1929D02*
X3998Y1929D01*
X6Y1928D02*
X6Y1928D01*
X3998Y1928D02*
X3998Y1928D01*
X6Y1927D02*
X6Y1927D01*
X3998Y1927D02*
X3998Y1927D01*
X6Y1926D02*
X6Y1926D01*
X3998Y1926D02*
X3998Y1926D01*
X6Y1925D02*
X6Y1925D01*
X3998Y1925D02*
X3998Y1925D01*
X6Y1924D02*
X6Y1924D01*
X3998Y1924D02*
X3998Y1924D01*
X6Y1923D02*
X6Y1923D01*
X3998Y1923D02*
X3998Y1923D01*
X6Y1922D02*
X6Y1922D01*
X3998Y1922D02*
X3998Y1922D01*
X6Y1921D02*
X6Y1921D01*
X3998Y1921D02*
X3998Y1921D01*
X6Y1920D02*
X6Y1920D01*
X3998Y1920D02*
X3998Y1920D01*
X6Y1919D02*
X6Y1919D01*
X3998Y1919D02*
X3998Y1919D01*
X6Y1918D02*
X6Y1918D01*
X3998Y1918D02*
X3998Y1918D01*
X6Y1917D02*
X6Y1917D01*
X3998Y1917D02*
X3998Y1917D01*
X6Y1916D02*
X6Y1916D01*
X3998Y1916D02*
X3998Y1916D01*
X6Y1915D02*
X6Y1915D01*
X3998Y1915D02*
X3998Y1915D01*
X6Y1914D02*
X6Y1914D01*
X3998Y1914D02*
X3998Y1914D01*
X6Y1913D02*
X6Y1913D01*
X3998Y1913D02*
X3998Y1913D01*
X6Y1912D02*
X6Y1912D01*
X3998Y1912D02*
X3998Y1912D01*
X6Y1911D02*
X6Y1911D01*
X3998Y1911D02*
X3998Y1911D01*
X6Y1910D02*
X6Y1910D01*
X3998Y1910D02*
X3998Y1910D01*
X6Y1909D02*
X6Y1909D01*
X3998Y1909D02*
X3998Y1909D01*
X6Y1908D02*
X6Y1908D01*
X3998Y1908D02*
X3998Y1908D01*
X6Y1907D02*
X6Y1907D01*
X3998Y1907D02*
X3998Y1907D01*
X6Y1906D02*
X6Y1906D01*
X3998Y1906D02*
X3998Y1906D01*
X6Y1905D02*
X6Y1905D01*
X3998Y1905D02*
X3998Y1905D01*
X6Y1904D02*
X6Y1904D01*
X3998Y1904D02*
X3998Y1904D01*
X6Y1903D02*
X6Y1903D01*
X3998Y1903D02*
X3998Y1903D01*
X6Y1902D02*
X6Y1902D01*
X3998Y1902D02*
X3998Y1902D01*
X6Y1901D02*
X6Y1901D01*
X3998Y1901D02*
X3998Y1901D01*
X6Y1900D02*
X6Y1900D01*
X3998Y1900D02*
X3998Y1900D01*
X6Y1899D02*
X6Y1899D01*
X3998Y1899D02*
X3998Y1899D01*
X6Y1898D02*
X6Y1898D01*
X3998Y1898D02*
X3998Y1898D01*
X6Y1897D02*
X6Y1897D01*
X3998Y1897D02*
X3998Y1897D01*
X6Y1896D02*
X6Y1896D01*
X3998Y1896D02*
X3998Y1896D01*
X6Y1895D02*
X6Y1895D01*
X3998Y1895D02*
X3998Y1895D01*
X6Y1894D02*
X6Y1894D01*
X3998Y1894D02*
X3998Y1894D01*
X6Y1893D02*
X6Y1893D01*
X3998Y1893D02*
X3998Y1893D01*
X6Y1892D02*
X6Y1892D01*
X3998Y1892D02*
X3998Y1892D01*
X6Y1891D02*
X6Y1891D01*
X3998Y1891D02*
X3998Y1891D01*
X6Y1890D02*
X6Y1890D01*
X3998Y1890D02*
X3998Y1890D01*
X6Y1889D02*
X6Y1889D01*
X3998Y1889D02*
X3998Y1889D01*
X6Y1888D02*
X6Y1888D01*
X3998Y1888D02*
X3998Y1888D01*
X6Y1887D02*
X6Y1887D01*
X3998Y1887D02*
X3998Y1887D01*
X6Y1886D02*
X6Y1886D01*
X3998Y1886D02*
X3998Y1886D01*
X6Y1885D02*
X6Y1885D01*
X3998Y1885D02*
X3998Y1885D01*
X6Y1884D02*
X6Y1884D01*
X3998Y1884D02*
X3998Y1884D01*
X6Y1883D02*
X6Y1883D01*
X3998Y1883D02*
X3998Y1883D01*
X6Y1882D02*
X6Y1882D01*
X3998Y1882D02*
X3998Y1882D01*
X6Y1881D02*
X6Y1881D01*
X3998Y1881D02*
X3998Y1881D01*
X6Y1880D02*
X6Y1880D01*
X3998Y1880D02*
X3998Y1880D01*
X6Y1879D02*
X6Y1879D01*
X3998Y1879D02*
X3998Y1879D01*
X6Y1878D02*
X6Y1878D01*
X3998Y1878D02*
X3998Y1878D01*
X6Y1877D02*
X6Y1877D01*
X3998Y1877D02*
X3998Y1877D01*
X6Y1876D02*
X6Y1876D01*
X3998Y1876D02*
X3998Y1876D01*
X6Y1875D02*
X6Y1875D01*
X3998Y1875D02*
X3998Y1875D01*
X6Y1874D02*
X6Y1874D01*
X3998Y1874D02*
X3998Y1874D01*
X6Y1873D02*
X6Y1873D01*
X3998Y1873D02*
X3998Y1873D01*
X6Y1872D02*
X6Y1872D01*
X3998Y1872D02*
X3998Y1872D01*
X6Y1871D02*
X6Y1871D01*
X3998Y1871D02*
X3998Y1871D01*
X6Y1870D02*
X6Y1870D01*
X3998Y1870D02*
X3998Y1870D01*
X6Y1869D02*
X6Y1869D01*
X3998Y1869D02*
X3998Y1869D01*
X6Y1868D02*
X6Y1868D01*
X3998Y1868D02*
X3998Y1868D01*
X6Y1867D02*
X6Y1867D01*
X3998Y1867D02*
X3998Y1867D01*
X6Y1866D02*
X6Y1866D01*
X3998Y1866D02*
X3998Y1866D01*
X6Y1865D02*
X6Y1865D01*
X3998Y1865D02*
X3998Y1865D01*
X6Y1864D02*
X6Y1864D01*
X3998Y1864D02*
X3998Y1864D01*
X6Y1863D02*
X6Y1863D01*
X3998Y1863D02*
X3998Y1863D01*
X6Y1862D02*
X6Y1862D01*
X3998Y1862D02*
X3998Y1862D01*
X6Y1861D02*
X6Y1861D01*
X3998Y1861D02*
X3998Y1861D01*
X6Y1860D02*
X6Y1860D01*
X3998Y1860D02*
X3998Y1860D01*
X6Y1859D02*
X6Y1859D01*
X3998Y1859D02*
X3998Y1859D01*
X6Y1858D02*
X6Y1858D01*
X3998Y1858D02*
X3998Y1858D01*
X6Y1857D02*
X6Y1857D01*
X3998Y1857D02*
X3998Y1857D01*
X6Y1856D02*
X6Y1856D01*
X3998Y1856D02*
X3998Y1856D01*
X6Y1855D02*
X6Y1855D01*
X3998Y1855D02*
X3998Y1855D01*
X6Y1854D02*
X6Y1854D01*
X3998Y1854D02*
X3998Y1854D01*
X6Y1853D02*
X6Y1853D01*
X3998Y1853D02*
X3998Y1853D01*
X6Y1852D02*
X6Y1852D01*
X3998Y1852D02*
X3998Y1852D01*
X6Y1851D02*
X6Y1851D01*
X3998Y1851D02*
X3998Y1851D01*
X6Y1850D02*
X6Y1850D01*
X3998Y1850D02*
X3998Y1850D01*
X6Y1849D02*
X6Y1849D01*
X3998Y1849D02*
X3998Y1849D01*
X6Y1848D02*
X6Y1848D01*
X3998Y1848D02*
X3998Y1848D01*
X6Y1847D02*
X6Y1847D01*
X3998Y1847D02*
X3998Y1847D01*
X6Y1846D02*
X6Y1846D01*
X3998Y1846D02*
X3998Y1846D01*
X6Y1845D02*
X6Y1845D01*
X3998Y1845D02*
X3998Y1845D01*
X6Y1844D02*
X6Y1844D01*
X3998Y1844D02*
X3998Y1844D01*
X6Y1843D02*
X6Y1843D01*
X3998Y1843D02*
X3998Y1843D01*
X6Y1842D02*
X6Y1842D01*
X3998Y1842D02*
X3998Y1842D01*
X6Y1841D02*
X6Y1841D01*
X3998Y1841D02*
X3998Y1841D01*
X6Y1840D02*
X6Y1840D01*
X3998Y1840D02*
X3998Y1840D01*
X6Y1839D02*
X6Y1839D01*
X3998Y1839D02*
X3998Y1839D01*
X6Y1838D02*
X6Y1838D01*
X3998Y1838D02*
X3998Y1838D01*
X6Y1837D02*
X6Y1837D01*
X3998Y1837D02*
X3998Y1837D01*
X6Y1836D02*
X6Y1836D01*
X3998Y1836D02*
X3998Y1836D01*
X6Y1835D02*
X6Y1835D01*
X3998Y1835D02*
X3998Y1835D01*
X6Y1834D02*
X6Y1834D01*
X3998Y1834D02*
X3998Y1834D01*
X6Y1833D02*
X6Y1833D01*
X3998Y1833D02*
X3998Y1833D01*
X6Y1832D02*
X6Y1832D01*
X3998Y1832D02*
X3998Y1832D01*
X6Y1831D02*
X6Y1831D01*
X3998Y1831D02*
X3998Y1831D01*
X6Y1830D02*
X6Y1830D01*
X3998Y1830D02*
X3998Y1830D01*
X6Y1829D02*
X6Y1829D01*
X3998Y1829D02*
X3998Y1829D01*
X6Y1828D02*
X6Y1828D01*
X3998Y1828D02*
X3998Y1828D01*
X6Y1827D02*
X6Y1827D01*
X3998Y1827D02*
X3998Y1827D01*
X6Y1826D02*
X6Y1826D01*
X3998Y1826D02*
X3998Y1826D01*
X6Y1825D02*
X6Y1825D01*
X3998Y1825D02*
X3998Y1825D01*
X6Y1824D02*
X6Y1824D01*
X3998Y1824D02*
X3998Y1824D01*
X6Y1823D02*
X6Y1823D01*
X3998Y1823D02*
X3998Y1823D01*
X6Y1822D02*
X6Y1822D01*
X3998Y1822D02*
X3998Y1822D01*
X6Y1821D02*
X6Y1821D01*
X3998Y1821D02*
X3998Y1821D01*
X6Y1820D02*
X6Y1820D01*
X3998Y1820D02*
X3998Y1820D01*
X6Y1819D02*
X6Y1819D01*
X3998Y1819D02*
X3998Y1819D01*
X6Y1818D02*
X6Y1818D01*
X3998Y1818D02*
X3998Y1818D01*
X6Y1817D02*
X6Y1817D01*
X3998Y1817D02*
X3998Y1817D01*
X6Y1816D02*
X6Y1816D01*
X3998Y1816D02*
X3998Y1816D01*
X6Y1815D02*
X6Y1815D01*
X3998Y1815D02*
X3998Y1815D01*
X6Y1814D02*
X6Y1814D01*
X3998Y1814D02*
X3998Y1814D01*
X6Y1813D02*
X6Y1813D01*
X3998Y1813D02*
X3998Y1813D01*
X6Y1812D02*
X6Y1812D01*
X3998Y1812D02*
X3998Y1812D01*
X6Y1811D02*
X6Y1811D01*
X3998Y1811D02*
X3998Y1811D01*
X6Y1810D02*
X6Y1810D01*
X3998Y1810D02*
X3998Y1810D01*
X6Y1809D02*
X6Y1809D01*
X3998Y1809D02*
X3998Y1809D01*
X6Y1808D02*
X6Y1808D01*
X3998Y1808D02*
X3998Y1808D01*
X6Y1807D02*
X6Y1807D01*
X3998Y1807D02*
X3998Y1807D01*
X6Y1806D02*
X6Y1806D01*
X3998Y1806D02*
X3998Y1806D01*
X6Y1805D02*
X6Y1805D01*
X3998Y1805D02*
X3998Y1805D01*
X6Y1804D02*
X6Y1804D01*
X3998Y1804D02*
X3998Y1804D01*
X6Y1803D02*
X6Y1803D01*
X3998Y1803D02*
X3998Y1803D01*
X6Y1802D02*
X6Y1802D01*
X3998Y1802D02*
X3998Y1802D01*
X6Y1801D02*
X6Y1801D01*
X3998Y1801D02*
X3998Y1801D01*
X6Y1800D02*
X6Y1800D01*
X3998Y1800D02*
X3998Y1800D01*
X6Y1799D02*
X6Y1799D01*
X3998Y1799D02*
X3998Y1799D01*
X6Y1798D02*
X6Y1798D01*
X3998Y1798D02*
X3998Y1798D01*
X6Y1797D02*
X6Y1797D01*
X3998Y1797D02*
X3998Y1797D01*
X6Y1796D02*
X6Y1796D01*
X3998Y1796D02*
X3998Y1796D01*
X6Y1795D02*
X6Y1795D01*
X3998Y1795D02*
X3998Y1795D01*
X6Y1794D02*
X6Y1794D01*
X3998Y1794D02*
X3998Y1794D01*
X6Y1793D02*
X6Y1793D01*
X3998Y1793D02*
X3998Y1793D01*
X6Y1792D02*
X6Y1792D01*
X3998Y1792D02*
X3998Y1792D01*
X6Y1791D02*
X6Y1791D01*
X3998Y1791D02*
X3998Y1791D01*
X6Y1790D02*
X6Y1790D01*
X3998Y1790D02*
X3998Y1790D01*
X6Y1789D02*
X6Y1789D01*
X3998Y1789D02*
X3998Y1789D01*
X6Y1788D02*
X6Y1788D01*
X3998Y1788D02*
X3998Y1788D01*
X6Y1787D02*
X6Y1787D01*
X3998Y1787D02*
X3998Y1787D01*
X6Y1786D02*
X6Y1786D01*
X3998Y1786D02*
X3998Y1786D01*
X6Y1785D02*
X6Y1785D01*
X3998Y1785D02*
X3998Y1785D01*
X6Y1784D02*
X6Y1784D01*
X3998Y1784D02*
X3998Y1784D01*
X6Y1783D02*
X6Y1783D01*
X3998Y1783D02*
X3998Y1783D01*
X6Y1782D02*
X6Y1782D01*
X3998Y1782D02*
X3998Y1782D01*
X6Y1781D02*
X6Y1781D01*
X3998Y1781D02*
X3998Y1781D01*
X6Y1780D02*
X6Y1780D01*
X3998Y1780D02*
X3998Y1780D01*
X6Y1779D02*
X6Y1779D01*
X3998Y1779D02*
X3998Y1779D01*
X6Y1778D02*
X6Y1778D01*
X3998Y1778D02*
X3998Y1778D01*
X6Y1777D02*
X6Y1777D01*
X3998Y1777D02*
X3998Y1777D01*
X6Y1776D02*
X6Y1776D01*
X1503Y1776D02*
X1523Y1776D01*
X3998Y1776D02*
X3998Y1776D01*
X6Y1775D02*
X6Y1775D01*
X1501Y1775D02*
X1525Y1775D01*
X3998Y1775D02*
X3998Y1775D01*
X6Y1774D02*
X6Y1774D01*
X1500Y1774D02*
X1526Y1774D01*
X3998Y1774D02*
X3998Y1774D01*
X6Y1773D02*
X6Y1773D01*
X1500Y1773D02*
X1527Y1773D01*
X3998Y1773D02*
X3998Y1773D01*
X6Y1772D02*
X6Y1772D01*
X1499Y1772D02*
X1527Y1772D01*
X3998Y1772D02*
X3998Y1772D01*
X6Y1771D02*
X6Y1771D01*
X1499Y1771D02*
X1528Y1771D01*
X3998Y1771D02*
X3998Y1771D01*
X6Y1770D02*
X6Y1770D01*
X1498Y1770D02*
X1528Y1770D01*
X3998Y1770D02*
X3998Y1770D01*
X6Y1769D02*
X6Y1769D01*
X1498Y1769D02*
X1505Y1769D01*
X1522Y1769D02*
X1549Y1769D01*
X3998Y1769D02*
X3998Y1769D01*
X6Y1768D02*
X6Y1768D01*
X1498Y1768D02*
X1504Y1768D01*
X1522Y1768D02*
X1551Y1768D01*
X3998Y1768D02*
X3998Y1768D01*
X6Y1767D02*
X6Y1767D01*
X1498Y1767D02*
X1504Y1767D01*
X1522Y1767D02*
X1551Y1767D01*
X3998Y1767D02*
X3998Y1767D01*
X6Y1766D02*
X6Y1766D01*
X1498Y1766D02*
X1504Y1766D01*
X1522Y1766D02*
X1551Y1766D01*
X3998Y1766D02*
X3998Y1766D01*
X6Y1765D02*
X6Y1765D01*
X1498Y1765D02*
X1504Y1765D01*
X1522Y1765D02*
X1552Y1765D01*
X3998Y1765D02*
X3998Y1765D01*
X6Y1764D02*
X6Y1764D01*
X1498Y1764D02*
X1504Y1764D01*
X1522Y1764D02*
X1552Y1764D01*
X3998Y1764D02*
X3998Y1764D01*
X6Y1763D02*
X6Y1763D01*
X1498Y1763D02*
X1504Y1763D01*
X1522Y1763D02*
X1552Y1763D01*
X3998Y1763D02*
X3998Y1763D01*
X6Y1762D02*
X6Y1762D01*
X1498Y1762D02*
X1504Y1762D01*
X1522Y1762D02*
X1528Y1762D01*
X1545Y1762D02*
X1552Y1762D01*
X3998Y1762D02*
X3998Y1762D01*
X6Y1761D02*
X6Y1761D01*
X1498Y1761D02*
X1504Y1761D01*
X1522Y1761D02*
X1528Y1761D01*
X1546Y1761D02*
X1552Y1761D01*
X3998Y1761D02*
X3998Y1761D01*
X6Y1760D02*
X6Y1760D01*
X1498Y1760D02*
X1504Y1760D01*
X1522Y1760D02*
X1528Y1760D01*
X1546Y1760D02*
X1552Y1760D01*
X3998Y1760D02*
X3998Y1760D01*
X6Y1759D02*
X6Y1759D01*
X1498Y1759D02*
X1504Y1759D01*
X1522Y1759D02*
X1528Y1759D01*
X1546Y1759D02*
X1552Y1759D01*
X3998Y1759D02*
X3998Y1759D01*
X6Y1758D02*
X6Y1758D01*
X1498Y1758D02*
X1504Y1758D01*
X1522Y1758D02*
X1528Y1758D01*
X1546Y1758D02*
X1552Y1758D01*
X3998Y1758D02*
X3998Y1758D01*
X6Y1757D02*
X6Y1757D01*
X1498Y1757D02*
X1504Y1757D01*
X1522Y1757D02*
X1528Y1757D01*
X1546Y1757D02*
X1552Y1757D01*
X3998Y1757D02*
X3998Y1757D01*
X6Y1756D02*
X6Y1756D01*
X1498Y1756D02*
X1504Y1756D01*
X1522Y1756D02*
X1528Y1756D01*
X1545Y1756D02*
X1552Y1756D01*
X3998Y1756D02*
X3998Y1756D01*
X6Y1755D02*
X6Y1755D01*
X1498Y1755D02*
X1504Y1755D01*
X1522Y1755D02*
X1552Y1755D01*
X3998Y1755D02*
X3998Y1755D01*
X6Y1754D02*
X6Y1754D01*
X1498Y1754D02*
X1504Y1754D01*
X1522Y1754D02*
X1552Y1754D01*
X3998Y1754D02*
X3998Y1754D01*
X6Y1753D02*
X6Y1753D01*
X1498Y1753D02*
X1504Y1753D01*
X1522Y1753D02*
X1552Y1753D01*
X3998Y1753D02*
X3998Y1753D01*
X6Y1752D02*
X6Y1752D01*
X1498Y1752D02*
X1504Y1752D01*
X1522Y1752D02*
X1552Y1752D01*
X3998Y1752D02*
X3998Y1752D01*
X6Y1751D02*
X6Y1751D01*
X1498Y1751D02*
X1504Y1751D01*
X1522Y1751D02*
X1551Y1751D01*
X3998Y1751D02*
X3998Y1751D01*
X6Y1750D02*
X6Y1750D01*
X1498Y1750D02*
X1504Y1750D01*
X1522Y1750D02*
X1551Y1750D01*
X3998Y1750D02*
X3998Y1750D01*
X6Y1749D02*
X6Y1749D01*
X1498Y1749D02*
X1504Y1749D01*
X1522Y1749D02*
X1549Y1749D01*
X3998Y1749D02*
X3998Y1749D01*
X6Y1748D02*
X6Y1748D01*
X1498Y1748D02*
X1528Y1748D01*
X3998Y1748D02*
X3998Y1748D01*
X6Y1747D02*
X6Y1747D01*
X1499Y1747D02*
X1528Y1747D01*
X3998Y1747D02*
X3998Y1747D01*
X6Y1746D02*
X6Y1746D01*
X1499Y1746D02*
X1527Y1746D01*
X3998Y1746D02*
X3998Y1746D01*
X6Y1745D02*
X6Y1745D01*
X1499Y1745D02*
X1527Y1745D01*
X3998Y1745D02*
X3998Y1745D01*
X6Y1744D02*
X6Y1744D01*
X1500Y1744D02*
X1526Y1744D01*
X3998Y1744D02*
X3998Y1744D01*
X6Y1743D02*
X6Y1743D01*
X1501Y1743D02*
X1525Y1743D01*
X3998Y1743D02*
X3998Y1743D01*
X6Y1742D02*
X6Y1742D01*
X1504Y1742D02*
X1523Y1742D01*
X3998Y1742D02*
X3998Y1742D01*
X6Y1741D02*
X6Y1741D01*
X3998Y1741D02*
X3998Y1741D01*
X6Y1740D02*
X6Y1740D01*
X3998Y1740D02*
X3998Y1740D01*
X6Y1739D02*
X6Y1739D01*
X3998Y1739D02*
X3998Y1739D01*
X6Y1738D02*
X6Y1738D01*
X3998Y1738D02*
X3998Y1738D01*
X6Y1737D02*
X6Y1737D01*
X3998Y1737D02*
X3998Y1737D01*
X6Y1736D02*
X6Y1736D01*
X3998Y1736D02*
X3998Y1736D01*
X6Y1735D02*
X6Y1735D01*
X3998Y1735D02*
X3998Y1735D01*
X6Y1734D02*
X6Y1734D01*
X3998Y1734D02*
X3998Y1734D01*
X6Y1733D02*
X6Y1733D01*
X3998Y1733D02*
X3998Y1733D01*
X6Y1732D02*
X6Y1732D01*
X3998Y1732D02*
X3998Y1732D01*
X6Y1731D02*
X6Y1731D01*
X3998Y1731D02*
X3998Y1731D01*
X6Y1730D02*
X6Y1730D01*
X3998Y1730D02*
X3998Y1730D01*
X6Y1729D02*
X6Y1729D01*
X3998Y1729D02*
X3998Y1729D01*
X6Y1728D02*
X6Y1728D01*
X3998Y1728D02*
X3998Y1728D01*
X6Y1727D02*
X6Y1727D01*
X3998Y1727D02*
X3998Y1727D01*
X6Y1726D02*
X6Y1726D01*
X3998Y1726D02*
X3998Y1726D01*
X6Y1725D02*
X6Y1725D01*
X3998Y1725D02*
X3998Y1725D01*
X6Y1724D02*
X6Y1724D01*
X3998Y1724D02*
X3998Y1724D01*
X6Y1723D02*
X6Y1723D01*
X3998Y1723D02*
X3998Y1723D01*
X6Y1722D02*
X6Y1722D01*
X1505Y1722D02*
X1550Y1722D01*
X3998Y1722D02*
X3998Y1722D01*
X6Y1721D02*
X6Y1721D01*
X1503Y1721D02*
X1551Y1721D01*
X3998Y1721D02*
X3998Y1721D01*
X6Y1720D02*
X6Y1720D01*
X1502Y1720D02*
X1551Y1720D01*
X3998Y1720D02*
X3998Y1720D01*
X6Y1719D02*
X6Y1719D01*
X1501Y1719D02*
X1551Y1719D01*
X3998Y1719D02*
X3998Y1719D01*
X6Y1718D02*
X6Y1718D01*
X1500Y1718D02*
X1551Y1718D01*
X3998Y1718D02*
X3998Y1718D01*
X6Y1717D02*
X6Y1717D01*
X1500Y1717D02*
X1551Y1717D01*
X3998Y1717D02*
X3998Y1717D01*
X6Y1716D02*
X6Y1716D01*
X1499Y1716D02*
X1550Y1716D01*
X3998Y1716D02*
X3998Y1716D01*
X6Y1715D02*
X6Y1715D01*
X1499Y1715D02*
X1506Y1715D01*
X3998Y1715D02*
X3998Y1715D01*
X6Y1714D02*
X6Y1714D01*
X1499Y1714D02*
X1505Y1714D01*
X3998Y1714D02*
X3998Y1714D01*
X6Y1713D02*
X6Y1713D01*
X1498Y1713D02*
X1505Y1713D01*
X3998Y1713D02*
X3998Y1713D01*
X6Y1712D02*
X6Y1712D01*
X1498Y1712D02*
X1504Y1712D01*
X3998Y1712D02*
X3998Y1712D01*
X6Y1711D02*
X6Y1711D01*
X1498Y1711D02*
X1504Y1711D01*
X3998Y1711D02*
X3998Y1711D01*
X6Y1710D02*
X6Y1710D01*
X1498Y1710D02*
X1504Y1710D01*
X3998Y1710D02*
X3998Y1710D01*
X6Y1709D02*
X6Y1709D01*
X1498Y1709D02*
X1504Y1709D01*
X3998Y1709D02*
X3998Y1709D01*
X6Y1708D02*
X6Y1708D01*
X1498Y1708D02*
X1504Y1708D01*
X3998Y1708D02*
X3998Y1708D01*
X6Y1707D02*
X6Y1707D01*
X1498Y1707D02*
X1504Y1707D01*
X3998Y1707D02*
X3998Y1707D01*
X6Y1706D02*
X6Y1706D01*
X1498Y1706D02*
X1504Y1706D01*
X3998Y1706D02*
X3998Y1706D01*
X6Y1705D02*
X6Y1705D01*
X1498Y1705D02*
X1504Y1705D01*
X3998Y1705D02*
X3998Y1705D01*
X6Y1704D02*
X6Y1704D01*
X1499Y1704D02*
X1505Y1704D01*
X3998Y1704D02*
X3998Y1704D01*
X6Y1703D02*
X6Y1703D01*
X1499Y1703D02*
X1505Y1703D01*
X3998Y1703D02*
X3998Y1703D01*
X6Y1702D02*
X6Y1702D01*
X1499Y1702D02*
X1507Y1702D01*
X3998Y1702D02*
X3998Y1702D01*
X6Y1701D02*
X6Y1701D01*
X1499Y1701D02*
X1521Y1701D01*
X3998Y1701D02*
X3998Y1701D01*
X6Y1700D02*
X6Y1700D01*
X1500Y1700D02*
X1522Y1700D01*
X3998Y1700D02*
X3998Y1700D01*
X6Y1699D02*
X6Y1699D01*
X1501Y1699D02*
X1522Y1699D01*
X3998Y1699D02*
X3998Y1699D01*
X6Y1698D02*
X6Y1698D01*
X1502Y1698D02*
X1522Y1698D01*
X3998Y1698D02*
X3998Y1698D01*
X6Y1697D02*
X6Y1697D01*
X1503Y1697D02*
X1522Y1697D01*
X3998Y1697D02*
X3998Y1697D01*
X6Y1696D02*
X6Y1696D01*
X1504Y1696D02*
X1521Y1696D01*
X3998Y1696D02*
X3998Y1696D01*
X6Y1695D02*
X6Y1695D01*
X1508Y1695D02*
X1519Y1695D01*
X3998Y1695D02*
X3998Y1695D01*
X6Y1694D02*
X6Y1694D01*
X3998Y1694D02*
X3998Y1694D01*
X6Y1693D02*
X6Y1693D01*
X3998Y1693D02*
X3998Y1693D01*
X6Y1692D02*
X6Y1692D01*
X3998Y1692D02*
X3998Y1692D01*
X6Y1691D02*
X6Y1691D01*
X3998Y1691D02*
X3998Y1691D01*
X6Y1690D02*
X6Y1690D01*
X3998Y1690D02*
X3998Y1690D01*
X6Y1689D02*
X6Y1689D01*
X3998Y1689D02*
X3998Y1689D01*
X6Y1688D02*
X6Y1688D01*
X3998Y1688D02*
X3998Y1688D01*
X6Y1687D02*
X6Y1687D01*
X3998Y1687D02*
X3998Y1687D01*
X6Y1686D02*
X6Y1686D01*
X3998Y1686D02*
X3998Y1686D01*
X6Y1685D02*
X6Y1685D01*
X3998Y1685D02*
X3998Y1685D01*
X6Y1684D02*
X6Y1684D01*
X3998Y1684D02*
X3998Y1684D01*
X6Y1683D02*
X6Y1683D01*
X3998Y1683D02*
X3998Y1683D01*
X6Y1682D02*
X6Y1682D01*
X3998Y1682D02*
X3998Y1682D01*
X6Y1681D02*
X6Y1681D01*
X3998Y1681D02*
X3998Y1681D01*
X6Y1680D02*
X6Y1680D01*
X3998Y1680D02*
X3998Y1680D01*
X6Y1679D02*
X6Y1679D01*
X3998Y1679D02*
X3998Y1679D01*
X6Y1678D02*
X6Y1678D01*
X3998Y1678D02*
X3998Y1678D01*
X6Y1677D02*
X6Y1677D01*
X3998Y1677D02*
X3998Y1677D01*
X6Y1676D02*
X6Y1676D01*
X3998Y1676D02*
X3998Y1676D01*
X6Y1675D02*
X6Y1675D01*
X3998Y1675D02*
X3998Y1675D01*
X6Y1674D02*
X6Y1674D01*
X3998Y1674D02*
X3998Y1674D01*
X6Y1673D02*
X6Y1673D01*
X3998Y1673D02*
X3998Y1673D01*
X6Y1672D02*
X6Y1672D01*
X3998Y1672D02*
X3998Y1672D01*
X6Y1671D02*
X6Y1671D01*
X3998Y1671D02*
X3998Y1671D01*
X6Y1670D02*
X6Y1670D01*
X3998Y1670D02*
X3998Y1670D01*
X6Y1669D02*
X6Y1669D01*
X3998Y1669D02*
X3998Y1669D01*
X6Y1668D02*
X6Y1668D01*
X3998Y1668D02*
X3998Y1668D01*
X6Y1667D02*
X6Y1667D01*
X3998Y1667D02*
X3998Y1667D01*
X6Y1666D02*
X6Y1666D01*
X3998Y1666D02*
X3998Y1666D01*
X6Y1665D02*
X6Y1665D01*
X3998Y1665D02*
X3998Y1665D01*
X6Y1664D02*
X6Y1664D01*
X3998Y1664D02*
X3998Y1664D01*
X6Y1663D02*
X6Y1663D01*
X3998Y1663D02*
X3998Y1663D01*
X6Y1662D02*
X6Y1662D01*
X3998Y1662D02*
X3998Y1662D01*
X6Y1661D02*
X6Y1661D01*
X3998Y1661D02*
X3998Y1661D01*
X6Y1660D02*
X6Y1660D01*
X3998Y1660D02*
X3998Y1660D01*
X6Y1659D02*
X6Y1659D01*
X3998Y1659D02*
X3998Y1659D01*
X6Y1658D02*
X6Y1658D01*
X3998Y1658D02*
X3998Y1658D01*
X6Y1657D02*
X6Y1657D01*
X3998Y1657D02*
X3998Y1657D01*
X6Y1656D02*
X6Y1656D01*
X3998Y1656D02*
X3998Y1656D01*
X6Y1655D02*
X6Y1655D01*
X3998Y1655D02*
X3998Y1655D01*
X6Y1654D02*
X6Y1654D01*
X3998Y1654D02*
X3998Y1654D01*
X6Y1653D02*
X6Y1653D01*
X3998Y1653D02*
X3998Y1653D01*
X6Y1652D02*
X6Y1652D01*
X3998Y1652D02*
X3998Y1652D01*
X6Y1651D02*
X6Y1651D01*
X3998Y1651D02*
X3998Y1651D01*
X6Y1650D02*
X6Y1650D01*
X3998Y1650D02*
X3998Y1650D01*
X6Y1649D02*
X6Y1649D01*
X3998Y1649D02*
X3998Y1649D01*
X6Y1648D02*
X6Y1648D01*
X3998Y1648D02*
X3998Y1648D01*
X6Y1647D02*
X6Y1647D01*
X3998Y1647D02*
X3998Y1647D01*
X6Y1646D02*
X6Y1646D01*
X3998Y1646D02*
X3998Y1646D01*
X6Y1645D02*
X6Y1645D01*
X3998Y1645D02*
X3998Y1645D01*
X6Y1644D02*
X6Y1644D01*
X3998Y1644D02*
X3998Y1644D01*
X6Y1643D02*
X6Y1643D01*
X3998Y1643D02*
X3998Y1643D01*
X6Y1642D02*
X6Y1642D01*
X3998Y1642D02*
X3998Y1642D01*
X6Y1641D02*
X6Y1641D01*
X3998Y1641D02*
X3998Y1641D01*
X6Y1640D02*
X6Y1640D01*
X3998Y1640D02*
X3998Y1640D01*
X6Y1639D02*
X6Y1639D01*
X3998Y1639D02*
X3998Y1639D01*
X6Y1638D02*
X6Y1638D01*
X3998Y1638D02*
X3998Y1638D01*
X6Y1637D02*
X6Y1637D01*
X3998Y1637D02*
X3998Y1637D01*
X6Y1636D02*
X6Y1636D01*
X3998Y1636D02*
X3998Y1636D01*
X6Y1635D02*
X6Y1635D01*
X3998Y1635D02*
X3998Y1635D01*
X6Y1634D02*
X6Y1634D01*
X3998Y1634D02*
X3998Y1634D01*
X6Y1633D02*
X6Y1633D01*
X3998Y1633D02*
X3998Y1633D01*
X6Y1632D02*
X6Y1632D01*
X3998Y1632D02*
X3998Y1632D01*
X6Y1631D02*
X6Y1631D01*
X3998Y1631D02*
X3998Y1631D01*
X6Y1630D02*
X6Y1630D01*
X3998Y1630D02*
X3998Y1630D01*
X6Y1629D02*
X6Y1629D01*
X3998Y1629D02*
X3998Y1629D01*
X6Y1628D02*
X6Y1628D01*
X3998Y1628D02*
X3998Y1628D01*
X6Y1627D02*
X6Y1627D01*
X3998Y1627D02*
X3998Y1627D01*
X6Y1626D02*
X6Y1626D01*
X3998Y1626D02*
X3998Y1626D01*
X6Y1625D02*
X6Y1625D01*
X3998Y1625D02*
X3998Y1625D01*
X6Y1624D02*
X6Y1624D01*
X3998Y1624D02*
X3998Y1624D01*
X6Y1623D02*
X6Y1623D01*
X3998Y1623D02*
X3998Y1623D01*
X6Y1622D02*
X6Y1622D01*
X3998Y1622D02*
X3998Y1622D01*
X6Y1621D02*
X6Y1621D01*
X3998Y1621D02*
X3998Y1621D01*
X6Y1620D02*
X6Y1620D01*
X3998Y1620D02*
X3998Y1620D01*
X6Y1619D02*
X6Y1619D01*
X3998Y1619D02*
X3998Y1619D01*
X6Y1618D02*
X6Y1618D01*
X3998Y1618D02*
X3998Y1618D01*
X6Y1617D02*
X6Y1617D01*
X3998Y1617D02*
X3998Y1617D01*
X6Y1616D02*
X6Y1616D01*
X3998Y1616D02*
X3998Y1616D01*
X6Y1615D02*
X6Y1615D01*
X3998Y1615D02*
X3998Y1615D01*
X6Y1614D02*
X6Y1614D01*
X3998Y1614D02*
X3998Y1614D01*
X6Y1613D02*
X6Y1613D01*
X3998Y1613D02*
X3998Y1613D01*
X6Y1612D02*
X6Y1612D01*
X3998Y1612D02*
X3998Y1612D01*
X6Y1611D02*
X6Y1611D01*
X3998Y1611D02*
X3998Y1611D01*
X6Y1610D02*
X6Y1610D01*
X3998Y1610D02*
X3998Y1610D01*
X6Y1609D02*
X6Y1609D01*
X3998Y1609D02*
X3998Y1609D01*
X6Y1608D02*
X6Y1608D01*
X3998Y1608D02*
X3998Y1608D01*
X6Y1607D02*
X6Y1607D01*
X3998Y1607D02*
X3998Y1607D01*
X6Y1606D02*
X6Y1606D01*
X3998Y1606D02*
X3998Y1606D01*
X6Y1605D02*
X6Y1605D01*
X3998Y1605D02*
X3998Y1605D01*
X6Y1604D02*
X6Y1604D01*
X3998Y1604D02*
X3998Y1604D01*
X6Y1603D02*
X6Y1603D01*
X3998Y1603D02*
X3998Y1603D01*
X6Y1602D02*
X6Y1602D01*
X3998Y1602D02*
X3998Y1602D01*
X6Y1601D02*
X6Y1601D01*
X3998Y1601D02*
X3998Y1601D01*
X6Y1600D02*
X6Y1600D01*
X3998Y1600D02*
X3998Y1600D01*
X6Y1599D02*
X6Y1599D01*
X1449Y1599D02*
X1451Y1599D01*
X3998Y1599D02*
X3998Y1599D01*
X6Y1598D02*
X6Y1598D01*
X1448Y1598D02*
X1452Y1598D01*
X3998Y1598D02*
X3998Y1598D01*
X6Y1597D02*
X6Y1597D01*
X1447Y1597D02*
X1453Y1597D01*
X3998Y1597D02*
X3998Y1597D01*
X6Y1596D02*
X6Y1596D01*
X1446Y1596D02*
X1453Y1596D01*
X3998Y1596D02*
X3998Y1596D01*
X6Y1595D02*
X6Y1595D01*
X1445Y1595D02*
X1452Y1595D01*
X3998Y1595D02*
X3998Y1595D01*
X6Y1594D02*
X6Y1594D01*
X1444Y1594D02*
X1451Y1594D01*
X3998Y1594D02*
X3998Y1594D01*
X6Y1593D02*
X6Y1593D01*
X1443Y1593D02*
X1450Y1593D01*
X3998Y1593D02*
X3998Y1593D01*
X6Y1592D02*
X6Y1592D01*
X1442Y1592D02*
X1449Y1592D01*
X3998Y1592D02*
X3998Y1592D01*
X6Y1591D02*
X6Y1591D01*
X1441Y1591D02*
X1448Y1591D01*
X3998Y1591D02*
X3998Y1591D01*
X6Y1590D02*
X6Y1590D01*
X1440Y1590D02*
X1447Y1590D01*
X3998Y1590D02*
X3998Y1590D01*
X6Y1589D02*
X6Y1589D01*
X1439Y1589D02*
X1446Y1589D01*
X3998Y1589D02*
X3998Y1589D01*
X6Y1588D02*
X6Y1588D01*
X1438Y1588D02*
X1445Y1588D01*
X3998Y1588D02*
X3998Y1588D01*
X6Y1587D02*
X6Y1587D01*
X1438Y1587D02*
X1444Y1587D01*
X3998Y1587D02*
X3998Y1587D01*
X6Y1586D02*
X6Y1586D01*
X1437Y1586D02*
X1443Y1586D01*
X3998Y1586D02*
X3998Y1586D01*
X6Y1585D02*
X6Y1585D01*
X1436Y1585D02*
X1442Y1585D01*
X3998Y1585D02*
X3998Y1585D01*
X6Y1584D02*
X6Y1584D01*
X1435Y1584D02*
X1441Y1584D01*
X3998Y1584D02*
X3998Y1584D01*
X6Y1583D02*
X6Y1583D01*
X1434Y1583D02*
X1440Y1583D01*
X3998Y1583D02*
X3998Y1583D01*
X6Y1582D02*
X6Y1582D01*
X1433Y1582D02*
X1439Y1582D01*
X3998Y1582D02*
X3998Y1582D01*
X6Y1581D02*
X6Y1581D01*
X1432Y1581D02*
X1438Y1581D01*
X3998Y1581D02*
X3998Y1581D01*
X6Y1580D02*
X6Y1580D01*
X1431Y1580D02*
X1437Y1580D01*
X3998Y1580D02*
X3998Y1580D01*
X6Y1579D02*
X6Y1579D01*
X1430Y1579D02*
X1436Y1579D01*
X3998Y1579D02*
X3998Y1579D01*
X6Y1578D02*
X6Y1578D01*
X1428Y1578D02*
X1435Y1578D01*
X3998Y1578D02*
X3998Y1578D01*
X6Y1577D02*
X6Y1577D01*
X1427Y1577D02*
X1434Y1577D01*
X3998Y1577D02*
X3998Y1577D01*
X6Y1576D02*
X6Y1576D01*
X1426Y1576D02*
X1433Y1576D01*
X3998Y1576D02*
X3998Y1576D01*
X6Y1575D02*
X6Y1575D01*
X1425Y1575D02*
X1432Y1575D01*
X3998Y1575D02*
X3998Y1575D01*
X6Y1574D02*
X6Y1574D01*
X1424Y1574D02*
X1431Y1574D01*
X3998Y1574D02*
X3998Y1574D01*
X6Y1573D02*
X6Y1573D01*
X1423Y1573D02*
X1430Y1573D01*
X3998Y1573D02*
X3998Y1573D01*
X6Y1572D02*
X6Y1572D01*
X1422Y1572D02*
X1429Y1572D01*
X3998Y1572D02*
X3998Y1572D01*
X6Y1571D02*
X6Y1571D01*
X1421Y1571D02*
X1428Y1571D01*
X3998Y1571D02*
X3998Y1571D01*
X6Y1570D02*
X6Y1570D01*
X1420Y1570D02*
X1427Y1570D01*
X3998Y1570D02*
X3998Y1570D01*
X6Y1569D02*
X6Y1569D01*
X1419Y1569D02*
X1426Y1569D01*
X3998Y1569D02*
X3998Y1569D01*
X6Y1568D02*
X6Y1568D01*
X1418Y1568D02*
X1425Y1568D01*
X3998Y1568D02*
X3998Y1568D01*
X6Y1567D02*
X6Y1567D01*
X1417Y1567D02*
X1424Y1567D01*
X3998Y1567D02*
X3998Y1567D01*
X6Y1566D02*
X6Y1566D01*
X1416Y1566D02*
X1423Y1566D01*
X3998Y1566D02*
X3998Y1566D01*
X6Y1565D02*
X6Y1565D01*
X1416Y1565D02*
X1422Y1565D01*
X3998Y1565D02*
X3998Y1565D01*
X6Y1564D02*
X6Y1564D01*
X1417Y1564D02*
X1421Y1564D01*
X3998Y1564D02*
X3998Y1564D01*
X6Y1563D02*
X6Y1563D01*
X1418Y1563D02*
X1420Y1563D01*
X3998Y1563D02*
X3998Y1563D01*
X6Y1562D02*
X6Y1562D01*
X3998Y1562D02*
X3998Y1562D01*
X6Y1561D02*
X6Y1561D01*
X3998Y1561D02*
X3998Y1561D01*
X6Y1560D02*
X6Y1560D01*
X3998Y1560D02*
X3998Y1560D01*
X6Y1559D02*
X6Y1559D01*
X3998Y1559D02*
X3998Y1559D01*
X6Y1558D02*
X6Y1558D01*
X3998Y1558D02*
X3998Y1558D01*
X6Y1557D02*
X6Y1557D01*
X3998Y1557D02*
X3998Y1557D01*
X6Y1556D02*
X6Y1556D01*
X3998Y1556D02*
X3998Y1556D01*
X6Y1555D02*
X6Y1555D01*
X3998Y1555D02*
X3998Y1555D01*
X6Y1554D02*
X6Y1554D01*
X3998Y1554D02*
X3998Y1554D01*
X6Y1553D02*
X6Y1553D01*
X3998Y1553D02*
X3998Y1553D01*
X6Y1552D02*
X6Y1552D01*
X3998Y1552D02*
X3998Y1552D01*
X6Y1551D02*
X6Y1551D01*
X3998Y1551D02*
X3998Y1551D01*
X6Y1550D02*
X6Y1550D01*
X3998Y1550D02*
X3998Y1550D01*
X6Y1549D02*
X6Y1549D01*
X3998Y1549D02*
X3998Y1549D01*
X6Y1548D02*
X6Y1548D01*
X3998Y1548D02*
X3998Y1548D01*
X6Y1547D02*
X6Y1547D01*
X3998Y1547D02*
X3998Y1547D01*
X6Y1546D02*
X6Y1546D01*
X3998Y1546D02*
X3998Y1546D01*
X6Y1545D02*
X6Y1545D01*
X3998Y1545D02*
X3998Y1545D01*
X6Y1544D02*
X6Y1544D01*
X3998Y1544D02*
X3998Y1544D01*
X6Y1543D02*
X6Y1543D01*
X3998Y1543D02*
X3998Y1543D01*
X6Y1542D02*
X6Y1542D01*
X3998Y1542D02*
X3998Y1542D01*
X6Y1541D02*
X6Y1541D01*
X3998Y1541D02*
X3998Y1541D01*
X6Y1540D02*
X6Y1540D01*
X3998Y1540D02*
X3998Y1540D01*
X6Y1539D02*
X6Y1539D01*
X3998Y1539D02*
X3998Y1539D01*
X6Y1538D02*
X6Y1538D01*
X3998Y1538D02*
X3998Y1538D01*
X6Y1537D02*
X6Y1537D01*
X3998Y1537D02*
X3998Y1537D01*
X6Y1536D02*
X6Y1536D01*
X3998Y1536D02*
X3998Y1536D01*
X6Y1535D02*
X6Y1535D01*
X3998Y1535D02*
X3998Y1535D01*
X6Y1534D02*
X6Y1534D01*
X3998Y1534D02*
X3998Y1534D01*
X6Y1533D02*
X6Y1533D01*
X3998Y1533D02*
X3998Y1533D01*
X6Y1532D02*
X6Y1532D01*
X3998Y1532D02*
X3998Y1532D01*
X6Y1531D02*
X6Y1531D01*
X3998Y1531D02*
X3998Y1531D01*
X6Y1530D02*
X6Y1530D01*
X3998Y1530D02*
X3998Y1530D01*
X6Y1529D02*
X6Y1529D01*
X3998Y1529D02*
X3998Y1529D01*
X6Y1528D02*
X6Y1528D01*
X3998Y1528D02*
X3998Y1528D01*
X6Y1527D02*
X6Y1527D01*
X3998Y1527D02*
X3998Y1527D01*
X6Y1526D02*
X6Y1526D01*
X3998Y1526D02*
X3998Y1526D01*
X6Y1525D02*
X6Y1525D01*
X3998Y1525D02*
X3998Y1525D01*
X6Y1524D02*
X6Y1524D01*
X3998Y1524D02*
X3998Y1524D01*
X6Y1523D02*
X6Y1523D01*
X3998Y1523D02*
X3998Y1523D01*
X6Y1522D02*
X6Y1522D01*
X3998Y1522D02*
X3998Y1522D01*
X6Y1521D02*
X6Y1521D01*
X3998Y1521D02*
X3998Y1521D01*
X6Y1520D02*
X6Y1520D01*
X3998Y1520D02*
X3998Y1520D01*
X6Y1519D02*
X6Y1519D01*
X3998Y1519D02*
X3998Y1519D01*
X6Y1518D02*
X6Y1518D01*
X3998Y1518D02*
X3998Y1518D01*
X6Y1517D02*
X6Y1517D01*
X3998Y1517D02*
X3998Y1517D01*
X6Y1516D02*
X6Y1516D01*
X3998Y1516D02*
X3998Y1516D01*
X6Y1515D02*
X6Y1515D01*
X3998Y1515D02*
X3998Y1515D01*
X6Y1514D02*
X6Y1514D01*
X3998Y1514D02*
X3998Y1514D01*
X6Y1513D02*
X6Y1513D01*
X3998Y1513D02*
X3998Y1513D01*
X6Y1512D02*
X6Y1512D01*
X3998Y1512D02*
X3998Y1512D01*
X6Y1511D02*
X6Y1511D01*
X3998Y1511D02*
X3998Y1511D01*
X6Y1510D02*
X6Y1510D01*
X3998Y1510D02*
X3998Y1510D01*
X6Y1509D02*
X6Y1509D01*
X3998Y1509D02*
X3998Y1509D01*
X6Y1508D02*
X6Y1508D01*
X3998Y1508D02*
X3998Y1508D01*
X6Y1507D02*
X6Y1507D01*
X3998Y1507D02*
X3998Y1507D01*
X6Y1506D02*
X6Y1506D01*
X3998Y1506D02*
X3998Y1506D01*
X6Y1505D02*
X6Y1505D01*
X3998Y1505D02*
X3998Y1505D01*
X6Y1504D02*
X6Y1504D01*
X3998Y1504D02*
X3998Y1504D01*
X6Y1503D02*
X6Y1503D01*
X3998Y1503D02*
X3998Y1503D01*
X6Y1502D02*
X6Y1502D01*
X3998Y1502D02*
X3998Y1502D01*
X6Y1501D02*
X6Y1501D01*
X3998Y1501D02*
X3998Y1501D01*
X6Y1500D02*
X6Y1500D01*
X3998Y1500D02*
X3998Y1500D01*
X6Y1499D02*
X6Y1499D01*
X3998Y1499D02*
X3998Y1499D01*
X6Y1498D02*
X6Y1498D01*
X3998Y1498D02*
X3998Y1498D01*
X6Y1497D02*
X6Y1497D01*
X3998Y1497D02*
X3998Y1497D01*
X6Y1496D02*
X6Y1496D01*
X3998Y1496D02*
X3998Y1496D01*
X6Y1495D02*
X6Y1495D01*
X3998Y1495D02*
X3998Y1495D01*
X6Y1494D02*
X6Y1494D01*
X3998Y1494D02*
X3998Y1494D01*
X6Y1493D02*
X6Y1493D01*
X3998Y1493D02*
X3998Y1493D01*
X6Y1492D02*
X6Y1492D01*
X3998Y1492D02*
X3998Y1492D01*
X6Y1491D02*
X6Y1491D01*
X3998Y1491D02*
X3998Y1491D01*
X6Y1490D02*
X6Y1490D01*
X3998Y1490D02*
X3998Y1490D01*
X6Y1489D02*
X6Y1489D01*
X3998Y1489D02*
X3998Y1489D01*
X6Y1488D02*
X6Y1488D01*
X3998Y1488D02*
X3998Y1488D01*
X6Y1487D02*
X6Y1487D01*
X3998Y1487D02*
X3998Y1487D01*
X6Y1486D02*
X6Y1486D01*
X3998Y1486D02*
X3998Y1486D01*
X6Y1485D02*
X6Y1485D01*
X3998Y1485D02*
X3998Y1485D01*
X6Y1484D02*
X6Y1484D01*
X3998Y1484D02*
X3998Y1484D01*
X6Y1483D02*
X6Y1483D01*
X3998Y1483D02*
X3998Y1483D01*
X6Y1482D02*
X6Y1482D01*
X3998Y1482D02*
X3998Y1482D01*
X6Y1481D02*
X6Y1481D01*
X3998Y1481D02*
X3998Y1481D01*
X6Y1480D02*
X6Y1480D01*
X3998Y1480D02*
X3998Y1480D01*
X6Y1479D02*
X6Y1479D01*
X3998Y1479D02*
X3998Y1479D01*
X6Y1478D02*
X6Y1478D01*
X3998Y1478D02*
X3998Y1478D01*
X6Y1477D02*
X6Y1477D01*
X3998Y1477D02*
X3998Y1477D01*
X6Y1476D02*
X6Y1476D01*
X3998Y1476D02*
X3998Y1476D01*
X6Y1475D02*
X6Y1475D01*
X3998Y1475D02*
X3998Y1475D01*
X6Y1474D02*
X6Y1474D01*
X3998Y1474D02*
X3998Y1474D01*
X6Y1473D02*
X6Y1473D01*
X3998Y1473D02*
X3998Y1473D01*
X6Y1472D02*
X6Y1472D01*
X3998Y1472D02*
X3998Y1472D01*
X6Y1471D02*
X6Y1471D01*
X3998Y1471D02*
X3998Y1471D01*
X6Y1470D02*
X6Y1470D01*
X3998Y1470D02*
X3998Y1470D01*
X6Y1469D02*
X6Y1469D01*
X3998Y1469D02*
X3998Y1469D01*
X6Y1468D02*
X6Y1468D01*
X3998Y1468D02*
X3998Y1468D01*
X6Y1467D02*
X6Y1467D01*
X3998Y1467D02*
X3998Y1467D01*
X6Y1466D02*
X6Y1466D01*
X3998Y1466D02*
X3998Y1466D01*
X6Y1465D02*
X6Y1465D01*
X3998Y1465D02*
X3998Y1465D01*
X6Y1464D02*
X6Y1464D01*
X3998Y1464D02*
X3998Y1464D01*
X6Y1463D02*
X6Y1463D01*
X1042Y1463D02*
X1072Y1463D01*
X1096Y1463D02*
X1098Y1463D01*
X2854Y1463D02*
X2872Y1463D01*
X2895Y1463D02*
X2898Y1463D01*
X3167Y1463D02*
X3170Y1463D01*
X3195Y1463D02*
X3198Y1463D01*
X3998Y1463D02*
X3998Y1463D01*
X6Y1462D02*
X6Y1462D01*
X1041Y1462D02*
X1073Y1462D01*
X1095Y1462D02*
X1099Y1462D01*
X2854Y1462D02*
X2873Y1462D01*
X2894Y1462D02*
X2899Y1462D01*
X3166Y1462D02*
X3171Y1462D01*
X3194Y1462D02*
X3199Y1462D01*
X3998Y1462D02*
X3998Y1462D01*
X6Y1461D02*
X6Y1461D01*
X1040Y1461D02*
X1074Y1461D01*
X1094Y1461D02*
X1100Y1461D01*
X2854Y1461D02*
X2873Y1461D01*
X2894Y1461D02*
X2899Y1461D01*
X3166Y1461D02*
X3171Y1461D01*
X3194Y1461D02*
X3199Y1461D01*
X3998Y1461D02*
X3998Y1461D01*
X6Y1460D02*
X6Y1460D01*
X1040Y1460D02*
X1074Y1460D01*
X1094Y1460D02*
X1100Y1460D01*
X2854Y1460D02*
X2873Y1460D01*
X2893Y1460D02*
X2899Y1460D01*
X3166Y1460D02*
X3172Y1460D01*
X3193Y1460D02*
X3199Y1460D01*
X3998Y1460D02*
X3998Y1460D01*
X6Y1459D02*
X6Y1459D01*
X1040Y1459D02*
X1074Y1459D01*
X1094Y1459D02*
X1100Y1459D01*
X2854Y1459D02*
X2873Y1459D01*
X2893Y1459D02*
X2899Y1459D01*
X3166Y1459D02*
X3172Y1459D01*
X3193Y1459D02*
X3199Y1459D01*
X3998Y1459D02*
X3998Y1459D01*
X6Y1458D02*
X6Y1458D01*
X1040Y1458D02*
X1074Y1458D01*
X1094Y1458D02*
X1100Y1458D01*
X2854Y1458D02*
X2873Y1458D01*
X2893Y1458D02*
X2899Y1458D01*
X3166Y1458D02*
X3172Y1458D01*
X3193Y1458D02*
X3199Y1458D01*
X3998Y1458D02*
X3998Y1458D01*
X6Y1457D02*
X6Y1457D01*
X1040Y1457D02*
X1074Y1457D01*
X1094Y1457D02*
X1100Y1457D01*
X2854Y1457D02*
X2872Y1457D01*
X2893Y1457D02*
X2899Y1457D01*
X3146Y1457D02*
X3149Y1457D01*
X3166Y1457D02*
X3172Y1457D01*
X3193Y1457D02*
X3199Y1457D01*
X3998Y1457D02*
X3998Y1457D01*
X6Y1456D02*
X6Y1456D01*
X1040Y1456D02*
X1046Y1456D01*
X1068Y1456D02*
X1074Y1456D01*
X1094Y1456D02*
X1100Y1456D01*
X2854Y1456D02*
X2860Y1456D01*
X2893Y1456D02*
X2899Y1456D01*
X3145Y1456D02*
X3150Y1456D01*
X3166Y1456D02*
X3172Y1456D01*
X3193Y1456D02*
X3199Y1456D01*
X3998Y1456D02*
X3998Y1456D01*
X6Y1455D02*
X6Y1455D01*
X1040Y1455D02*
X1046Y1455D01*
X1068Y1455D02*
X1074Y1455D01*
X1094Y1455D02*
X1100Y1455D01*
X2854Y1455D02*
X2860Y1455D01*
X2893Y1455D02*
X2899Y1455D01*
X3145Y1455D02*
X3151Y1455D01*
X3166Y1455D02*
X3172Y1455D01*
X3193Y1455D02*
X3199Y1455D01*
X3998Y1455D02*
X3998Y1455D01*
X6Y1454D02*
X6Y1454D01*
X1040Y1454D02*
X1046Y1454D01*
X1068Y1454D02*
X1074Y1454D01*
X1094Y1454D02*
X1100Y1454D01*
X2854Y1454D02*
X2860Y1454D01*
X2893Y1454D02*
X2899Y1454D01*
X3145Y1454D02*
X3151Y1454D01*
X3166Y1454D02*
X3172Y1454D01*
X3193Y1454D02*
X3199Y1454D01*
X3998Y1454D02*
X3998Y1454D01*
X6Y1453D02*
X6Y1453D01*
X1040Y1453D02*
X1046Y1453D01*
X1068Y1453D02*
X1074Y1453D01*
X1094Y1453D02*
X1100Y1453D01*
X2854Y1453D02*
X2860Y1453D01*
X2893Y1453D02*
X2899Y1453D01*
X3145Y1453D02*
X3151Y1453D01*
X3166Y1453D02*
X3172Y1453D01*
X3193Y1453D02*
X3199Y1453D01*
X3998Y1453D02*
X3998Y1453D01*
X6Y1452D02*
X6Y1452D01*
X1040Y1452D02*
X1046Y1452D01*
X1068Y1452D02*
X1074Y1452D01*
X1094Y1452D02*
X1100Y1452D01*
X2854Y1452D02*
X2860Y1452D01*
X2893Y1452D02*
X2899Y1452D01*
X3145Y1452D02*
X3151Y1452D01*
X3166Y1452D02*
X3172Y1452D01*
X3193Y1452D02*
X3199Y1452D01*
X3998Y1452D02*
X3998Y1452D01*
X6Y1451D02*
X6Y1451D01*
X1040Y1451D02*
X1046Y1451D01*
X1068Y1451D02*
X1074Y1451D01*
X1094Y1451D02*
X1100Y1451D01*
X2854Y1451D02*
X2860Y1451D01*
X2893Y1451D02*
X2899Y1451D01*
X3145Y1451D02*
X3151Y1451D01*
X3166Y1451D02*
X3172Y1451D01*
X3193Y1451D02*
X3199Y1451D01*
X3998Y1451D02*
X3998Y1451D01*
X6Y1450D02*
X6Y1450D01*
X1040Y1450D02*
X1046Y1450D01*
X1068Y1450D02*
X1074Y1450D01*
X1094Y1450D02*
X1100Y1450D01*
X2854Y1450D02*
X2860Y1450D01*
X2893Y1450D02*
X2899Y1450D01*
X3145Y1450D02*
X3151Y1450D01*
X3166Y1450D02*
X3172Y1450D01*
X3193Y1450D02*
X3199Y1450D01*
X3998Y1450D02*
X3998Y1450D01*
X6Y1449D02*
X6Y1449D01*
X1040Y1449D02*
X1046Y1449D01*
X1068Y1449D02*
X1074Y1449D01*
X1094Y1449D02*
X1100Y1449D01*
X2854Y1449D02*
X2860Y1449D01*
X2893Y1449D02*
X2899Y1449D01*
X3145Y1449D02*
X3151Y1449D01*
X3166Y1449D02*
X3172Y1449D01*
X3193Y1449D02*
X3199Y1449D01*
X3998Y1449D02*
X3998Y1449D01*
X6Y1448D02*
X6Y1448D01*
X1040Y1448D02*
X1046Y1448D01*
X1068Y1448D02*
X1074Y1448D01*
X1094Y1448D02*
X1100Y1448D01*
X2854Y1448D02*
X2860Y1448D01*
X2893Y1448D02*
X2899Y1448D01*
X3145Y1448D02*
X3151Y1448D01*
X3166Y1448D02*
X3172Y1448D01*
X3193Y1448D02*
X3199Y1448D01*
X3998Y1448D02*
X3998Y1448D01*
X6Y1447D02*
X6Y1447D01*
X1040Y1447D02*
X1046Y1447D01*
X1068Y1447D02*
X1074Y1447D01*
X1094Y1447D02*
X1100Y1447D01*
X2854Y1447D02*
X2860Y1447D01*
X2893Y1447D02*
X2899Y1447D01*
X3145Y1447D02*
X3151Y1447D01*
X3166Y1447D02*
X3172Y1447D01*
X3193Y1447D02*
X3199Y1447D01*
X3998Y1447D02*
X3998Y1447D01*
X6Y1446D02*
X6Y1446D01*
X1040Y1446D02*
X1046Y1446D01*
X1068Y1446D02*
X1074Y1446D01*
X1094Y1446D02*
X1100Y1446D01*
X2854Y1446D02*
X2860Y1446D01*
X2893Y1446D02*
X2899Y1446D01*
X3145Y1446D02*
X3151Y1446D01*
X3166Y1446D02*
X3172Y1446D01*
X3193Y1446D02*
X3199Y1446D01*
X3998Y1446D02*
X3998Y1446D01*
X6Y1445D02*
X6Y1445D01*
X1040Y1445D02*
X1074Y1445D01*
X1094Y1445D02*
X1100Y1445D01*
X2854Y1445D02*
X2860Y1445D01*
X2893Y1445D02*
X2899Y1445D01*
X3145Y1445D02*
X3151Y1445D01*
X3166Y1445D02*
X3172Y1445D01*
X3193Y1445D02*
X3199Y1445D01*
X3998Y1445D02*
X3998Y1445D01*
X6Y1444D02*
X6Y1444D01*
X1040Y1444D02*
X1074Y1444D01*
X1094Y1444D02*
X1100Y1444D01*
X2854Y1444D02*
X2860Y1444D01*
X2893Y1444D02*
X2899Y1444D01*
X3145Y1444D02*
X3151Y1444D01*
X3166Y1444D02*
X3172Y1444D01*
X3193Y1444D02*
X3199Y1444D01*
X3998Y1444D02*
X3998Y1444D01*
X6Y1443D02*
X6Y1443D01*
X1040Y1443D02*
X1074Y1443D01*
X1094Y1443D02*
X1100Y1443D01*
X2854Y1443D02*
X2860Y1443D01*
X2893Y1443D02*
X2899Y1443D01*
X3145Y1443D02*
X3151Y1443D01*
X3166Y1443D02*
X3172Y1443D01*
X3193Y1443D02*
X3199Y1443D01*
X3998Y1443D02*
X3998Y1443D01*
X6Y1442D02*
X6Y1442D01*
X1040Y1442D02*
X1074Y1442D01*
X1094Y1442D02*
X1100Y1442D01*
X2854Y1442D02*
X2860Y1442D01*
X2893Y1442D02*
X2899Y1442D01*
X3145Y1442D02*
X3151Y1442D01*
X3166Y1442D02*
X3172Y1442D01*
X3193Y1442D02*
X3199Y1442D01*
X3998Y1442D02*
X3998Y1442D01*
X6Y1441D02*
X6Y1441D01*
X1040Y1441D02*
X1073Y1441D01*
X1094Y1441D02*
X1100Y1441D01*
X2854Y1441D02*
X2860Y1441D01*
X2893Y1441D02*
X2899Y1441D01*
X3145Y1441D02*
X3151Y1441D01*
X3166Y1441D02*
X3172Y1441D01*
X3193Y1441D02*
X3199Y1441D01*
X3998Y1441D02*
X3998Y1441D01*
X6Y1440D02*
X6Y1440D01*
X1040Y1440D02*
X1073Y1440D01*
X1094Y1440D02*
X1100Y1440D01*
X2854Y1440D02*
X2860Y1440D01*
X2893Y1440D02*
X2899Y1440D01*
X3145Y1440D02*
X3151Y1440D01*
X3166Y1440D02*
X3172Y1440D01*
X3193Y1440D02*
X3199Y1440D01*
X3998Y1440D02*
X3998Y1440D01*
X6Y1439D02*
X6Y1439D01*
X1040Y1439D02*
X1071Y1439D01*
X1094Y1439D02*
X1100Y1439D01*
X2854Y1439D02*
X2860Y1439D01*
X2893Y1439D02*
X2899Y1439D01*
X3145Y1439D02*
X3151Y1439D01*
X3166Y1439D02*
X3172Y1439D01*
X3193Y1439D02*
X3199Y1439D01*
X3998Y1439D02*
X3998Y1439D01*
X6Y1438D02*
X6Y1438D01*
X1040Y1438D02*
X1046Y1438D01*
X1094Y1438D02*
X1100Y1438D01*
X2854Y1438D02*
X2860Y1438D01*
X2893Y1438D02*
X2899Y1438D01*
X3145Y1438D02*
X3151Y1438D01*
X3166Y1438D02*
X3172Y1438D01*
X3193Y1438D02*
X3199Y1438D01*
X3998Y1438D02*
X3998Y1438D01*
X6Y1437D02*
X6Y1437D01*
X1040Y1437D02*
X1046Y1437D01*
X1094Y1437D02*
X1100Y1437D01*
X2854Y1437D02*
X2860Y1437D01*
X2893Y1437D02*
X2899Y1437D01*
X3145Y1437D02*
X3151Y1437D01*
X3166Y1437D02*
X3172Y1437D01*
X3193Y1437D02*
X3199Y1437D01*
X3998Y1437D02*
X3998Y1437D01*
X6Y1436D02*
X6Y1436D01*
X1040Y1436D02*
X1046Y1436D01*
X1094Y1436D02*
X1100Y1436D01*
X2854Y1436D02*
X2860Y1436D01*
X2893Y1436D02*
X2899Y1436D01*
X3145Y1436D02*
X3151Y1436D01*
X3166Y1436D02*
X3172Y1436D01*
X3193Y1436D02*
X3199Y1436D01*
X3998Y1436D02*
X3998Y1436D01*
X6Y1435D02*
X6Y1435D01*
X1040Y1435D02*
X1046Y1435D01*
X1094Y1435D02*
X1100Y1435D01*
X2854Y1435D02*
X2860Y1435D01*
X2893Y1435D02*
X2899Y1435D01*
X3145Y1435D02*
X3151Y1435D01*
X3166Y1435D02*
X3172Y1435D01*
X3193Y1435D02*
X3199Y1435D01*
X3998Y1435D02*
X3998Y1435D01*
X6Y1434D02*
X6Y1434D01*
X1040Y1434D02*
X1046Y1434D01*
X1094Y1434D02*
X1100Y1434D01*
X2843Y1434D02*
X2843Y1434D01*
X2854Y1434D02*
X2860Y1434D01*
X2893Y1434D02*
X2899Y1434D01*
X2917Y1434D02*
X2917Y1434D01*
X3144Y1434D02*
X3172Y1434D01*
X3193Y1434D02*
X3199Y1434D01*
X3217Y1434D02*
X3217Y1434D01*
X3998Y1434D02*
X3998Y1434D01*
X6Y1433D02*
X6Y1433D01*
X1040Y1433D02*
X1046Y1433D01*
X1094Y1433D02*
X1100Y1433D01*
X1116Y1433D02*
X1119Y1433D01*
X2841Y1433D02*
X2845Y1433D01*
X2854Y1433D02*
X2860Y1433D01*
X2893Y1433D02*
X2899Y1433D01*
X2915Y1433D02*
X2919Y1433D01*
X3142Y1433D02*
X3172Y1433D01*
X3193Y1433D02*
X3199Y1433D01*
X3215Y1433D02*
X3219Y1433D01*
X3998Y1433D02*
X3998Y1433D01*
X6Y1432D02*
X6Y1432D01*
X1040Y1432D02*
X1046Y1432D01*
X1094Y1432D02*
X1100Y1432D01*
X1115Y1432D02*
X1120Y1432D01*
X2840Y1432D02*
X2845Y1432D01*
X2854Y1432D02*
X2860Y1432D01*
X2893Y1432D02*
X2899Y1432D01*
X2914Y1432D02*
X2920Y1432D01*
X3142Y1432D02*
X3172Y1432D01*
X3193Y1432D02*
X3199Y1432D01*
X3214Y1432D02*
X3220Y1432D01*
X3998Y1432D02*
X3998Y1432D01*
X6Y1431D02*
X6Y1431D01*
X1040Y1431D02*
X1046Y1431D01*
X1094Y1431D02*
X1100Y1431D01*
X1115Y1431D02*
X1120Y1431D01*
X2840Y1431D02*
X2846Y1431D01*
X2854Y1431D02*
X2860Y1431D01*
X2893Y1431D02*
X2899Y1431D01*
X2914Y1431D02*
X2920Y1431D01*
X3141Y1431D02*
X3172Y1431D01*
X3193Y1431D02*
X3199Y1431D01*
X3214Y1431D02*
X3220Y1431D01*
X3998Y1431D02*
X3998Y1431D01*
X6Y1430D02*
X6Y1430D01*
X1040Y1430D02*
X1046Y1430D01*
X1094Y1430D02*
X1100Y1430D01*
X1115Y1430D02*
X1121Y1430D01*
X2840Y1430D02*
X2846Y1430D01*
X2854Y1430D02*
X2860Y1430D01*
X2893Y1430D02*
X2899Y1430D01*
X2914Y1430D02*
X2920Y1430D01*
X3142Y1430D02*
X3172Y1430D01*
X3193Y1430D02*
X3199Y1430D01*
X3214Y1430D02*
X3220Y1430D01*
X3998Y1430D02*
X3998Y1430D01*
X6Y1429D02*
X6Y1429D01*
X1040Y1429D02*
X1046Y1429D01*
X1094Y1429D02*
X1100Y1429D01*
X1115Y1429D02*
X1121Y1429D01*
X2840Y1429D02*
X2846Y1429D01*
X2854Y1429D02*
X2860Y1429D01*
X2893Y1429D02*
X2899Y1429D01*
X2914Y1429D02*
X2920Y1429D01*
X3142Y1429D02*
X3172Y1429D01*
X3193Y1429D02*
X3199Y1429D01*
X3214Y1429D02*
X3220Y1429D01*
X3998Y1429D02*
X3998Y1429D01*
X6Y1428D02*
X6Y1428D01*
X1040Y1428D02*
X1046Y1428D01*
X1094Y1428D02*
X1100Y1428D01*
X1115Y1428D02*
X1121Y1428D01*
X2840Y1428D02*
X2846Y1428D01*
X2854Y1428D02*
X2860Y1428D01*
X2893Y1428D02*
X2899Y1428D01*
X2914Y1428D02*
X2920Y1428D01*
X3143Y1428D02*
X3172Y1428D01*
X3193Y1428D02*
X3199Y1428D01*
X3214Y1428D02*
X3220Y1428D01*
X3998Y1428D02*
X3998Y1428D01*
X6Y1427D02*
X6Y1427D01*
X1040Y1427D02*
X1046Y1427D01*
X1094Y1427D02*
X1100Y1427D01*
X1115Y1427D02*
X1121Y1427D01*
X2840Y1427D02*
X2846Y1427D01*
X2854Y1427D02*
X2860Y1427D01*
X2893Y1427D02*
X2899Y1427D01*
X2914Y1427D02*
X2920Y1427D01*
X3145Y1427D02*
X3151Y1427D01*
X3193Y1427D02*
X3199Y1427D01*
X3214Y1427D02*
X3220Y1427D01*
X3998Y1427D02*
X3998Y1427D01*
X6Y1426D02*
X6Y1426D01*
X1040Y1426D02*
X1046Y1426D01*
X1094Y1426D02*
X1100Y1426D01*
X1115Y1426D02*
X1121Y1426D01*
X2840Y1426D02*
X2846Y1426D01*
X2854Y1426D02*
X2860Y1426D01*
X2893Y1426D02*
X2899Y1426D01*
X2914Y1426D02*
X2920Y1426D01*
X3145Y1426D02*
X3151Y1426D01*
X3193Y1426D02*
X3199Y1426D01*
X3214Y1426D02*
X3220Y1426D01*
X3998Y1426D02*
X3998Y1426D01*
X6Y1425D02*
X6Y1425D01*
X1040Y1425D02*
X1046Y1425D01*
X1094Y1425D02*
X1100Y1425D01*
X1115Y1425D02*
X1121Y1425D01*
X2840Y1425D02*
X2846Y1425D01*
X2854Y1425D02*
X2860Y1425D01*
X2893Y1425D02*
X2899Y1425D01*
X2914Y1425D02*
X2920Y1425D01*
X3145Y1425D02*
X3151Y1425D01*
X3193Y1425D02*
X3199Y1425D01*
X3214Y1425D02*
X3220Y1425D01*
X3998Y1425D02*
X3998Y1425D01*
X6Y1424D02*
X6Y1424D01*
X1040Y1424D02*
X1046Y1424D01*
X1094Y1424D02*
X1100Y1424D01*
X1115Y1424D02*
X1121Y1424D01*
X2840Y1424D02*
X2846Y1424D01*
X2854Y1424D02*
X2860Y1424D01*
X2893Y1424D02*
X2899Y1424D01*
X2914Y1424D02*
X2920Y1424D01*
X3145Y1424D02*
X3151Y1424D01*
X3193Y1424D02*
X3199Y1424D01*
X3214Y1424D02*
X3220Y1424D01*
X3998Y1424D02*
X3998Y1424D01*
X6Y1423D02*
X6Y1423D01*
X1040Y1423D02*
X1046Y1423D01*
X1094Y1423D02*
X1100Y1423D01*
X1115Y1423D02*
X1121Y1423D01*
X2840Y1423D02*
X2846Y1423D01*
X2854Y1423D02*
X2860Y1423D01*
X2893Y1423D02*
X2899Y1423D01*
X2914Y1423D02*
X2920Y1423D01*
X3145Y1423D02*
X3151Y1423D01*
X3193Y1423D02*
X3199Y1423D01*
X3214Y1423D02*
X3220Y1423D01*
X3998Y1423D02*
X3998Y1423D01*
X6Y1422D02*
X6Y1422D01*
X1040Y1422D02*
X1046Y1422D01*
X1094Y1422D02*
X1100Y1422D01*
X1115Y1422D02*
X1121Y1422D01*
X2840Y1422D02*
X2846Y1422D01*
X2854Y1422D02*
X2860Y1422D01*
X2893Y1422D02*
X2899Y1422D01*
X2914Y1422D02*
X2920Y1422D01*
X3145Y1422D02*
X3151Y1422D01*
X3193Y1422D02*
X3199Y1422D01*
X3214Y1422D02*
X3220Y1422D01*
X3998Y1422D02*
X3998Y1422D01*
X6Y1421D02*
X6Y1421D01*
X1040Y1421D02*
X1046Y1421D01*
X1094Y1421D02*
X1100Y1421D01*
X1115Y1421D02*
X1121Y1421D01*
X2840Y1421D02*
X2846Y1421D01*
X2854Y1421D02*
X2860Y1421D01*
X2893Y1421D02*
X2899Y1421D01*
X2914Y1421D02*
X2920Y1421D01*
X3145Y1421D02*
X3151Y1421D01*
X3193Y1421D02*
X3199Y1421D01*
X3214Y1421D02*
X3220Y1421D01*
X3998Y1421D02*
X3998Y1421D01*
X6Y1420D02*
X6Y1420D01*
X1040Y1420D02*
X1046Y1420D01*
X1094Y1420D02*
X1100Y1420D01*
X1115Y1420D02*
X1121Y1420D01*
X2840Y1420D02*
X2846Y1420D01*
X2854Y1420D02*
X2860Y1420D01*
X2893Y1420D02*
X2899Y1420D01*
X2914Y1420D02*
X2920Y1420D01*
X3145Y1420D02*
X3151Y1420D01*
X3193Y1420D02*
X3199Y1420D01*
X3214Y1420D02*
X3220Y1420D01*
X3998Y1420D02*
X3998Y1420D01*
X6Y1419D02*
X6Y1419D01*
X1040Y1419D02*
X1046Y1419D01*
X1094Y1419D02*
X1100Y1419D01*
X1114Y1419D02*
X1120Y1419D01*
X2840Y1419D02*
X2846Y1419D01*
X2854Y1419D02*
X2860Y1419D01*
X2893Y1419D02*
X2900Y1419D01*
X2914Y1419D02*
X2920Y1419D01*
X3145Y1419D02*
X3151Y1419D01*
X3193Y1419D02*
X3200Y1419D01*
X3214Y1419D02*
X3220Y1419D01*
X3998Y1419D02*
X3998Y1419D01*
X6Y1418D02*
X6Y1418D01*
X1040Y1418D02*
X1046Y1418D01*
X1094Y1418D02*
X1100Y1418D01*
X1114Y1418D02*
X1120Y1418D01*
X2840Y1418D02*
X2846Y1418D01*
X2854Y1418D02*
X2860Y1418D01*
X2894Y1418D02*
X2900Y1418D01*
X2913Y1418D02*
X2920Y1418D01*
X3145Y1418D02*
X3151Y1418D01*
X3194Y1418D02*
X3200Y1418D01*
X3213Y1418D02*
X3220Y1418D01*
X3998Y1418D02*
X3998Y1418D01*
X6Y1417D02*
X6Y1417D01*
X1040Y1417D02*
X1046Y1417D01*
X1094Y1417D02*
X1101Y1417D01*
X1113Y1417D02*
X1120Y1417D01*
X2840Y1417D02*
X2846Y1417D01*
X2854Y1417D02*
X2860Y1417D01*
X2894Y1417D02*
X2901Y1417D01*
X2912Y1417D02*
X2920Y1417D01*
X3145Y1417D02*
X3151Y1417D01*
X3194Y1417D02*
X3201Y1417D01*
X3212Y1417D02*
X3220Y1417D01*
X3998Y1417D02*
X3998Y1417D01*
X6Y1416D02*
X6Y1416D01*
X1040Y1416D02*
X1048Y1416D01*
X1095Y1416D02*
X1120Y1416D01*
X2840Y1416D02*
X2871Y1416D01*
X2894Y1416D02*
X2919Y1416D01*
X3145Y1416D02*
X3151Y1416D01*
X3194Y1416D02*
X3219Y1416D01*
X3998Y1416D02*
X3998Y1416D01*
X6Y1415D02*
X6Y1415D01*
X1040Y1415D02*
X1049Y1415D01*
X1095Y1415D02*
X1119Y1415D01*
X2840Y1415D02*
X2873Y1415D01*
X2895Y1415D02*
X2919Y1415D01*
X3145Y1415D02*
X3151Y1415D01*
X3195Y1415D02*
X3219Y1415D01*
X3998Y1415D02*
X3998Y1415D01*
X6Y1414D02*
X6Y1414D01*
X1040Y1414D02*
X1049Y1414D01*
X1096Y1414D02*
X1119Y1414D01*
X2840Y1414D02*
X2873Y1414D01*
X2895Y1414D02*
X2918Y1414D01*
X3145Y1414D02*
X3151Y1414D01*
X3195Y1414D02*
X3218Y1414D01*
X3998Y1414D02*
X3998Y1414D01*
X6Y1413D02*
X6Y1413D01*
X1040Y1413D02*
X1050Y1413D01*
X1096Y1413D02*
X1118Y1413D01*
X2840Y1413D02*
X2873Y1413D01*
X2896Y1413D02*
X2917Y1413D01*
X3145Y1413D02*
X3151Y1413D01*
X3196Y1413D02*
X3217Y1413D01*
X3998Y1413D02*
X3998Y1413D01*
X6Y1412D02*
X6Y1412D01*
X1040Y1412D02*
X1049Y1412D01*
X1097Y1412D02*
X1117Y1412D01*
X2840Y1412D02*
X2873Y1412D01*
X2897Y1412D02*
X2916Y1412D01*
X3145Y1412D02*
X3151Y1412D01*
X3197Y1412D02*
X3216Y1412D01*
X3998Y1412D02*
X3998Y1412D01*
X6Y1411D02*
X6Y1411D01*
X1041Y1411D02*
X1049Y1411D01*
X1099Y1411D02*
X1116Y1411D01*
X2840Y1411D02*
X2873Y1411D01*
X2898Y1411D02*
X2915Y1411D01*
X3146Y1411D02*
X3150Y1411D01*
X3198Y1411D02*
X3215Y1411D01*
X3998Y1411D02*
X3998Y1411D01*
X6Y1410D02*
X6Y1410D01*
X1042Y1410D02*
X1048Y1410D01*
X1101Y1410D02*
X1114Y1410D01*
X2841Y1410D02*
X2872Y1410D01*
X2900Y1410D02*
X2913Y1410D01*
X3146Y1410D02*
X3149Y1410D01*
X3200Y1410D02*
X3213Y1410D01*
X3998Y1410D02*
X3998Y1410D01*
X6Y1409D02*
X6Y1409D01*
X3998Y1409D02*
X3998Y1409D01*
X6Y1408D02*
X6Y1408D01*
X3998Y1408D02*
X3998Y1408D01*
X6Y1407D02*
X6Y1407D01*
X3998Y1407D02*
X3998Y1407D01*
X6Y1406D02*
X6Y1406D01*
X3998Y1406D02*
X3998Y1406D01*
X6Y1405D02*
X6Y1405D01*
X3998Y1405D02*
X3998Y1405D01*
X6Y1404D02*
X6Y1404D01*
X3998Y1404D02*
X3998Y1404D01*
X6Y1403D02*
X6Y1403D01*
X3998Y1403D02*
X3998Y1403D01*
X6Y1402D02*
X6Y1402D01*
X3998Y1402D02*
X3998Y1402D01*
X6Y1401D02*
X6Y1401D01*
X3998Y1401D02*
X3998Y1401D01*
X6Y1400D02*
X6Y1400D01*
X3998Y1400D02*
X3998Y1400D01*
X6Y1399D02*
X6Y1399D01*
X3998Y1399D02*
X3998Y1399D01*
X6Y1398D02*
X6Y1398D01*
X3998Y1398D02*
X3998Y1398D01*
X6Y1397D02*
X6Y1397D01*
X3998Y1397D02*
X3998Y1397D01*
X6Y1396D02*
X6Y1396D01*
X3998Y1396D02*
X3998Y1396D01*
X6Y1395D02*
X6Y1395D01*
X3998Y1395D02*
X3998Y1395D01*
X6Y1394D02*
X6Y1394D01*
X3998Y1394D02*
X3998Y1394D01*
X6Y1393D02*
X6Y1393D01*
X3998Y1393D02*
X3998Y1393D01*
X6Y1392D02*
X6Y1392D01*
X3998Y1392D02*
X3998Y1392D01*
X6Y1391D02*
X6Y1391D01*
X3998Y1391D02*
X3998Y1391D01*
X6Y1390D02*
X6Y1390D01*
X3998Y1390D02*
X3998Y1390D01*
X6Y1389D02*
X6Y1389D01*
X3998Y1389D02*
X3998Y1389D01*
X6Y1388D02*
X6Y1388D01*
X3998Y1388D02*
X3998Y1388D01*
X6Y1387D02*
X6Y1387D01*
X3998Y1387D02*
X3998Y1387D01*
X6Y1386D02*
X6Y1386D01*
X3998Y1386D02*
X3998Y1386D01*
X6Y1385D02*
X6Y1385D01*
X3998Y1385D02*
X3998Y1385D01*
X6Y1384D02*
X6Y1384D01*
X3998Y1384D02*
X3998Y1384D01*
X6Y1383D02*
X6Y1383D01*
X3998Y1383D02*
X3998Y1383D01*
X6Y1382D02*
X6Y1382D01*
X3998Y1382D02*
X3998Y1382D01*
X6Y1381D02*
X6Y1381D01*
X3998Y1381D02*
X3998Y1381D01*
X6Y1380D02*
X6Y1380D01*
X3998Y1380D02*
X3998Y1380D01*
X6Y1379D02*
X6Y1379D01*
X3998Y1379D02*
X3998Y1379D01*
X6Y1378D02*
X6Y1378D01*
X3998Y1378D02*
X3998Y1378D01*
X6Y1377D02*
X6Y1377D01*
X3998Y1377D02*
X3998Y1377D01*
X6Y1376D02*
X6Y1376D01*
X3998Y1376D02*
X3998Y1376D01*
X6Y1375D02*
X6Y1375D01*
X3998Y1375D02*
X3998Y1375D01*
X6Y1374D02*
X6Y1374D01*
X3998Y1374D02*
X3998Y1374D01*
X6Y1373D02*
X6Y1373D01*
X3998Y1373D02*
X3998Y1373D01*
X6Y1372D02*
X6Y1372D01*
X3998Y1372D02*
X3998Y1372D01*
X6Y1371D02*
X6Y1371D01*
X3998Y1371D02*
X3998Y1371D01*
X6Y1370D02*
X6Y1370D01*
X3998Y1370D02*
X3998Y1370D01*
X6Y1369D02*
X6Y1369D01*
X3998Y1369D02*
X3998Y1369D01*
X6Y1368D02*
X6Y1368D01*
X3998Y1368D02*
X3998Y1368D01*
X6Y1367D02*
X6Y1367D01*
X3998Y1367D02*
X3998Y1367D01*
X6Y1366D02*
X6Y1366D01*
X3998Y1366D02*
X3998Y1366D01*
X6Y1365D02*
X6Y1365D01*
X1219Y1365D02*
X1219Y1365D01*
X3019Y1365D02*
X3019Y1365D01*
X3998Y1365D02*
X3998Y1365D01*
X6Y1364D02*
X6Y1364D01*
X1218Y1364D02*
X1220Y1364D01*
X3018Y1364D02*
X3020Y1364D01*
X3318Y1364D02*
X3319Y1364D01*
X3998Y1364D02*
X3998Y1364D01*
X6Y1363D02*
X6Y1363D01*
X1217Y1363D02*
X1221Y1363D01*
X3017Y1363D02*
X3021Y1363D01*
X3317Y1363D02*
X3320Y1363D01*
X3998Y1363D02*
X3998Y1363D01*
X6Y1362D02*
X6Y1362D01*
X1216Y1362D02*
X1222Y1362D01*
X3016Y1362D02*
X3022Y1362D01*
X3316Y1362D02*
X3321Y1362D01*
X3998Y1362D02*
X3998Y1362D01*
X6Y1361D02*
X6Y1361D01*
X1217Y1361D02*
X1223Y1361D01*
X3016Y1361D02*
X3023Y1361D01*
X3316Y1361D02*
X3322Y1361D01*
X3998Y1361D02*
X3998Y1361D01*
X6Y1360D02*
X6Y1360D01*
X1218Y1360D02*
X1224Y1360D01*
X3017Y1360D02*
X3024Y1360D01*
X3317Y1360D02*
X3323Y1360D01*
X3998Y1360D02*
X3998Y1360D01*
X6Y1359D02*
X6Y1359D01*
X1219Y1359D02*
X1225Y1359D01*
X3018Y1359D02*
X3025Y1359D01*
X3318Y1359D02*
X3324Y1359D01*
X3998Y1359D02*
X3998Y1359D01*
X6Y1358D02*
X6Y1358D01*
X1220Y1358D02*
X1226Y1358D01*
X3019Y1358D02*
X3026Y1358D01*
X3319Y1358D02*
X3325Y1358D01*
X3998Y1358D02*
X3998Y1358D01*
X6Y1357D02*
X6Y1357D01*
X1221Y1357D02*
X1227Y1357D01*
X3020Y1357D02*
X3027Y1357D01*
X3320Y1357D02*
X3326Y1357D01*
X3998Y1357D02*
X3998Y1357D01*
X6Y1356D02*
X6Y1356D01*
X1222Y1356D02*
X1228Y1356D01*
X3021Y1356D02*
X3028Y1356D01*
X3321Y1356D02*
X3327Y1356D01*
X3998Y1356D02*
X3998Y1356D01*
X6Y1355D02*
X6Y1355D01*
X1223Y1355D02*
X1229Y1355D01*
X3022Y1355D02*
X3029Y1355D01*
X3322Y1355D02*
X3328Y1355D01*
X3998Y1355D02*
X3998Y1355D01*
X6Y1354D02*
X6Y1354D01*
X1224Y1354D02*
X1230Y1354D01*
X3023Y1354D02*
X3030Y1354D01*
X3323Y1354D02*
X3329Y1354D01*
X3998Y1354D02*
X3998Y1354D01*
X6Y1353D02*
X6Y1353D01*
X1225Y1353D02*
X1231Y1353D01*
X3024Y1353D02*
X3031Y1353D01*
X3324Y1353D02*
X3330Y1353D01*
X3998Y1353D02*
X3998Y1353D01*
X6Y1352D02*
X6Y1352D01*
X1226Y1352D02*
X1232Y1352D01*
X3025Y1352D02*
X3032Y1352D01*
X3325Y1352D02*
X3331Y1352D01*
X3998Y1352D02*
X3998Y1352D01*
X6Y1351D02*
X6Y1351D01*
X1227Y1351D02*
X1233Y1351D01*
X3026Y1351D02*
X3033Y1351D01*
X3326Y1351D02*
X3332Y1351D01*
X3998Y1351D02*
X3998Y1351D01*
X6Y1350D02*
X6Y1350D01*
X1228Y1350D02*
X1234Y1350D01*
X3027Y1350D02*
X3034Y1350D01*
X3327Y1350D02*
X3333Y1350D01*
X3998Y1350D02*
X3998Y1350D01*
X6Y1349D02*
X6Y1349D01*
X1229Y1349D02*
X1235Y1349D01*
X3028Y1349D02*
X3035Y1349D01*
X3328Y1349D02*
X3334Y1349D01*
X3998Y1349D02*
X3998Y1349D01*
X6Y1348D02*
X6Y1348D01*
X1230Y1348D02*
X1236Y1348D01*
X3030Y1348D02*
X3036Y1348D01*
X3330Y1348D02*
X3335Y1348D01*
X3998Y1348D02*
X3998Y1348D01*
X6Y1347D02*
X6Y1347D01*
X1231Y1347D02*
X1237Y1347D01*
X3031Y1347D02*
X3037Y1347D01*
X3331Y1347D02*
X3336Y1347D01*
X3998Y1347D02*
X3998Y1347D01*
X6Y1346D02*
X6Y1346D01*
X1232Y1346D02*
X1238Y1346D01*
X3032Y1346D02*
X3038Y1346D01*
X3332Y1346D02*
X3337Y1346D01*
X3998Y1346D02*
X3998Y1346D01*
X6Y1345D02*
X6Y1345D01*
X1234Y1345D02*
X1239Y1345D01*
X3033Y1345D02*
X3039Y1345D01*
X3333Y1345D02*
X3338Y1345D01*
X3998Y1345D02*
X3998Y1345D01*
X6Y1344D02*
X6Y1344D01*
X1235Y1344D02*
X1240Y1344D01*
X3034Y1344D02*
X3040Y1344D01*
X3334Y1344D02*
X3339Y1344D01*
X3998Y1344D02*
X3998Y1344D01*
X6Y1343D02*
X6Y1343D01*
X1235Y1343D02*
X1241Y1343D01*
X3035Y1343D02*
X3041Y1343D01*
X3335Y1343D02*
X3340Y1343D01*
X3998Y1343D02*
X3998Y1343D01*
X6Y1342D02*
X6Y1342D01*
X1236Y1342D02*
X1242Y1342D01*
X3036Y1342D02*
X3042Y1342D01*
X3336Y1342D02*
X3341Y1342D01*
X3998Y1342D02*
X3998Y1342D01*
X6Y1341D02*
X6Y1341D01*
X1237Y1341D02*
X1243Y1341D01*
X3037Y1341D02*
X3043Y1341D01*
X3337Y1341D02*
X3342Y1341D01*
X3998Y1341D02*
X3998Y1341D01*
X6Y1340D02*
X6Y1340D01*
X1238Y1340D02*
X1244Y1340D01*
X3037Y1340D02*
X3044Y1340D01*
X3337Y1340D02*
X3343Y1340D01*
X3998Y1340D02*
X3998Y1340D01*
X6Y1339D02*
X6Y1339D01*
X1239Y1339D02*
X1245Y1339D01*
X3038Y1339D02*
X3045Y1339D01*
X3338Y1339D02*
X3344Y1339D01*
X3998Y1339D02*
X3998Y1339D01*
X6Y1338D02*
X6Y1338D01*
X1240Y1338D02*
X1246Y1338D01*
X3039Y1338D02*
X3046Y1338D01*
X3339Y1338D02*
X3345Y1338D01*
X3998Y1338D02*
X3998Y1338D01*
X6Y1337D02*
X6Y1337D01*
X1241Y1337D02*
X1247Y1337D01*
X3040Y1337D02*
X3047Y1337D01*
X3340Y1337D02*
X3346Y1337D01*
X3998Y1337D02*
X3998Y1337D01*
X6Y1336D02*
X6Y1336D01*
X1242Y1336D02*
X1248Y1336D01*
X3041Y1336D02*
X3048Y1336D01*
X3341Y1336D02*
X3347Y1336D01*
X3998Y1336D02*
X3998Y1336D01*
X6Y1335D02*
X6Y1335D01*
X1243Y1335D02*
X1249Y1335D01*
X3042Y1335D02*
X3049Y1335D01*
X3342Y1335D02*
X3348Y1335D01*
X3998Y1335D02*
X3998Y1335D01*
X6Y1334D02*
X6Y1334D01*
X1244Y1334D02*
X1250Y1334D01*
X3043Y1334D02*
X3050Y1334D01*
X3343Y1334D02*
X3349Y1334D01*
X3998Y1334D02*
X3998Y1334D01*
X6Y1333D02*
X6Y1333D01*
X1245Y1333D02*
X1251Y1333D01*
X3044Y1333D02*
X3051Y1333D01*
X3344Y1333D02*
X3350Y1333D01*
X3998Y1333D02*
X3998Y1333D01*
X6Y1332D02*
X6Y1332D01*
X1246Y1332D02*
X1252Y1332D01*
X3045Y1332D02*
X3052Y1332D01*
X3345Y1332D02*
X3351Y1332D01*
X3998Y1332D02*
X3998Y1332D01*
X6Y1331D02*
X6Y1331D01*
X1247Y1331D02*
X1253Y1331D01*
X3046Y1331D02*
X3053Y1331D01*
X3346Y1331D02*
X3352Y1331D01*
X3998Y1331D02*
X3998Y1331D01*
X6Y1330D02*
X6Y1330D01*
X1248Y1330D02*
X1253Y1330D01*
X3047Y1330D02*
X3053Y1330D01*
X3347Y1330D02*
X3353Y1330D01*
X3998Y1330D02*
X3998Y1330D01*
X6Y1329D02*
X6Y1329D01*
X1249Y1329D02*
X1252Y1329D01*
X3048Y1329D02*
X3052Y1329D01*
X3348Y1329D02*
X3352Y1329D01*
X3998Y1329D02*
X3998Y1329D01*
X6Y1328D02*
X6Y1328D01*
X1250Y1328D02*
X1251Y1328D01*
X3049Y1328D02*
X3051Y1328D01*
X3349Y1328D02*
X3351Y1328D01*
X3998Y1328D02*
X3998Y1328D01*
X6Y1327D02*
X6Y1327D01*
X3998Y1327D02*
X3998Y1327D01*
X6Y1326D02*
X6Y1326D01*
X3998Y1326D02*
X3998Y1326D01*
X6Y1325D02*
X6Y1325D01*
X3998Y1325D02*
X3998Y1325D01*
X6Y1324D02*
X6Y1324D01*
X3998Y1324D02*
X3998Y1324D01*
X6Y1323D02*
X6Y1323D01*
X3998Y1323D02*
X3998Y1323D01*
X6Y1322D02*
X6Y1322D01*
X3998Y1322D02*
X3998Y1322D01*
X6Y1321D02*
X6Y1321D01*
X3998Y1321D02*
X3998Y1321D01*
X6Y1320D02*
X6Y1320D01*
X3998Y1320D02*
X3998Y1320D01*
X6Y1319D02*
X6Y1319D01*
X3998Y1319D02*
X3998Y1319D01*
X6Y1318D02*
X6Y1318D01*
X3998Y1318D02*
X3998Y1318D01*
X6Y1317D02*
X6Y1317D01*
X3998Y1317D02*
X3998Y1317D01*
X6Y1316D02*
X6Y1316D01*
X3998Y1316D02*
X3998Y1316D01*
X6Y1315D02*
X6Y1315D01*
X3998Y1315D02*
X3998Y1315D01*
X6Y1314D02*
X6Y1314D01*
X3998Y1314D02*
X3998Y1314D01*
X6Y1313D02*
X6Y1313D01*
X3998Y1313D02*
X3998Y1313D01*
X6Y1312D02*
X6Y1312D01*
X3998Y1312D02*
X3998Y1312D01*
X6Y1311D02*
X6Y1311D01*
X3998Y1311D02*
X3998Y1311D01*
X6Y1310D02*
X6Y1310D01*
X3998Y1310D02*
X3998Y1310D01*
X6Y1309D02*
X6Y1309D01*
X3998Y1309D02*
X3998Y1309D01*
X6Y1308D02*
X6Y1308D01*
X3998Y1308D02*
X3998Y1308D01*
X6Y1307D02*
X6Y1307D01*
X3998Y1307D02*
X3998Y1307D01*
X6Y1306D02*
X6Y1306D01*
X3998Y1306D02*
X3998Y1306D01*
X6Y1305D02*
X6Y1305D01*
X3998Y1305D02*
X3998Y1305D01*
X6Y1304D02*
X6Y1304D01*
X3998Y1304D02*
X3998Y1304D01*
X6Y1303D02*
X6Y1303D01*
X3998Y1303D02*
X3998Y1303D01*
X6Y1302D02*
X6Y1302D01*
X3998Y1302D02*
X3998Y1302D01*
X6Y1301D02*
X6Y1301D01*
X3998Y1301D02*
X3998Y1301D01*
X6Y1300D02*
X6Y1300D01*
X3998Y1300D02*
X3998Y1300D01*
X6Y1299D02*
X6Y1299D01*
X3998Y1299D02*
X3998Y1299D01*
X6Y1298D02*
X6Y1298D01*
X3998Y1298D02*
X3998Y1298D01*
X6Y1297D02*
X6Y1297D01*
X3998Y1297D02*
X3998Y1297D01*
X6Y1296D02*
X6Y1296D01*
X3998Y1296D02*
X3998Y1296D01*
X6Y1295D02*
X6Y1295D01*
X3998Y1295D02*
X3998Y1295D01*
X6Y1294D02*
X6Y1294D01*
X3998Y1294D02*
X3998Y1294D01*
X6Y1293D02*
X6Y1293D01*
X3998Y1293D02*
X3998Y1293D01*
X6Y1292D02*
X6Y1292D01*
X3998Y1292D02*
X3998Y1292D01*
X6Y1291D02*
X6Y1291D01*
X3998Y1291D02*
X3998Y1291D01*
X6Y1290D02*
X6Y1290D01*
X3998Y1290D02*
X3998Y1290D01*
X6Y1289D02*
X6Y1289D01*
X3998Y1289D02*
X3998Y1289D01*
X6Y1288D02*
X6Y1288D01*
X3998Y1288D02*
X3998Y1288D01*
X6Y1287D02*
X6Y1287D01*
X3998Y1287D02*
X3998Y1287D01*
X6Y1286D02*
X6Y1286D01*
X3998Y1286D02*
X3998Y1286D01*
X6Y1285D02*
X6Y1285D01*
X3998Y1285D02*
X3998Y1285D01*
X6Y1284D02*
X6Y1284D01*
X3998Y1284D02*
X3998Y1284D01*
X6Y1283D02*
X6Y1283D01*
X3998Y1283D02*
X3998Y1283D01*
X6Y1282D02*
X6Y1282D01*
X3998Y1282D02*
X3998Y1282D01*
X6Y1281D02*
X6Y1281D01*
X3998Y1281D02*
X3998Y1281D01*
X6Y1280D02*
X6Y1280D01*
X3998Y1280D02*
X3998Y1280D01*
X6Y1279D02*
X6Y1279D01*
X3998Y1279D02*
X3998Y1279D01*
X6Y1278D02*
X6Y1278D01*
X3998Y1278D02*
X3998Y1278D01*
X6Y1277D02*
X6Y1277D01*
X3998Y1277D02*
X3998Y1277D01*
X6Y1276D02*
X6Y1276D01*
X3998Y1276D02*
X3998Y1276D01*
X6Y1275D02*
X6Y1275D01*
X3998Y1275D02*
X3998Y1275D01*
X6Y1274D02*
X6Y1274D01*
X3998Y1274D02*
X3998Y1274D01*
X6Y1273D02*
X6Y1273D01*
X3998Y1273D02*
X3998Y1273D01*
X6Y1272D02*
X6Y1272D01*
X3998Y1272D02*
X3998Y1272D01*
X6Y1271D02*
X6Y1271D01*
X3998Y1271D02*
X3998Y1271D01*
X6Y1270D02*
X6Y1270D01*
X3998Y1270D02*
X3998Y1270D01*
X6Y1269D02*
X6Y1269D01*
X3998Y1269D02*
X3998Y1269D01*
X6Y1268D02*
X6Y1268D01*
X3998Y1268D02*
X3998Y1268D01*
X6Y1267D02*
X6Y1267D01*
X3998Y1267D02*
X3998Y1267D01*
X6Y1266D02*
X6Y1266D01*
X3998Y1266D02*
X3998Y1266D01*
X6Y1265D02*
X6Y1265D01*
X3998Y1265D02*
X3998Y1265D01*
X6Y1264D02*
X6Y1264D01*
X3998Y1264D02*
X3998Y1264D01*
X6Y1263D02*
X6Y1263D01*
X3998Y1263D02*
X3998Y1263D01*
X6Y1262D02*
X6Y1262D01*
X3998Y1262D02*
X3998Y1262D01*
X6Y1261D02*
X6Y1261D01*
X3998Y1261D02*
X3998Y1261D01*
X6Y1260D02*
X6Y1260D01*
X3998Y1260D02*
X3998Y1260D01*
X6Y1259D02*
X6Y1259D01*
X3998Y1259D02*
X3998Y1259D01*
X6Y1258D02*
X6Y1258D01*
X3998Y1258D02*
X3998Y1258D01*
X6Y1257D02*
X6Y1257D01*
X3998Y1257D02*
X3998Y1257D01*
X6Y1256D02*
X6Y1256D01*
X3998Y1256D02*
X3998Y1256D01*
X6Y1255D02*
X6Y1255D01*
X3998Y1255D02*
X3998Y1255D01*
X6Y1254D02*
X6Y1254D01*
X3998Y1254D02*
X3998Y1254D01*
X6Y1253D02*
X6Y1253D01*
X3998Y1253D02*
X3998Y1253D01*
X6Y1252D02*
X6Y1252D01*
X3998Y1252D02*
X3998Y1252D01*
X6Y1251D02*
X6Y1251D01*
X3998Y1251D02*
X3998Y1251D01*
X6Y1250D02*
X6Y1250D01*
X3998Y1250D02*
X3998Y1250D01*
X6Y1249D02*
X6Y1249D01*
X3998Y1249D02*
X3998Y1249D01*
X6Y1248D02*
X6Y1248D01*
X3998Y1248D02*
X3998Y1248D01*
X6Y1247D02*
X6Y1247D01*
X3998Y1247D02*
X3998Y1247D01*
X6Y1246D02*
X6Y1246D01*
X3998Y1246D02*
X3998Y1246D01*
X6Y1245D02*
X6Y1245D01*
X3998Y1245D02*
X3998Y1245D01*
X6Y1244D02*
X6Y1244D01*
X3998Y1244D02*
X3998Y1244D01*
X6Y1243D02*
X6Y1243D01*
X3998Y1243D02*
X3998Y1243D01*
X6Y1242D02*
X6Y1242D01*
X3998Y1242D02*
X3998Y1242D01*
X6Y1241D02*
X6Y1241D01*
X3998Y1241D02*
X3998Y1241D01*
X6Y1240D02*
X6Y1240D01*
X3998Y1240D02*
X3998Y1240D01*
X6Y1239D02*
X6Y1239D01*
X3998Y1239D02*
X3998Y1239D01*
X6Y1238D02*
X6Y1238D01*
X3998Y1238D02*
X3998Y1238D01*
X6Y1237D02*
X6Y1237D01*
X3998Y1237D02*
X3998Y1237D01*
X6Y1236D02*
X6Y1236D01*
X3998Y1236D02*
X3998Y1236D01*
X6Y1235D02*
X6Y1235D01*
X3998Y1235D02*
X3998Y1235D01*
X6Y1234D02*
X6Y1234D01*
X3998Y1234D02*
X3998Y1234D01*
X6Y1233D02*
X6Y1233D01*
X3998Y1233D02*
X3998Y1233D01*
X6Y1232D02*
X6Y1232D01*
X3998Y1232D02*
X3998Y1232D01*
X6Y1231D02*
X6Y1231D01*
X3998Y1231D02*
X3998Y1231D01*
X6Y1230D02*
X6Y1230D01*
X3998Y1230D02*
X3998Y1230D01*
X6Y1229D02*
X6Y1229D01*
X3998Y1229D02*
X3998Y1229D01*
X6Y1228D02*
X6Y1228D01*
X3998Y1228D02*
X3998Y1228D01*
X6Y1227D02*
X6Y1227D01*
X3998Y1227D02*
X3998Y1227D01*
X6Y1226D02*
X6Y1226D01*
X3998Y1226D02*
X3998Y1226D01*
X6Y1225D02*
X6Y1225D01*
X3998Y1225D02*
X3998Y1225D01*
X6Y1224D02*
X6Y1224D01*
X3998Y1224D02*
X3998Y1224D01*
X6Y1223D02*
X6Y1223D01*
X3998Y1223D02*
X3998Y1223D01*
X6Y1222D02*
X6Y1222D01*
X3998Y1222D02*
X3998Y1222D01*
X6Y1221D02*
X6Y1221D01*
X3998Y1221D02*
X3998Y1221D01*
X6Y1220D02*
X6Y1220D01*
X3998Y1220D02*
X3998Y1220D01*
X6Y1219D02*
X6Y1219D01*
X3998Y1219D02*
X3998Y1219D01*
X6Y1218D02*
X6Y1218D01*
X3998Y1218D02*
X3998Y1218D01*
X6Y1217D02*
X6Y1217D01*
X3998Y1217D02*
X3998Y1217D01*
X6Y1216D02*
X6Y1216D01*
X3998Y1216D02*
X3998Y1216D01*
X6Y1215D02*
X6Y1215D01*
X3998Y1215D02*
X3998Y1215D01*
X6Y1214D02*
X6Y1214D01*
X3998Y1214D02*
X3998Y1214D01*
X6Y1213D02*
X6Y1213D01*
X3998Y1213D02*
X3998Y1213D01*
X6Y1212D02*
X6Y1212D01*
X3998Y1212D02*
X3998Y1212D01*
X6Y1211D02*
X6Y1211D01*
X3998Y1211D02*
X3998Y1211D01*
X6Y1210D02*
X6Y1210D01*
X3998Y1210D02*
X3998Y1210D01*
X6Y1209D02*
X6Y1209D01*
X3998Y1209D02*
X3998Y1209D01*
X6Y1208D02*
X6Y1208D01*
X3998Y1208D02*
X3998Y1208D01*
X6Y1207D02*
X6Y1207D01*
X3998Y1207D02*
X3998Y1207D01*
X6Y1206D02*
X6Y1206D01*
X3998Y1206D02*
X3998Y1206D01*
X6Y1205D02*
X6Y1205D01*
X3998Y1205D02*
X3998Y1205D01*
X6Y1204D02*
X6Y1204D01*
X3998Y1204D02*
X3998Y1204D01*
X6Y1203D02*
X6Y1203D01*
X3998Y1203D02*
X3998Y1203D01*
X6Y1202D02*
X6Y1202D01*
X3998Y1202D02*
X3998Y1202D01*
X6Y1201D02*
X6Y1201D01*
X3998Y1201D02*
X3998Y1201D01*
X6Y1200D02*
X6Y1200D01*
X3998Y1200D02*
X3998Y1200D01*
X6Y1199D02*
X6Y1199D01*
X3998Y1199D02*
X3998Y1199D01*
X6Y1198D02*
X6Y1198D01*
X3998Y1198D02*
X3998Y1198D01*
X6Y1197D02*
X6Y1197D01*
X3998Y1197D02*
X3998Y1197D01*
X6Y1196D02*
X6Y1196D01*
X3998Y1196D02*
X3998Y1196D01*
X6Y1195D02*
X6Y1195D01*
X3998Y1195D02*
X3998Y1195D01*
X6Y1194D02*
X6Y1194D01*
X3998Y1194D02*
X3998Y1194D01*
X6Y1193D02*
X6Y1193D01*
X3998Y1193D02*
X3998Y1193D01*
X6Y1192D02*
X6Y1192D01*
X3998Y1192D02*
X3998Y1192D01*
X6Y1191D02*
X6Y1191D01*
X3998Y1191D02*
X3998Y1191D01*
X6Y1190D02*
X6Y1190D01*
X3998Y1190D02*
X3998Y1190D01*
X6Y1189D02*
X6Y1189D01*
X3998Y1189D02*
X3998Y1189D01*
X6Y1188D02*
X6Y1188D01*
X3998Y1188D02*
X3998Y1188D01*
X6Y1187D02*
X6Y1187D01*
X3998Y1187D02*
X3998Y1187D01*
X6Y1186D02*
X6Y1186D01*
X3998Y1186D02*
X3998Y1186D01*
X6Y1185D02*
X6Y1185D01*
X3998Y1185D02*
X3998Y1185D01*
X6Y1184D02*
X6Y1184D01*
X3998Y1184D02*
X3998Y1184D01*
X6Y1183D02*
X6Y1183D01*
X3998Y1183D02*
X3998Y1183D01*
X6Y1182D02*
X6Y1182D01*
X3998Y1182D02*
X3998Y1182D01*
X6Y1181D02*
X6Y1181D01*
X3998Y1181D02*
X3998Y1181D01*
X6Y1180D02*
X6Y1180D01*
X3998Y1180D02*
X3998Y1180D01*
X6Y1179D02*
X6Y1179D01*
X3998Y1179D02*
X3998Y1179D01*
X6Y1178D02*
X6Y1178D01*
X3998Y1178D02*
X3998Y1178D01*
X6Y1177D02*
X6Y1177D01*
X3998Y1177D02*
X3998Y1177D01*
X6Y1176D02*
X6Y1176D01*
X3998Y1176D02*
X3998Y1176D01*
X6Y1175D02*
X6Y1175D01*
X3998Y1175D02*
X3998Y1175D01*
X6Y1174D02*
X6Y1174D01*
X3998Y1174D02*
X3998Y1174D01*
X6Y1173D02*
X6Y1173D01*
X3998Y1173D02*
X3998Y1173D01*
X6Y1172D02*
X6Y1172D01*
X3998Y1172D02*
X3998Y1172D01*
X6Y1171D02*
X6Y1171D01*
X3998Y1171D02*
X3998Y1171D01*
X6Y1170D02*
X6Y1170D01*
X3998Y1170D02*
X3998Y1170D01*
X6Y1169D02*
X6Y1169D01*
X3998Y1169D02*
X3998Y1169D01*
X6Y1168D02*
X6Y1168D01*
X3998Y1168D02*
X3998Y1168D01*
X6Y1167D02*
X6Y1167D01*
X3998Y1167D02*
X3998Y1167D01*
X6Y1166D02*
X6Y1166D01*
X3998Y1166D02*
X3998Y1166D01*
X6Y1165D02*
X6Y1165D01*
X3998Y1165D02*
X3998Y1165D01*
X6Y1164D02*
X6Y1164D01*
X3998Y1164D02*
X3998Y1164D01*
X6Y1163D02*
X6Y1163D01*
X2844Y1163D02*
X2872Y1163D01*
X2895Y1163D02*
X2898Y1163D01*
X3141Y1163D02*
X3166Y1163D01*
X3195Y1163D02*
X3198Y1163D01*
X3998Y1163D02*
X3998Y1163D01*
X6Y1162D02*
X6Y1162D01*
X2843Y1162D02*
X2873Y1162D01*
X2894Y1162D02*
X2899Y1162D01*
X3140Y1162D02*
X3166Y1162D01*
X3194Y1162D02*
X3199Y1162D01*
X3998Y1162D02*
X3998Y1162D01*
X6Y1161D02*
X6Y1161D01*
X2841Y1161D02*
X2873Y1161D01*
X2894Y1161D02*
X2899Y1161D01*
X3140Y1161D02*
X3166Y1161D01*
X3194Y1161D02*
X3199Y1161D01*
X3998Y1161D02*
X3998Y1161D01*
X6Y1160D02*
X6Y1160D01*
X2841Y1160D02*
X2873Y1160D01*
X2893Y1160D02*
X2899Y1160D01*
X3140Y1160D02*
X3166Y1160D01*
X3193Y1160D02*
X3199Y1160D01*
X3998Y1160D02*
X3998Y1160D01*
X6Y1159D02*
X6Y1159D01*
X2840Y1159D02*
X2873Y1159D01*
X2893Y1159D02*
X2899Y1159D01*
X3140Y1159D02*
X3166Y1159D01*
X3193Y1159D02*
X3199Y1159D01*
X3998Y1159D02*
X3998Y1159D01*
X6Y1158D02*
X6Y1158D01*
X2840Y1158D02*
X2873Y1158D01*
X2893Y1158D02*
X2899Y1158D01*
X3140Y1158D02*
X3166Y1158D01*
X3193Y1158D02*
X3199Y1158D01*
X3998Y1158D02*
X3998Y1158D01*
X6Y1157D02*
X6Y1157D01*
X2840Y1157D02*
X2872Y1157D01*
X2893Y1157D02*
X2899Y1157D01*
X3142Y1157D02*
X3166Y1157D01*
X3193Y1157D02*
X3199Y1157D01*
X3998Y1157D02*
X3998Y1157D01*
X6Y1156D02*
X6Y1156D01*
X2840Y1156D02*
X2846Y1156D01*
X2893Y1156D02*
X2899Y1156D01*
X3160Y1156D02*
X3166Y1156D01*
X3193Y1156D02*
X3199Y1156D01*
X3998Y1156D02*
X3998Y1156D01*
X6Y1155D02*
X6Y1155D01*
X2840Y1155D02*
X2846Y1155D01*
X2893Y1155D02*
X2899Y1155D01*
X3160Y1155D02*
X3166Y1155D01*
X3193Y1155D02*
X3199Y1155D01*
X3998Y1155D02*
X3998Y1155D01*
X6Y1154D02*
X6Y1154D01*
X2840Y1154D02*
X2846Y1154D01*
X2893Y1154D02*
X2899Y1154D01*
X3160Y1154D02*
X3166Y1154D01*
X3193Y1154D02*
X3199Y1154D01*
X3998Y1154D02*
X3998Y1154D01*
X6Y1153D02*
X6Y1153D01*
X2840Y1153D02*
X2846Y1153D01*
X2893Y1153D02*
X2899Y1153D01*
X3160Y1153D02*
X3166Y1153D01*
X3193Y1153D02*
X3199Y1153D01*
X3998Y1153D02*
X3998Y1153D01*
X6Y1152D02*
X6Y1152D01*
X2840Y1152D02*
X2846Y1152D01*
X2893Y1152D02*
X2899Y1152D01*
X3160Y1152D02*
X3166Y1152D01*
X3193Y1152D02*
X3199Y1152D01*
X3998Y1152D02*
X3998Y1152D01*
X6Y1151D02*
X6Y1151D01*
X2840Y1151D02*
X2846Y1151D01*
X2893Y1151D02*
X2899Y1151D01*
X3160Y1151D02*
X3166Y1151D01*
X3193Y1151D02*
X3199Y1151D01*
X3998Y1151D02*
X3998Y1151D01*
X6Y1150D02*
X6Y1150D01*
X2840Y1150D02*
X2846Y1150D01*
X2893Y1150D02*
X2899Y1150D01*
X3160Y1150D02*
X3166Y1150D01*
X3193Y1150D02*
X3199Y1150D01*
X3998Y1150D02*
X3998Y1150D01*
X6Y1149D02*
X6Y1149D01*
X2840Y1149D02*
X2846Y1149D01*
X2893Y1149D02*
X2899Y1149D01*
X3160Y1149D02*
X3166Y1149D01*
X3193Y1149D02*
X3199Y1149D01*
X3998Y1149D02*
X3998Y1149D01*
X6Y1148D02*
X6Y1148D01*
X2840Y1148D02*
X2846Y1148D01*
X2893Y1148D02*
X2899Y1148D01*
X3160Y1148D02*
X3166Y1148D01*
X3193Y1148D02*
X3199Y1148D01*
X3998Y1148D02*
X3998Y1148D01*
X6Y1147D02*
X6Y1147D01*
X2840Y1147D02*
X2846Y1147D01*
X2893Y1147D02*
X2899Y1147D01*
X3160Y1147D02*
X3166Y1147D01*
X3193Y1147D02*
X3199Y1147D01*
X3998Y1147D02*
X3998Y1147D01*
X6Y1146D02*
X6Y1146D01*
X2840Y1146D02*
X2846Y1146D01*
X2893Y1146D02*
X2899Y1146D01*
X3160Y1146D02*
X3166Y1146D01*
X3193Y1146D02*
X3199Y1146D01*
X3998Y1146D02*
X3998Y1146D01*
X6Y1145D02*
X6Y1145D01*
X2840Y1145D02*
X2846Y1145D01*
X2893Y1145D02*
X2899Y1145D01*
X3160Y1145D02*
X3166Y1145D01*
X3193Y1145D02*
X3199Y1145D01*
X3998Y1145D02*
X3998Y1145D01*
X6Y1144D02*
X6Y1144D01*
X2840Y1144D02*
X2846Y1144D01*
X2893Y1144D02*
X2899Y1144D01*
X3160Y1144D02*
X3166Y1144D01*
X3193Y1144D02*
X3199Y1144D01*
X3998Y1144D02*
X3998Y1144D01*
X6Y1143D02*
X6Y1143D01*
X2840Y1143D02*
X2846Y1143D01*
X2893Y1143D02*
X2899Y1143D01*
X3160Y1143D02*
X3166Y1143D01*
X3193Y1143D02*
X3199Y1143D01*
X3998Y1143D02*
X3998Y1143D01*
X6Y1142D02*
X6Y1142D01*
X2840Y1142D02*
X2846Y1142D01*
X2893Y1142D02*
X2899Y1142D01*
X3160Y1142D02*
X3166Y1142D01*
X3193Y1142D02*
X3199Y1142D01*
X3998Y1142D02*
X3998Y1142D01*
X6Y1141D02*
X6Y1141D01*
X2840Y1141D02*
X2846Y1141D01*
X2893Y1141D02*
X2899Y1141D01*
X3160Y1141D02*
X3166Y1141D01*
X3193Y1141D02*
X3199Y1141D01*
X3998Y1141D02*
X3998Y1141D01*
X6Y1140D02*
X6Y1140D01*
X2840Y1140D02*
X2846Y1140D01*
X2893Y1140D02*
X2899Y1140D01*
X3160Y1140D02*
X3166Y1140D01*
X3193Y1140D02*
X3199Y1140D01*
X3998Y1140D02*
X3998Y1140D01*
X6Y1139D02*
X6Y1139D01*
X2840Y1139D02*
X2870Y1139D01*
X2893Y1139D02*
X2899Y1139D01*
X3143Y1139D02*
X3166Y1139D01*
X3193Y1139D02*
X3199Y1139D01*
X3998Y1139D02*
X3998Y1139D01*
X6Y1138D02*
X6Y1138D01*
X2840Y1138D02*
X2871Y1138D01*
X2893Y1138D02*
X2899Y1138D01*
X3142Y1138D02*
X3166Y1138D01*
X3193Y1138D02*
X3199Y1138D01*
X3998Y1138D02*
X3998Y1138D01*
X6Y1137D02*
X6Y1137D01*
X2840Y1137D02*
X2872Y1137D01*
X2893Y1137D02*
X2899Y1137D01*
X3141Y1137D02*
X3166Y1137D01*
X3193Y1137D02*
X3199Y1137D01*
X3998Y1137D02*
X3998Y1137D01*
X6Y1136D02*
X6Y1136D01*
X2841Y1136D02*
X2873Y1136D01*
X2893Y1136D02*
X2899Y1136D01*
X3140Y1136D02*
X3166Y1136D01*
X3193Y1136D02*
X3199Y1136D01*
X3998Y1136D02*
X3998Y1136D01*
X6Y1135D02*
X6Y1135D01*
X2842Y1135D02*
X2873Y1135D01*
X2893Y1135D02*
X2899Y1135D01*
X3140Y1135D02*
X3166Y1135D01*
X3193Y1135D02*
X3199Y1135D01*
X3998Y1135D02*
X3998Y1135D01*
X6Y1134D02*
X6Y1134D01*
X2843Y1134D02*
X2873Y1134D01*
X2893Y1134D02*
X2899Y1134D01*
X2917Y1134D02*
X2917Y1134D01*
X3140Y1134D02*
X3166Y1134D01*
X3193Y1134D02*
X3199Y1134D01*
X3217Y1134D02*
X3217Y1134D01*
X3998Y1134D02*
X3998Y1134D01*
X6Y1133D02*
X6Y1133D01*
X2846Y1133D02*
X2873Y1133D01*
X2893Y1133D02*
X2899Y1133D01*
X2915Y1133D02*
X2919Y1133D01*
X3140Y1133D02*
X3166Y1133D01*
X3193Y1133D02*
X3199Y1133D01*
X3215Y1133D02*
X3219Y1133D01*
X3998Y1133D02*
X3998Y1133D01*
X6Y1132D02*
X6Y1132D01*
X2867Y1132D02*
X2873Y1132D01*
X2893Y1132D02*
X2899Y1132D01*
X2914Y1132D02*
X2920Y1132D01*
X3140Y1132D02*
X3146Y1132D01*
X3193Y1132D02*
X3199Y1132D01*
X3214Y1132D02*
X3220Y1132D01*
X3998Y1132D02*
X3998Y1132D01*
X6Y1131D02*
X6Y1131D01*
X2867Y1131D02*
X2873Y1131D01*
X2893Y1131D02*
X2899Y1131D01*
X2914Y1131D02*
X2920Y1131D01*
X3140Y1131D02*
X3146Y1131D01*
X3193Y1131D02*
X3199Y1131D01*
X3214Y1131D02*
X3220Y1131D01*
X3998Y1131D02*
X3998Y1131D01*
X6Y1130D02*
X6Y1130D01*
X2867Y1130D02*
X2873Y1130D01*
X2893Y1130D02*
X2899Y1130D01*
X2914Y1130D02*
X2920Y1130D01*
X3140Y1130D02*
X3146Y1130D01*
X3193Y1130D02*
X3199Y1130D01*
X3214Y1130D02*
X3220Y1130D01*
X3998Y1130D02*
X3998Y1130D01*
X6Y1129D02*
X6Y1129D01*
X2867Y1129D02*
X2873Y1129D01*
X2893Y1129D02*
X2899Y1129D01*
X2914Y1129D02*
X2920Y1129D01*
X3140Y1129D02*
X3146Y1129D01*
X3193Y1129D02*
X3199Y1129D01*
X3214Y1129D02*
X3220Y1129D01*
X3998Y1129D02*
X3998Y1129D01*
X6Y1128D02*
X6Y1128D01*
X2867Y1128D02*
X2873Y1128D01*
X2893Y1128D02*
X2899Y1128D01*
X2914Y1128D02*
X2920Y1128D01*
X3140Y1128D02*
X3146Y1128D01*
X3193Y1128D02*
X3199Y1128D01*
X3214Y1128D02*
X3220Y1128D01*
X3998Y1128D02*
X3998Y1128D01*
X6Y1127D02*
X6Y1127D01*
X2867Y1127D02*
X2873Y1127D01*
X2893Y1127D02*
X2899Y1127D01*
X2914Y1127D02*
X2920Y1127D01*
X3140Y1127D02*
X3146Y1127D01*
X3193Y1127D02*
X3199Y1127D01*
X3214Y1127D02*
X3220Y1127D01*
X3998Y1127D02*
X3998Y1127D01*
X6Y1126D02*
X6Y1126D01*
X2867Y1126D02*
X2873Y1126D01*
X2893Y1126D02*
X2899Y1126D01*
X2914Y1126D02*
X2920Y1126D01*
X3140Y1126D02*
X3146Y1126D01*
X3193Y1126D02*
X3199Y1126D01*
X3214Y1126D02*
X3220Y1126D01*
X3998Y1126D02*
X3998Y1126D01*
X6Y1125D02*
X6Y1125D01*
X2867Y1125D02*
X2873Y1125D01*
X2893Y1125D02*
X2899Y1125D01*
X2914Y1125D02*
X2920Y1125D01*
X3140Y1125D02*
X3146Y1125D01*
X3193Y1125D02*
X3199Y1125D01*
X3214Y1125D02*
X3220Y1125D01*
X3998Y1125D02*
X3998Y1125D01*
X6Y1124D02*
X6Y1124D01*
X2867Y1124D02*
X2873Y1124D01*
X2893Y1124D02*
X2899Y1124D01*
X2914Y1124D02*
X2920Y1124D01*
X3140Y1124D02*
X3146Y1124D01*
X3193Y1124D02*
X3199Y1124D01*
X3214Y1124D02*
X3220Y1124D01*
X3998Y1124D02*
X3998Y1124D01*
X6Y1123D02*
X6Y1123D01*
X2867Y1123D02*
X2873Y1123D01*
X2893Y1123D02*
X2899Y1123D01*
X2914Y1123D02*
X2920Y1123D01*
X3140Y1123D02*
X3146Y1123D01*
X3193Y1123D02*
X3199Y1123D01*
X3214Y1123D02*
X3220Y1123D01*
X3998Y1123D02*
X3998Y1123D01*
X6Y1122D02*
X6Y1122D01*
X2867Y1122D02*
X2873Y1122D01*
X2893Y1122D02*
X2899Y1122D01*
X2914Y1122D02*
X2920Y1122D01*
X3140Y1122D02*
X3146Y1122D01*
X3193Y1122D02*
X3199Y1122D01*
X3214Y1122D02*
X3220Y1122D01*
X3998Y1122D02*
X3998Y1122D01*
X6Y1121D02*
X6Y1121D01*
X2867Y1121D02*
X2873Y1121D01*
X2893Y1121D02*
X2899Y1121D01*
X2914Y1121D02*
X2920Y1121D01*
X3140Y1121D02*
X3146Y1121D01*
X3193Y1121D02*
X3199Y1121D01*
X3214Y1121D02*
X3220Y1121D01*
X3998Y1121D02*
X3998Y1121D01*
X6Y1120D02*
X6Y1120D01*
X2867Y1120D02*
X2873Y1120D01*
X2893Y1120D02*
X2899Y1120D01*
X2914Y1120D02*
X2920Y1120D01*
X3140Y1120D02*
X3146Y1120D01*
X3193Y1120D02*
X3199Y1120D01*
X3214Y1120D02*
X3220Y1120D01*
X3998Y1120D02*
X3998Y1120D01*
X6Y1119D02*
X6Y1119D01*
X2867Y1119D02*
X2873Y1119D01*
X2893Y1119D02*
X2900Y1119D01*
X2914Y1119D02*
X2920Y1119D01*
X3140Y1119D02*
X3146Y1119D01*
X3169Y1119D02*
X3171Y1119D01*
X3193Y1119D02*
X3200Y1119D01*
X3214Y1119D02*
X3220Y1119D01*
X3998Y1119D02*
X3998Y1119D01*
X6Y1118D02*
X6Y1118D01*
X2867Y1118D02*
X2873Y1118D01*
X2894Y1118D02*
X2900Y1118D01*
X2913Y1118D02*
X2920Y1118D01*
X3140Y1118D02*
X3146Y1118D01*
X3167Y1118D02*
X3172Y1118D01*
X3194Y1118D02*
X3200Y1118D01*
X3213Y1118D02*
X3220Y1118D01*
X3998Y1118D02*
X3998Y1118D01*
X6Y1117D02*
X6Y1117D01*
X2867Y1117D02*
X2873Y1117D01*
X2894Y1117D02*
X2901Y1117D01*
X2912Y1117D02*
X2920Y1117D01*
X3140Y1117D02*
X3146Y1117D01*
X3165Y1117D02*
X3173Y1117D01*
X3194Y1117D02*
X3201Y1117D01*
X3212Y1117D02*
X3220Y1117D01*
X3998Y1117D02*
X3998Y1117D01*
X6Y1116D02*
X6Y1116D01*
X2842Y1116D02*
X2873Y1116D01*
X2894Y1116D02*
X2919Y1116D01*
X3140Y1116D02*
X3173Y1116D01*
X3194Y1116D02*
X3219Y1116D01*
X3998Y1116D02*
X3998Y1116D01*
X6Y1115D02*
X6Y1115D01*
X2841Y1115D02*
X2873Y1115D01*
X2895Y1115D02*
X2919Y1115D01*
X3140Y1115D02*
X3173Y1115D01*
X3195Y1115D02*
X3219Y1115D01*
X3998Y1115D02*
X3998Y1115D01*
X6Y1114D02*
X6Y1114D01*
X2840Y1114D02*
X2873Y1114D01*
X2895Y1114D02*
X2918Y1114D01*
X3140Y1114D02*
X3173Y1114D01*
X3195Y1114D02*
X3218Y1114D01*
X3998Y1114D02*
X3998Y1114D01*
X6Y1113D02*
X6Y1113D01*
X2840Y1113D02*
X2873Y1113D01*
X2896Y1113D02*
X2917Y1113D01*
X3141Y1113D02*
X3172Y1113D01*
X3196Y1113D02*
X3217Y1113D01*
X3998Y1113D02*
X3998Y1113D01*
X6Y1112D02*
X6Y1112D01*
X2840Y1112D02*
X2873Y1112D01*
X2897Y1112D02*
X2916Y1112D01*
X3141Y1112D02*
X3170Y1112D01*
X3197Y1112D02*
X3216Y1112D01*
X3998Y1112D02*
X3998Y1112D01*
X6Y1111D02*
X6Y1111D01*
X2840Y1111D02*
X2873Y1111D01*
X2898Y1111D02*
X2915Y1111D01*
X3142Y1111D02*
X3168Y1111D01*
X3198Y1111D02*
X3215Y1111D01*
X3998Y1111D02*
X3998Y1111D01*
X6Y1110D02*
X6Y1110D01*
X2841Y1110D02*
X2873Y1110D01*
X2900Y1110D02*
X2913Y1110D01*
X3144Y1110D02*
X3165Y1110D01*
X3200Y1110D02*
X3213Y1110D01*
X3998Y1110D02*
X3998Y1110D01*
X6Y1109D02*
X6Y1109D01*
X3998Y1109D02*
X3998Y1109D01*
X6Y1108D02*
X6Y1108D01*
X3998Y1108D02*
X3998Y1108D01*
X6Y1107D02*
X6Y1107D01*
X3998Y1107D02*
X3998Y1107D01*
X6Y1106D02*
X6Y1106D01*
X3998Y1106D02*
X3998Y1106D01*
X6Y1105D02*
X6Y1105D01*
X3998Y1105D02*
X3998Y1105D01*
X6Y1104D02*
X6Y1104D01*
X3998Y1104D02*
X3998Y1104D01*
X6Y1103D02*
X6Y1103D01*
X3998Y1103D02*
X3998Y1103D01*
X6Y1102D02*
X6Y1102D01*
X3998Y1102D02*
X3998Y1102D01*
X6Y1101D02*
X6Y1101D01*
X3998Y1101D02*
X3998Y1101D01*
X6Y1100D02*
X6Y1100D01*
X3998Y1100D02*
X3998Y1100D01*
X6Y1099D02*
X6Y1099D01*
X3998Y1099D02*
X3998Y1099D01*
X6Y1098D02*
X6Y1098D01*
X3998Y1098D02*
X3998Y1098D01*
X6Y1097D02*
X6Y1097D01*
X3998Y1097D02*
X3998Y1097D01*
X6Y1096D02*
X6Y1096D01*
X3998Y1096D02*
X3998Y1096D01*
X6Y1095D02*
X6Y1095D01*
X3998Y1095D02*
X3998Y1095D01*
X6Y1094D02*
X6Y1094D01*
X3998Y1094D02*
X3998Y1094D01*
X6Y1093D02*
X6Y1093D01*
X3998Y1093D02*
X3998Y1093D01*
X6Y1092D02*
X6Y1092D01*
X3998Y1092D02*
X3998Y1092D01*
X6Y1091D02*
X6Y1091D01*
X3998Y1091D02*
X3998Y1091D01*
X6Y1090D02*
X6Y1090D01*
X3998Y1090D02*
X3998Y1090D01*
X6Y1089D02*
X6Y1089D01*
X3998Y1089D02*
X3998Y1089D01*
X6Y1088D02*
X6Y1088D01*
X3998Y1088D02*
X3998Y1088D01*
X6Y1087D02*
X6Y1087D01*
X3998Y1087D02*
X3998Y1087D01*
X6Y1086D02*
X6Y1086D01*
X3998Y1086D02*
X3998Y1086D01*
X6Y1085D02*
X6Y1085D01*
X3998Y1085D02*
X3998Y1085D01*
X6Y1084D02*
X6Y1084D01*
X3998Y1084D02*
X3998Y1084D01*
X6Y1083D02*
X6Y1083D01*
X3998Y1083D02*
X3998Y1083D01*
X6Y1082D02*
X6Y1082D01*
X3998Y1082D02*
X3998Y1082D01*
X6Y1081D02*
X6Y1081D01*
X3998Y1081D02*
X3998Y1081D01*
X6Y1080D02*
X6Y1080D01*
X3998Y1080D02*
X3998Y1080D01*
X6Y1079D02*
X6Y1079D01*
X3998Y1079D02*
X3998Y1079D01*
X6Y1078D02*
X6Y1078D01*
X3998Y1078D02*
X3998Y1078D01*
X6Y1077D02*
X6Y1077D01*
X3998Y1077D02*
X3998Y1077D01*
X6Y1076D02*
X6Y1076D01*
X3998Y1076D02*
X3998Y1076D01*
X6Y1075D02*
X6Y1075D01*
X3998Y1075D02*
X3998Y1075D01*
X6Y1074D02*
X6Y1074D01*
X3998Y1074D02*
X3998Y1074D01*
X6Y1073D02*
X6Y1073D01*
X3998Y1073D02*
X3998Y1073D01*
X6Y1072D02*
X6Y1072D01*
X3998Y1072D02*
X3998Y1072D01*
X6Y1071D02*
X6Y1071D01*
X3998Y1071D02*
X3998Y1071D01*
X6Y1070D02*
X6Y1070D01*
X3998Y1070D02*
X3998Y1070D01*
X6Y1069D02*
X6Y1069D01*
X3998Y1069D02*
X3998Y1069D01*
X6Y1068D02*
X6Y1068D01*
X3998Y1068D02*
X3998Y1068D01*
X6Y1067D02*
X6Y1067D01*
X3998Y1067D02*
X3998Y1067D01*
X6Y1066D02*
X6Y1066D01*
X3998Y1066D02*
X3998Y1066D01*
X6Y1065D02*
X6Y1065D01*
X3019Y1065D02*
X3019Y1065D01*
X3998Y1065D02*
X3998Y1065D01*
X6Y1064D02*
X6Y1064D01*
X3018Y1064D02*
X3020Y1064D01*
X3318Y1064D02*
X3319Y1064D01*
X3998Y1064D02*
X3998Y1064D01*
X6Y1063D02*
X6Y1063D01*
X3017Y1063D02*
X3021Y1063D01*
X3317Y1063D02*
X3320Y1063D01*
X3998Y1063D02*
X3998Y1063D01*
X6Y1062D02*
X6Y1062D01*
X3016Y1062D02*
X3022Y1062D01*
X3316Y1062D02*
X3321Y1062D01*
X3998Y1062D02*
X3998Y1062D01*
X6Y1061D02*
X6Y1061D01*
X3016Y1061D02*
X3023Y1061D01*
X3316Y1061D02*
X3322Y1061D01*
X3998Y1061D02*
X3998Y1061D01*
X6Y1060D02*
X6Y1060D01*
X3017Y1060D02*
X3024Y1060D01*
X3317Y1060D02*
X3323Y1060D01*
X3998Y1060D02*
X3998Y1060D01*
X6Y1059D02*
X6Y1059D01*
X3018Y1059D02*
X3025Y1059D01*
X3318Y1059D02*
X3324Y1059D01*
X3998Y1059D02*
X3998Y1059D01*
X6Y1058D02*
X6Y1058D01*
X3019Y1058D02*
X3026Y1058D01*
X3319Y1058D02*
X3325Y1058D01*
X3998Y1058D02*
X3998Y1058D01*
X6Y1057D02*
X6Y1057D01*
X3020Y1057D02*
X3027Y1057D01*
X3320Y1057D02*
X3326Y1057D01*
X3998Y1057D02*
X3998Y1057D01*
X6Y1056D02*
X6Y1056D01*
X3021Y1056D02*
X3028Y1056D01*
X3321Y1056D02*
X3327Y1056D01*
X3998Y1056D02*
X3998Y1056D01*
X6Y1055D02*
X6Y1055D01*
X3022Y1055D02*
X3029Y1055D01*
X3322Y1055D02*
X3328Y1055D01*
X3998Y1055D02*
X3998Y1055D01*
X6Y1054D02*
X6Y1054D01*
X3023Y1054D02*
X3030Y1054D01*
X3323Y1054D02*
X3329Y1054D01*
X3998Y1054D02*
X3998Y1054D01*
X6Y1053D02*
X6Y1053D01*
X3024Y1053D02*
X3031Y1053D01*
X3324Y1053D02*
X3330Y1053D01*
X3998Y1053D02*
X3998Y1053D01*
X6Y1052D02*
X6Y1052D01*
X3025Y1052D02*
X3032Y1052D01*
X3325Y1052D02*
X3331Y1052D01*
X3998Y1052D02*
X3998Y1052D01*
X6Y1051D02*
X6Y1051D01*
X3026Y1051D02*
X3033Y1051D01*
X3326Y1051D02*
X3332Y1051D01*
X3998Y1051D02*
X3998Y1051D01*
X6Y1050D02*
X6Y1050D01*
X3027Y1050D02*
X3034Y1050D01*
X3327Y1050D02*
X3333Y1050D01*
X3998Y1050D02*
X3998Y1050D01*
X6Y1049D02*
X6Y1049D01*
X3028Y1049D02*
X3035Y1049D01*
X3328Y1049D02*
X3334Y1049D01*
X3998Y1049D02*
X3998Y1049D01*
X6Y1048D02*
X6Y1048D01*
X3030Y1048D02*
X3036Y1048D01*
X3330Y1048D02*
X3335Y1048D01*
X3998Y1048D02*
X3998Y1048D01*
X6Y1047D02*
X6Y1047D01*
X3031Y1047D02*
X3037Y1047D01*
X3331Y1047D02*
X3336Y1047D01*
X3998Y1047D02*
X3998Y1047D01*
X6Y1046D02*
X6Y1046D01*
X3032Y1046D02*
X3038Y1046D01*
X3332Y1046D02*
X3337Y1046D01*
X3998Y1046D02*
X3998Y1046D01*
X6Y1045D02*
X6Y1045D01*
X3033Y1045D02*
X3039Y1045D01*
X3333Y1045D02*
X3338Y1045D01*
X3998Y1045D02*
X3998Y1045D01*
X6Y1044D02*
X6Y1044D01*
X3034Y1044D02*
X3040Y1044D01*
X3334Y1044D02*
X3339Y1044D01*
X3998Y1044D02*
X3998Y1044D01*
X6Y1043D02*
X6Y1043D01*
X3035Y1043D02*
X3041Y1043D01*
X3335Y1043D02*
X3340Y1043D01*
X3998Y1043D02*
X3998Y1043D01*
X6Y1042D02*
X6Y1042D01*
X3036Y1042D02*
X3042Y1042D01*
X3336Y1042D02*
X3341Y1042D01*
X3998Y1042D02*
X3998Y1042D01*
X6Y1041D02*
X6Y1041D01*
X3037Y1041D02*
X3043Y1041D01*
X3337Y1041D02*
X3342Y1041D01*
X3998Y1041D02*
X3998Y1041D01*
X6Y1040D02*
X6Y1040D01*
X3037Y1040D02*
X3044Y1040D01*
X3337Y1040D02*
X3343Y1040D01*
X3998Y1040D02*
X3998Y1040D01*
X6Y1039D02*
X6Y1039D01*
X3038Y1039D02*
X3045Y1039D01*
X3338Y1039D02*
X3344Y1039D01*
X3998Y1039D02*
X3998Y1039D01*
X6Y1038D02*
X6Y1038D01*
X3039Y1038D02*
X3046Y1038D01*
X3339Y1038D02*
X3345Y1038D01*
X3998Y1038D02*
X3998Y1038D01*
X6Y1037D02*
X6Y1037D01*
X3040Y1037D02*
X3047Y1037D01*
X3340Y1037D02*
X3346Y1037D01*
X3998Y1037D02*
X3998Y1037D01*
X6Y1036D02*
X6Y1036D01*
X3041Y1036D02*
X3048Y1036D01*
X3341Y1036D02*
X3347Y1036D01*
X3998Y1036D02*
X3998Y1036D01*
X6Y1035D02*
X6Y1035D01*
X3042Y1035D02*
X3049Y1035D01*
X3342Y1035D02*
X3348Y1035D01*
X3998Y1035D02*
X3998Y1035D01*
X6Y1034D02*
X6Y1034D01*
X3043Y1034D02*
X3050Y1034D01*
X3343Y1034D02*
X3349Y1034D01*
X3998Y1034D02*
X3998Y1034D01*
X6Y1033D02*
X6Y1033D01*
X3044Y1033D02*
X3051Y1033D01*
X3344Y1033D02*
X3350Y1033D01*
X3998Y1033D02*
X3998Y1033D01*
X6Y1032D02*
X6Y1032D01*
X3045Y1032D02*
X3052Y1032D01*
X3345Y1032D02*
X3351Y1032D01*
X3998Y1032D02*
X3998Y1032D01*
X6Y1031D02*
X6Y1031D01*
X3046Y1031D02*
X3053Y1031D01*
X3346Y1031D02*
X3352Y1031D01*
X3998Y1031D02*
X3998Y1031D01*
X6Y1030D02*
X6Y1030D01*
X3047Y1030D02*
X3053Y1030D01*
X3347Y1030D02*
X3353Y1030D01*
X3998Y1030D02*
X3998Y1030D01*
X6Y1029D02*
X6Y1029D01*
X3048Y1029D02*
X3052Y1029D01*
X3348Y1029D02*
X3352Y1029D01*
X3998Y1029D02*
X3998Y1029D01*
X6Y1028D02*
X6Y1028D01*
X3049Y1028D02*
X3051Y1028D01*
X3349Y1028D02*
X3351Y1028D01*
X3998Y1028D02*
X3998Y1028D01*
X6Y1027D02*
X6Y1027D01*
X3998Y1027D02*
X3998Y1027D01*
X6Y1026D02*
X6Y1026D01*
X3998Y1026D02*
X3998Y1026D01*
X6Y1025D02*
X6Y1025D01*
X3998Y1025D02*
X3998Y1025D01*
X6Y1024D02*
X6Y1024D01*
X3998Y1024D02*
X3998Y1024D01*
X6Y1023D02*
X6Y1023D01*
X3998Y1023D02*
X3998Y1023D01*
X6Y1022D02*
X6Y1022D01*
X3998Y1022D02*
X3998Y1022D01*
X6Y1021D02*
X6Y1021D01*
X3998Y1021D02*
X3998Y1021D01*
X6Y1020D02*
X6Y1020D01*
X3998Y1020D02*
X3998Y1020D01*
X6Y1019D02*
X6Y1019D01*
X3998Y1019D02*
X3998Y1019D01*
X6Y1018D02*
X6Y1018D01*
X3998Y1018D02*
X3998Y1018D01*
X6Y1017D02*
X6Y1017D01*
X3998Y1017D02*
X3998Y1017D01*
X6Y1016D02*
X6Y1016D01*
X3998Y1016D02*
X3998Y1016D01*
X6Y1015D02*
X6Y1015D01*
X3998Y1015D02*
X3998Y1015D01*
X6Y1014D02*
X6Y1014D01*
X3998Y1014D02*
X3998Y1014D01*
X6Y1013D02*
X6Y1013D01*
X3998Y1013D02*
X3998Y1013D01*
X6Y1012D02*
X6Y1012D01*
X3998Y1012D02*
X3998Y1012D01*
X6Y1011D02*
X6Y1011D01*
X3998Y1011D02*
X3998Y1011D01*
X6Y1010D02*
X6Y1010D01*
X3998Y1010D02*
X3998Y1010D01*
X6Y1009D02*
X6Y1009D01*
X3998Y1009D02*
X3998Y1009D01*
X6Y1008D02*
X6Y1008D01*
X3998Y1008D02*
X3998Y1008D01*
X6Y1007D02*
X6Y1007D01*
X3998Y1007D02*
X3998Y1007D01*
X6Y1006D02*
X6Y1006D01*
X3998Y1006D02*
X3998Y1006D01*
X6Y1005D02*
X6Y1005D01*
X3998Y1005D02*
X3998Y1005D01*
X6Y1004D02*
X6Y1004D01*
X3998Y1004D02*
X3998Y1004D01*
X6Y1003D02*
X6Y1003D01*
X3998Y1003D02*
X3998Y1003D01*
X6Y1002D02*
X6Y1002D01*
X3998Y1002D02*
X3998Y1002D01*
X6Y1001D02*
X6Y1001D01*
X3998Y1001D02*
X3998Y1001D01*
X6Y1000D02*
X6Y1000D01*
X3998Y1000D02*
X3998Y1000D01*
X6Y999D02*
X6Y999D01*
X3998Y999D02*
X3998Y999D01*
X6Y998D02*
X6Y998D01*
X3998Y998D02*
X3998Y998D01*
X6Y997D02*
X6Y997D01*
X3998Y997D02*
X3998Y997D01*
X6Y996D02*
X6Y996D01*
X3998Y996D02*
X3998Y996D01*
X6Y995D02*
X6Y995D01*
X3998Y995D02*
X3998Y995D01*
X6Y994D02*
X6Y994D01*
X3998Y994D02*
X3998Y994D01*
X6Y993D02*
X6Y993D01*
X3998Y993D02*
X3998Y993D01*
X6Y992D02*
X6Y992D01*
X3998Y992D02*
X3998Y992D01*
X6Y991D02*
X6Y991D01*
X3998Y991D02*
X3998Y991D01*
X6Y990D02*
X6Y990D01*
X3998Y990D02*
X3998Y990D01*
X6Y989D02*
X6Y989D01*
X3998Y989D02*
X3998Y989D01*
X6Y988D02*
X6Y988D01*
X3998Y988D02*
X3998Y988D01*
X6Y987D02*
X6Y987D01*
X3998Y987D02*
X3998Y987D01*
X6Y986D02*
X6Y986D01*
X3998Y986D02*
X3998Y986D01*
X6Y985D02*
X6Y985D01*
X3998Y985D02*
X3998Y985D01*
X6Y984D02*
X6Y984D01*
X3998Y984D02*
X3998Y984D01*
X6Y983D02*
X6Y983D01*
X3998Y983D02*
X3998Y983D01*
X6Y982D02*
X6Y982D01*
X3998Y982D02*
X3998Y982D01*
X6Y981D02*
X6Y981D01*
X3998Y981D02*
X3998Y981D01*
X6Y980D02*
X6Y980D01*
X3998Y980D02*
X3998Y980D01*
X6Y979D02*
X6Y979D01*
X3998Y979D02*
X3998Y979D01*
X6Y978D02*
X6Y978D01*
X3998Y978D02*
X3998Y978D01*
X6Y977D02*
X6Y977D01*
X3998Y977D02*
X3998Y977D01*
X6Y976D02*
X6Y976D01*
X3998Y976D02*
X3998Y976D01*
X6Y975D02*
X6Y975D01*
X3998Y975D02*
X3998Y975D01*
X6Y974D02*
X6Y974D01*
X3998Y974D02*
X3998Y974D01*
X6Y973D02*
X6Y973D01*
X3998Y973D02*
X3998Y973D01*
X6Y972D02*
X6Y972D01*
X3998Y972D02*
X3998Y972D01*
X6Y971D02*
X6Y971D01*
X3998Y971D02*
X3998Y971D01*
X6Y970D02*
X6Y970D01*
X3998Y970D02*
X3998Y970D01*
X6Y969D02*
X6Y969D01*
X3998Y969D02*
X3998Y969D01*
X6Y968D02*
X6Y968D01*
X3998Y968D02*
X3998Y968D01*
X6Y967D02*
X6Y967D01*
X3998Y967D02*
X3998Y967D01*
X6Y966D02*
X6Y966D01*
X3998Y966D02*
X3998Y966D01*
X6Y965D02*
X6Y965D01*
X3998Y965D02*
X3998Y965D01*
X6Y964D02*
X6Y964D01*
X3998Y964D02*
X3998Y964D01*
X6Y963D02*
X6Y963D01*
X3998Y963D02*
X3998Y963D01*
X6Y962D02*
X6Y962D01*
X3998Y962D02*
X3998Y962D01*
X6Y961D02*
X6Y961D01*
X3998Y961D02*
X3998Y961D01*
X6Y960D02*
X6Y960D01*
X3998Y960D02*
X3998Y960D01*
X6Y959D02*
X6Y959D01*
X3998Y959D02*
X3998Y959D01*
X6Y958D02*
X6Y958D01*
X3998Y958D02*
X3998Y958D01*
X6Y957D02*
X6Y957D01*
X3998Y957D02*
X3998Y957D01*
X6Y956D02*
X6Y956D01*
X3998Y956D02*
X3998Y956D01*
X6Y955D02*
X6Y955D01*
X3998Y955D02*
X3998Y955D01*
X6Y954D02*
X6Y954D01*
X3998Y954D02*
X3998Y954D01*
X6Y953D02*
X6Y953D01*
X3998Y953D02*
X3998Y953D01*
X6Y952D02*
X6Y952D01*
X3998Y952D02*
X3998Y952D01*
X6Y951D02*
X6Y951D01*
X3998Y951D02*
X3998Y951D01*
X6Y950D02*
X6Y950D01*
X3998Y950D02*
X3998Y950D01*
X6Y949D02*
X6Y949D01*
X3998Y949D02*
X3998Y949D01*
X6Y948D02*
X6Y948D01*
X3998Y948D02*
X3998Y948D01*
X6Y947D02*
X6Y947D01*
X3998Y947D02*
X3998Y947D01*
X6Y946D02*
X6Y946D01*
X3998Y946D02*
X3998Y946D01*
X6Y945D02*
X6Y945D01*
X3998Y945D02*
X3998Y945D01*
X6Y944D02*
X6Y944D01*
X3998Y944D02*
X3998Y944D01*
X6Y943D02*
X6Y943D01*
X3998Y943D02*
X3998Y943D01*
X6Y942D02*
X6Y942D01*
X3998Y942D02*
X3998Y942D01*
X6Y941D02*
X6Y941D01*
X3998Y941D02*
X3998Y941D01*
X6Y940D02*
X6Y940D01*
X3998Y940D02*
X3998Y940D01*
X6Y939D02*
X6Y939D01*
X3998Y939D02*
X3998Y939D01*
X6Y938D02*
X6Y938D01*
X3998Y938D02*
X3998Y938D01*
X6Y937D02*
X6Y937D01*
X3998Y937D02*
X3998Y937D01*
X6Y936D02*
X6Y936D01*
X3998Y936D02*
X3998Y936D01*
X6Y935D02*
X6Y935D01*
X3998Y935D02*
X3998Y935D01*
X6Y934D02*
X6Y934D01*
X3998Y934D02*
X3998Y934D01*
X6Y933D02*
X6Y933D01*
X3998Y933D02*
X3998Y933D01*
X6Y932D02*
X6Y932D01*
X3998Y932D02*
X3998Y932D01*
X6Y931D02*
X6Y931D01*
X3998Y931D02*
X3998Y931D01*
X6Y930D02*
X6Y930D01*
X3998Y930D02*
X3998Y930D01*
X6Y929D02*
X6Y929D01*
X3998Y929D02*
X3998Y929D01*
X6Y928D02*
X6Y928D01*
X3998Y928D02*
X3998Y928D01*
X6Y927D02*
X6Y927D01*
X3998Y927D02*
X3998Y927D01*
X6Y926D02*
X6Y926D01*
X3998Y926D02*
X3998Y926D01*
X6Y925D02*
X6Y925D01*
X3998Y925D02*
X3998Y925D01*
X6Y924D02*
X6Y924D01*
X3998Y924D02*
X3998Y924D01*
X6Y923D02*
X6Y923D01*
X3998Y923D02*
X3998Y923D01*
X6Y922D02*
X6Y922D01*
X3998Y922D02*
X3998Y922D01*
X6Y921D02*
X6Y921D01*
X3998Y921D02*
X3998Y921D01*
X6Y920D02*
X6Y920D01*
X3998Y920D02*
X3998Y920D01*
X6Y919D02*
X6Y919D01*
X3998Y919D02*
X3998Y919D01*
X6Y918D02*
X6Y918D01*
X3998Y918D02*
X3998Y918D01*
X6Y917D02*
X6Y917D01*
X3998Y917D02*
X3998Y917D01*
X6Y916D02*
X6Y916D01*
X3998Y916D02*
X3998Y916D01*
X6Y915D02*
X6Y915D01*
X3998Y915D02*
X3998Y915D01*
X6Y914D02*
X6Y914D01*
X3998Y914D02*
X3998Y914D01*
X6Y913D02*
X6Y913D01*
X3998Y913D02*
X3998Y913D01*
X6Y912D02*
X6Y912D01*
X3998Y912D02*
X3998Y912D01*
X6Y911D02*
X6Y911D01*
X3998Y911D02*
X3998Y911D01*
X6Y910D02*
X6Y910D01*
X3998Y910D02*
X3998Y910D01*
X6Y909D02*
X6Y909D01*
X3998Y909D02*
X3998Y909D01*
X6Y908D02*
X6Y908D01*
X3998Y908D02*
X3998Y908D01*
X6Y907D02*
X6Y907D01*
X3998Y907D02*
X3998Y907D01*
X6Y906D02*
X6Y906D01*
X3998Y906D02*
X3998Y906D01*
X6Y905D02*
X6Y905D01*
X3998Y905D02*
X3998Y905D01*
X6Y904D02*
X6Y904D01*
X3998Y904D02*
X3998Y904D01*
X6Y903D02*
X6Y903D01*
X3998Y903D02*
X3998Y903D01*
X6Y902D02*
X6Y902D01*
X3998Y902D02*
X3998Y902D01*
X6Y901D02*
X6Y901D01*
X3998Y901D02*
X3998Y901D01*
X6Y900D02*
X6Y900D01*
X3998Y900D02*
X3998Y900D01*
X6Y899D02*
X6Y899D01*
X3998Y899D02*
X3998Y899D01*
X6Y898D02*
X6Y898D01*
X3998Y898D02*
X3998Y898D01*
X6Y897D02*
X6Y897D01*
X3998Y897D02*
X3998Y897D01*
X6Y896D02*
X6Y896D01*
X3998Y896D02*
X3998Y896D01*
X6Y895D02*
X6Y895D01*
X3998Y895D02*
X3998Y895D01*
X6Y894D02*
X6Y894D01*
X3998Y894D02*
X3998Y894D01*
X6Y893D02*
X6Y893D01*
X3998Y893D02*
X3998Y893D01*
X6Y892D02*
X6Y892D01*
X3998Y892D02*
X3998Y892D01*
X6Y891D02*
X6Y891D01*
X3998Y891D02*
X3998Y891D01*
X6Y890D02*
X6Y890D01*
X3998Y890D02*
X3998Y890D01*
X6Y889D02*
X6Y889D01*
X3998Y889D02*
X3998Y889D01*
X6Y888D02*
X6Y888D01*
X3998Y888D02*
X3998Y888D01*
X6Y887D02*
X6Y887D01*
X3998Y887D02*
X3998Y887D01*
X6Y886D02*
X6Y886D01*
X3998Y886D02*
X3998Y886D01*
X6Y885D02*
X6Y885D01*
X3998Y885D02*
X3998Y885D01*
X6Y884D02*
X6Y884D01*
X3998Y884D02*
X3998Y884D01*
X6Y883D02*
X6Y883D01*
X3998Y883D02*
X3998Y883D01*
X6Y882D02*
X6Y882D01*
X3998Y882D02*
X3998Y882D01*
X6Y881D02*
X6Y881D01*
X3998Y881D02*
X3998Y881D01*
X6Y880D02*
X6Y880D01*
X3998Y880D02*
X3998Y880D01*
X6Y879D02*
X6Y879D01*
X3998Y879D02*
X3998Y879D01*
X6Y878D02*
X6Y878D01*
X3998Y878D02*
X3998Y878D01*
X6Y877D02*
X6Y877D01*
X3998Y877D02*
X3998Y877D01*
X6Y876D02*
X6Y876D01*
X3998Y876D02*
X3998Y876D01*
X6Y875D02*
X6Y875D01*
X3998Y875D02*
X3998Y875D01*
X6Y874D02*
X6Y874D01*
X3998Y874D02*
X3998Y874D01*
X6Y873D02*
X6Y873D01*
X3998Y873D02*
X3998Y873D01*
X6Y872D02*
X6Y872D01*
X3998Y872D02*
X3998Y872D01*
X6Y871D02*
X6Y871D01*
X3998Y871D02*
X3998Y871D01*
X6Y870D02*
X6Y870D01*
X3998Y870D02*
X3998Y870D01*
X6Y869D02*
X6Y869D01*
X3998Y869D02*
X3998Y869D01*
X6Y868D02*
X6Y868D01*
X3998Y868D02*
X3998Y868D01*
X6Y867D02*
X6Y867D01*
X3998Y867D02*
X3998Y867D01*
X6Y866D02*
X6Y866D01*
X3998Y866D02*
X3998Y866D01*
X6Y865D02*
X6Y865D01*
X3998Y865D02*
X3998Y865D01*
X6Y864D02*
X6Y864D01*
X3998Y864D02*
X3998Y864D01*
X6Y863D02*
X6Y863D01*
X2844Y863D02*
X2872Y863D01*
X2895Y863D02*
X2898Y863D01*
X3166Y863D02*
X3171Y863D01*
X3195Y863D02*
X3198Y863D01*
X3998Y863D02*
X3998Y863D01*
X6Y862D02*
X6Y862D01*
X2843Y862D02*
X2873Y862D01*
X2894Y862D02*
X2899Y862D01*
X3165Y862D02*
X3173Y862D01*
X3194Y862D02*
X3199Y862D01*
X3998Y862D02*
X3998Y862D01*
X6Y861D02*
X6Y861D01*
X2841Y861D02*
X2873Y861D01*
X2894Y861D02*
X2899Y861D01*
X3164Y861D02*
X3173Y861D01*
X3194Y861D02*
X3199Y861D01*
X3998Y861D02*
X3998Y861D01*
X6Y860D02*
X6Y860D01*
X2841Y860D02*
X2873Y860D01*
X2893Y860D02*
X2899Y860D01*
X3164Y860D02*
X3173Y860D01*
X3193Y860D02*
X3199Y860D01*
X3998Y860D02*
X3998Y860D01*
X6Y859D02*
X6Y859D01*
X2840Y859D02*
X2873Y859D01*
X2893Y859D02*
X2899Y859D01*
X3164Y859D02*
X3173Y859D01*
X3193Y859D02*
X3199Y859D01*
X3998Y859D02*
X3998Y859D01*
X6Y858D02*
X6Y858D01*
X2840Y858D02*
X2873Y858D01*
X2893Y858D02*
X2899Y858D01*
X3165Y858D02*
X3173Y858D01*
X3193Y858D02*
X3199Y858D01*
X3998Y858D02*
X3998Y858D01*
X6Y857D02*
X6Y857D01*
X2840Y857D02*
X2872Y857D01*
X2893Y857D02*
X2899Y857D01*
X3166Y857D02*
X3173Y857D01*
X3193Y857D02*
X3199Y857D01*
X3998Y857D02*
X3998Y857D01*
X6Y856D02*
X6Y856D01*
X2840Y856D02*
X2846Y856D01*
X2893Y856D02*
X2899Y856D01*
X3167Y856D02*
X3173Y856D01*
X3193Y856D02*
X3199Y856D01*
X3998Y856D02*
X3998Y856D01*
X6Y855D02*
X6Y855D01*
X2840Y855D02*
X2846Y855D01*
X2893Y855D02*
X2899Y855D01*
X3167Y855D02*
X3173Y855D01*
X3193Y855D02*
X3199Y855D01*
X3998Y855D02*
X3998Y855D01*
X6Y854D02*
X6Y854D01*
X2840Y854D02*
X2846Y854D01*
X2893Y854D02*
X2899Y854D01*
X3167Y854D02*
X3173Y854D01*
X3193Y854D02*
X3199Y854D01*
X3998Y854D02*
X3998Y854D01*
X6Y853D02*
X6Y853D01*
X2840Y853D02*
X2846Y853D01*
X2893Y853D02*
X2899Y853D01*
X3167Y853D02*
X3173Y853D01*
X3193Y853D02*
X3199Y853D01*
X3998Y853D02*
X3998Y853D01*
X6Y852D02*
X6Y852D01*
X2840Y852D02*
X2846Y852D01*
X2893Y852D02*
X2899Y852D01*
X3167Y852D02*
X3173Y852D01*
X3193Y852D02*
X3199Y852D01*
X3998Y852D02*
X3998Y852D01*
X6Y851D02*
X6Y851D01*
X2840Y851D02*
X2846Y851D01*
X2893Y851D02*
X2899Y851D01*
X3167Y851D02*
X3173Y851D01*
X3193Y851D02*
X3199Y851D01*
X3998Y851D02*
X3998Y851D01*
X6Y850D02*
X6Y850D01*
X2840Y850D02*
X2846Y850D01*
X2893Y850D02*
X2899Y850D01*
X3167Y850D02*
X3173Y850D01*
X3193Y850D02*
X3199Y850D01*
X3998Y850D02*
X3998Y850D01*
X6Y849D02*
X6Y849D01*
X2840Y849D02*
X2846Y849D01*
X2893Y849D02*
X2899Y849D01*
X3167Y849D02*
X3173Y849D01*
X3193Y849D02*
X3199Y849D01*
X3998Y849D02*
X3998Y849D01*
X6Y848D02*
X6Y848D01*
X2840Y848D02*
X2846Y848D01*
X2893Y848D02*
X2899Y848D01*
X3167Y848D02*
X3173Y848D01*
X3193Y848D02*
X3199Y848D01*
X3998Y848D02*
X3998Y848D01*
X6Y847D02*
X6Y847D01*
X2840Y847D02*
X2846Y847D01*
X2893Y847D02*
X2899Y847D01*
X3167Y847D02*
X3173Y847D01*
X3193Y847D02*
X3199Y847D01*
X3998Y847D02*
X3998Y847D01*
X6Y846D02*
X6Y846D01*
X2840Y846D02*
X2846Y846D01*
X2893Y846D02*
X2899Y846D01*
X3167Y846D02*
X3173Y846D01*
X3193Y846D02*
X3199Y846D01*
X3998Y846D02*
X3998Y846D01*
X6Y845D02*
X6Y845D01*
X2840Y845D02*
X2846Y845D01*
X2893Y845D02*
X2899Y845D01*
X3167Y845D02*
X3173Y845D01*
X3193Y845D02*
X3199Y845D01*
X3998Y845D02*
X3998Y845D01*
X6Y844D02*
X6Y844D01*
X2840Y844D02*
X2846Y844D01*
X2893Y844D02*
X2899Y844D01*
X3167Y844D02*
X3173Y844D01*
X3193Y844D02*
X3199Y844D01*
X3998Y844D02*
X3998Y844D01*
X6Y843D02*
X6Y843D01*
X2840Y843D02*
X2846Y843D01*
X2893Y843D02*
X2899Y843D01*
X3167Y843D02*
X3173Y843D01*
X3193Y843D02*
X3199Y843D01*
X3998Y843D02*
X3998Y843D01*
X6Y842D02*
X6Y842D01*
X2840Y842D02*
X2846Y842D01*
X2893Y842D02*
X2899Y842D01*
X3167Y842D02*
X3173Y842D01*
X3193Y842D02*
X3199Y842D01*
X3998Y842D02*
X3998Y842D01*
X6Y841D02*
X6Y841D01*
X2840Y841D02*
X2847Y841D01*
X2893Y841D02*
X2899Y841D01*
X3167Y841D02*
X3173Y841D01*
X3193Y841D02*
X3199Y841D01*
X3998Y841D02*
X3998Y841D01*
X6Y840D02*
X6Y840D01*
X2840Y840D02*
X2849Y840D01*
X2893Y840D02*
X2899Y840D01*
X3167Y840D02*
X3173Y840D01*
X3193Y840D02*
X3199Y840D01*
X3998Y840D02*
X3998Y840D01*
X6Y839D02*
X6Y839D01*
X2841Y839D02*
X2865Y839D01*
X2893Y839D02*
X2899Y839D01*
X3167Y839D02*
X3173Y839D01*
X3193Y839D02*
X3199Y839D01*
X3998Y839D02*
X3998Y839D01*
X6Y838D02*
X6Y838D01*
X2841Y838D02*
X2866Y838D01*
X2893Y838D02*
X2899Y838D01*
X3167Y838D02*
X3173Y838D01*
X3193Y838D02*
X3199Y838D01*
X3998Y838D02*
X3998Y838D01*
X6Y837D02*
X6Y837D01*
X2842Y837D02*
X2866Y837D01*
X2893Y837D02*
X2899Y837D01*
X3167Y837D02*
X3173Y837D01*
X3193Y837D02*
X3199Y837D01*
X3998Y837D02*
X3998Y837D01*
X6Y836D02*
X6Y836D01*
X2842Y836D02*
X2866Y836D01*
X2893Y836D02*
X2899Y836D01*
X3167Y836D02*
X3173Y836D01*
X3193Y836D02*
X3199Y836D01*
X3998Y836D02*
X3998Y836D01*
X6Y835D02*
X6Y835D01*
X2841Y835D02*
X2866Y835D01*
X2893Y835D02*
X2899Y835D01*
X3167Y835D02*
X3173Y835D01*
X3193Y835D02*
X3199Y835D01*
X3998Y835D02*
X3998Y835D01*
X6Y834D02*
X6Y834D01*
X2841Y834D02*
X2865Y834D01*
X2893Y834D02*
X2899Y834D01*
X2917Y834D02*
X2917Y834D01*
X3143Y834D02*
X3173Y834D01*
X3193Y834D02*
X3199Y834D01*
X3217Y834D02*
X3217Y834D01*
X3998Y834D02*
X3998Y834D01*
X6Y833D02*
X6Y833D01*
X2840Y833D02*
X2863Y833D01*
X2893Y833D02*
X2899Y833D01*
X2915Y833D02*
X2919Y833D01*
X3141Y833D02*
X3173Y833D01*
X3193Y833D02*
X3199Y833D01*
X3215Y833D02*
X3219Y833D01*
X3998Y833D02*
X3998Y833D01*
X6Y832D02*
X6Y832D01*
X2840Y832D02*
X2847Y832D01*
X2893Y832D02*
X2899Y832D01*
X2914Y832D02*
X2920Y832D01*
X3140Y832D02*
X3173Y832D01*
X3193Y832D02*
X3199Y832D01*
X3214Y832D02*
X3220Y832D01*
X3998Y832D02*
X3998Y832D01*
X6Y831D02*
X6Y831D01*
X2840Y831D02*
X2846Y831D01*
X2893Y831D02*
X2899Y831D01*
X2914Y831D02*
X2920Y831D01*
X3140Y831D02*
X3173Y831D01*
X3193Y831D02*
X3199Y831D01*
X3214Y831D02*
X3220Y831D01*
X3998Y831D02*
X3998Y831D01*
X6Y830D02*
X6Y830D01*
X2840Y830D02*
X2846Y830D01*
X2893Y830D02*
X2899Y830D01*
X2914Y830D02*
X2920Y830D01*
X3140Y830D02*
X3173Y830D01*
X3193Y830D02*
X3199Y830D01*
X3214Y830D02*
X3220Y830D01*
X3998Y830D02*
X3998Y830D01*
X6Y829D02*
X6Y829D01*
X2840Y829D02*
X2846Y829D01*
X2893Y829D02*
X2899Y829D01*
X2914Y829D02*
X2920Y829D01*
X3140Y829D02*
X3173Y829D01*
X3193Y829D02*
X3199Y829D01*
X3214Y829D02*
X3220Y829D01*
X3998Y829D02*
X3998Y829D01*
X6Y828D02*
X6Y828D01*
X2840Y828D02*
X2846Y828D01*
X2893Y828D02*
X2899Y828D01*
X2914Y828D02*
X2920Y828D01*
X3140Y828D02*
X3173Y828D01*
X3193Y828D02*
X3199Y828D01*
X3214Y828D02*
X3220Y828D01*
X3998Y828D02*
X3998Y828D01*
X6Y827D02*
X6Y827D01*
X2840Y827D02*
X2846Y827D01*
X2893Y827D02*
X2899Y827D01*
X2914Y827D02*
X2920Y827D01*
X3140Y827D02*
X3146Y827D01*
X3167Y827D02*
X3173Y827D01*
X3193Y827D02*
X3199Y827D01*
X3214Y827D02*
X3220Y827D01*
X3998Y827D02*
X3998Y827D01*
X6Y826D02*
X6Y826D01*
X2840Y826D02*
X2846Y826D01*
X2893Y826D02*
X2899Y826D01*
X2914Y826D02*
X2920Y826D01*
X3140Y826D02*
X3146Y826D01*
X3167Y826D02*
X3173Y826D01*
X3193Y826D02*
X3199Y826D01*
X3214Y826D02*
X3220Y826D01*
X3998Y826D02*
X3998Y826D01*
X6Y825D02*
X6Y825D01*
X2840Y825D02*
X2846Y825D01*
X2893Y825D02*
X2899Y825D01*
X2914Y825D02*
X2920Y825D01*
X3140Y825D02*
X3146Y825D01*
X3167Y825D02*
X3173Y825D01*
X3193Y825D02*
X3199Y825D01*
X3214Y825D02*
X3220Y825D01*
X3998Y825D02*
X3998Y825D01*
X6Y824D02*
X6Y824D01*
X2840Y824D02*
X2846Y824D01*
X2893Y824D02*
X2899Y824D01*
X2914Y824D02*
X2920Y824D01*
X3140Y824D02*
X3146Y824D01*
X3167Y824D02*
X3173Y824D01*
X3193Y824D02*
X3199Y824D01*
X3214Y824D02*
X3220Y824D01*
X3998Y824D02*
X3998Y824D01*
X6Y823D02*
X6Y823D01*
X2840Y823D02*
X2846Y823D01*
X2893Y823D02*
X2899Y823D01*
X2914Y823D02*
X2920Y823D01*
X3140Y823D02*
X3146Y823D01*
X3167Y823D02*
X3173Y823D01*
X3193Y823D02*
X3199Y823D01*
X3214Y823D02*
X3220Y823D01*
X3998Y823D02*
X3998Y823D01*
X6Y822D02*
X6Y822D01*
X2840Y822D02*
X2846Y822D01*
X2893Y822D02*
X2899Y822D01*
X2914Y822D02*
X2920Y822D01*
X3140Y822D02*
X3146Y822D01*
X3167Y822D02*
X3173Y822D01*
X3193Y822D02*
X3199Y822D01*
X3214Y822D02*
X3220Y822D01*
X3998Y822D02*
X3998Y822D01*
X6Y821D02*
X6Y821D01*
X2840Y821D02*
X2846Y821D01*
X2893Y821D02*
X2899Y821D01*
X2914Y821D02*
X2920Y821D01*
X3140Y821D02*
X3146Y821D01*
X3167Y821D02*
X3173Y821D01*
X3193Y821D02*
X3199Y821D01*
X3214Y821D02*
X3220Y821D01*
X3998Y821D02*
X3998Y821D01*
X6Y820D02*
X6Y820D01*
X2840Y820D02*
X2846Y820D01*
X2893Y820D02*
X2899Y820D01*
X2914Y820D02*
X2920Y820D01*
X3140Y820D02*
X3146Y820D01*
X3167Y820D02*
X3173Y820D01*
X3193Y820D02*
X3199Y820D01*
X3214Y820D02*
X3220Y820D01*
X3998Y820D02*
X3998Y820D01*
X6Y819D02*
X6Y819D01*
X2840Y819D02*
X2846Y819D01*
X2893Y819D02*
X2900Y819D01*
X2914Y819D02*
X2920Y819D01*
X3140Y819D02*
X3146Y819D01*
X3167Y819D02*
X3173Y819D01*
X3193Y819D02*
X3200Y819D01*
X3214Y819D02*
X3220Y819D01*
X3998Y819D02*
X3998Y819D01*
X6Y818D02*
X6Y818D01*
X2840Y818D02*
X2846Y818D01*
X2894Y818D02*
X2900Y818D01*
X2913Y818D02*
X2920Y818D01*
X3140Y818D02*
X3146Y818D01*
X3167Y818D02*
X3173Y818D01*
X3194Y818D02*
X3200Y818D01*
X3213Y818D02*
X3220Y818D01*
X3998Y818D02*
X3998Y818D01*
X6Y817D02*
X6Y817D01*
X2840Y817D02*
X2846Y817D01*
X2894Y817D02*
X2901Y817D01*
X2912Y817D02*
X2920Y817D01*
X3140Y817D02*
X3146Y817D01*
X3167Y817D02*
X3173Y817D01*
X3194Y817D02*
X3201Y817D01*
X3212Y817D02*
X3220Y817D01*
X3998Y817D02*
X3998Y817D01*
X6Y816D02*
X6Y816D01*
X2840Y816D02*
X2871Y816D01*
X2894Y816D02*
X2919Y816D01*
X3140Y816D02*
X3173Y816D01*
X3194Y816D02*
X3219Y816D01*
X3998Y816D02*
X3998Y816D01*
X6Y815D02*
X6Y815D01*
X2840Y815D02*
X2873Y815D01*
X2895Y815D02*
X2919Y815D01*
X3140Y815D02*
X3173Y815D01*
X3195Y815D02*
X3219Y815D01*
X3998Y815D02*
X3998Y815D01*
X6Y814D02*
X6Y814D01*
X2840Y814D02*
X2873Y814D01*
X2895Y814D02*
X2918Y814D01*
X3140Y814D02*
X3173Y814D01*
X3195Y814D02*
X3218Y814D01*
X3998Y814D02*
X3998Y814D01*
X6Y813D02*
X6Y813D01*
X2841Y813D02*
X2873Y813D01*
X2896Y813D02*
X2917Y813D01*
X3140Y813D02*
X3173Y813D01*
X3196Y813D02*
X3217Y813D01*
X3998Y813D02*
X3998Y813D01*
X6Y812D02*
X6Y812D01*
X2841Y812D02*
X2873Y812D01*
X2897Y812D02*
X2916Y812D01*
X3140Y812D02*
X3173Y812D01*
X3197Y812D02*
X3216Y812D01*
X3998Y812D02*
X3998Y812D01*
X6Y811D02*
X6Y811D01*
X2842Y811D02*
X2873Y811D01*
X2898Y811D02*
X2915Y811D01*
X3140Y811D02*
X3173Y811D01*
X3198Y811D02*
X3215Y811D01*
X3998Y811D02*
X3998Y811D01*
X6Y810D02*
X6Y810D01*
X2844Y810D02*
X2872Y810D01*
X2900Y810D02*
X2913Y810D01*
X3141Y810D02*
X3172Y810D01*
X3200Y810D02*
X3213Y810D01*
X3998Y810D02*
X3998Y810D01*
X6Y809D02*
X6Y809D01*
X3998Y809D02*
X3998Y809D01*
X6Y808D02*
X6Y808D01*
X3998Y808D02*
X3998Y808D01*
X6Y807D02*
X6Y807D01*
X3998Y807D02*
X3998Y807D01*
X6Y806D02*
X6Y806D01*
X3998Y806D02*
X3998Y806D01*
X6Y805D02*
X6Y805D01*
X3998Y805D02*
X3998Y805D01*
X6Y804D02*
X6Y804D01*
X3998Y804D02*
X3998Y804D01*
X6Y803D02*
X6Y803D01*
X3998Y803D02*
X3998Y803D01*
X6Y802D02*
X6Y802D01*
X3998Y802D02*
X3998Y802D01*
X6Y801D02*
X6Y801D01*
X3998Y801D02*
X3998Y801D01*
X6Y800D02*
X6Y800D01*
X3998Y800D02*
X3998Y800D01*
X6Y799D02*
X6Y799D01*
X3998Y799D02*
X3998Y799D01*
X6Y798D02*
X6Y798D01*
X3998Y798D02*
X3998Y798D01*
X6Y797D02*
X6Y797D01*
X3998Y797D02*
X3998Y797D01*
X6Y796D02*
X6Y796D01*
X3998Y796D02*
X3998Y796D01*
X6Y795D02*
X6Y795D01*
X3998Y795D02*
X3998Y795D01*
X6Y794D02*
X6Y794D01*
X3998Y794D02*
X3998Y794D01*
X6Y793D02*
X6Y793D01*
X3998Y793D02*
X3998Y793D01*
X6Y792D02*
X6Y792D01*
X3998Y792D02*
X3998Y792D01*
X6Y791D02*
X6Y791D01*
X3998Y791D02*
X3998Y791D01*
X6Y790D02*
X6Y790D01*
X3998Y790D02*
X3998Y790D01*
X6Y789D02*
X6Y789D01*
X3998Y789D02*
X3998Y789D01*
X6Y788D02*
X6Y788D01*
X3998Y788D02*
X3998Y788D01*
X6Y787D02*
X6Y787D01*
X3998Y787D02*
X3998Y787D01*
X6Y786D02*
X6Y786D01*
X3998Y786D02*
X3998Y786D01*
X6Y785D02*
X6Y785D01*
X3998Y785D02*
X3998Y785D01*
X6Y784D02*
X6Y784D01*
X3998Y784D02*
X3998Y784D01*
X6Y783D02*
X6Y783D01*
X3998Y783D02*
X3998Y783D01*
X6Y782D02*
X6Y782D01*
X3998Y782D02*
X3998Y782D01*
X6Y781D02*
X6Y781D01*
X3998Y781D02*
X3998Y781D01*
X6Y780D02*
X6Y780D01*
X3998Y780D02*
X3998Y780D01*
X6Y779D02*
X6Y779D01*
X3998Y779D02*
X3998Y779D01*
X6Y778D02*
X6Y778D01*
X3998Y778D02*
X3998Y778D01*
X6Y777D02*
X6Y777D01*
X3998Y777D02*
X3998Y777D01*
X6Y776D02*
X6Y776D01*
X3998Y776D02*
X3998Y776D01*
X6Y775D02*
X6Y775D01*
X3998Y775D02*
X3998Y775D01*
X6Y774D02*
X6Y774D01*
X3998Y774D02*
X3998Y774D01*
X6Y773D02*
X6Y773D01*
X3998Y773D02*
X3998Y773D01*
X6Y772D02*
X6Y772D01*
X3998Y772D02*
X3998Y772D01*
X6Y771D02*
X6Y771D01*
X3998Y771D02*
X3998Y771D01*
X6Y770D02*
X6Y770D01*
X3998Y770D02*
X3998Y770D01*
X6Y769D02*
X6Y769D01*
X3998Y769D02*
X3998Y769D01*
X6Y768D02*
X6Y768D01*
X3998Y768D02*
X3998Y768D01*
X6Y767D02*
X6Y767D01*
X3998Y767D02*
X3998Y767D01*
X6Y766D02*
X6Y766D01*
X3998Y766D02*
X3998Y766D01*
X6Y765D02*
X6Y765D01*
X3019Y765D02*
X3019Y765D01*
X3998Y765D02*
X3998Y765D01*
X6Y764D02*
X6Y764D01*
X3018Y764D02*
X3020Y764D01*
X3318Y764D02*
X3319Y764D01*
X3998Y764D02*
X3998Y764D01*
X6Y763D02*
X6Y763D01*
X3017Y763D02*
X3021Y763D01*
X3317Y763D02*
X3320Y763D01*
X3998Y763D02*
X3998Y763D01*
X6Y762D02*
X6Y762D01*
X3016Y762D02*
X3022Y762D01*
X3316Y762D02*
X3321Y762D01*
X3998Y762D02*
X3998Y762D01*
X6Y761D02*
X6Y761D01*
X3016Y761D02*
X3023Y761D01*
X3316Y761D02*
X3322Y761D01*
X3998Y761D02*
X3998Y761D01*
X6Y760D02*
X6Y760D01*
X3017Y760D02*
X3024Y760D01*
X3317Y760D02*
X3323Y760D01*
X3998Y760D02*
X3998Y760D01*
X6Y759D02*
X6Y759D01*
X3018Y759D02*
X3025Y759D01*
X3318Y759D02*
X3324Y759D01*
X3998Y759D02*
X3998Y759D01*
X6Y758D02*
X6Y758D01*
X3019Y758D02*
X3026Y758D01*
X3319Y758D02*
X3325Y758D01*
X3998Y758D02*
X3998Y758D01*
X6Y757D02*
X6Y757D01*
X3020Y757D02*
X3027Y757D01*
X3320Y757D02*
X3326Y757D01*
X3998Y757D02*
X3998Y757D01*
X6Y756D02*
X6Y756D01*
X3021Y756D02*
X3028Y756D01*
X3321Y756D02*
X3327Y756D01*
X3998Y756D02*
X3998Y756D01*
X6Y755D02*
X6Y755D01*
X3022Y755D02*
X3029Y755D01*
X3322Y755D02*
X3328Y755D01*
X3998Y755D02*
X3998Y755D01*
X6Y754D02*
X6Y754D01*
X3023Y754D02*
X3030Y754D01*
X3323Y754D02*
X3329Y754D01*
X3998Y754D02*
X3998Y754D01*
X6Y753D02*
X6Y753D01*
X3024Y753D02*
X3031Y753D01*
X3324Y753D02*
X3330Y753D01*
X3998Y753D02*
X3998Y753D01*
X6Y752D02*
X6Y752D01*
X3025Y752D02*
X3032Y752D01*
X3325Y752D02*
X3331Y752D01*
X3998Y752D02*
X3998Y752D01*
X6Y751D02*
X6Y751D01*
X3026Y751D02*
X3033Y751D01*
X3326Y751D02*
X3332Y751D01*
X3998Y751D02*
X3998Y751D01*
X6Y750D02*
X6Y750D01*
X3027Y750D02*
X3034Y750D01*
X3327Y750D02*
X3333Y750D01*
X3998Y750D02*
X3998Y750D01*
X6Y749D02*
X6Y749D01*
X3028Y749D02*
X3035Y749D01*
X3328Y749D02*
X3334Y749D01*
X3998Y749D02*
X3998Y749D01*
X6Y748D02*
X6Y748D01*
X3030Y748D02*
X3036Y748D01*
X3330Y748D02*
X3335Y748D01*
X3998Y748D02*
X3998Y748D01*
X6Y747D02*
X6Y747D01*
X3031Y747D02*
X3037Y747D01*
X3331Y747D02*
X3336Y747D01*
X3998Y747D02*
X3998Y747D01*
X6Y746D02*
X6Y746D01*
X3032Y746D02*
X3038Y746D01*
X3332Y746D02*
X3337Y746D01*
X3998Y746D02*
X3998Y746D01*
X6Y745D02*
X6Y745D01*
X3033Y745D02*
X3039Y745D01*
X3333Y745D02*
X3338Y745D01*
X3998Y745D02*
X3998Y745D01*
X6Y744D02*
X6Y744D01*
X3034Y744D02*
X3040Y744D01*
X3334Y744D02*
X3339Y744D01*
X3998Y744D02*
X3998Y744D01*
X6Y743D02*
X6Y743D01*
X3035Y743D02*
X3041Y743D01*
X3335Y743D02*
X3340Y743D01*
X3998Y743D02*
X3998Y743D01*
X6Y742D02*
X6Y742D01*
X3036Y742D02*
X3042Y742D01*
X3336Y742D02*
X3341Y742D01*
X3998Y742D02*
X3998Y742D01*
X6Y741D02*
X6Y741D01*
X3037Y741D02*
X3043Y741D01*
X3337Y741D02*
X3342Y741D01*
X3998Y741D02*
X3998Y741D01*
X6Y740D02*
X6Y740D01*
X3037Y740D02*
X3044Y740D01*
X3337Y740D02*
X3343Y740D01*
X3998Y740D02*
X3998Y740D01*
X6Y739D02*
X6Y739D01*
X3038Y739D02*
X3045Y739D01*
X3338Y739D02*
X3344Y739D01*
X3998Y739D02*
X3998Y739D01*
X6Y738D02*
X6Y738D01*
X3039Y738D02*
X3046Y738D01*
X3339Y738D02*
X3345Y738D01*
X3998Y738D02*
X3998Y738D01*
X6Y737D02*
X6Y737D01*
X3040Y737D02*
X3047Y737D01*
X3340Y737D02*
X3346Y737D01*
X3998Y737D02*
X3998Y737D01*
X6Y736D02*
X6Y736D01*
X3041Y736D02*
X3048Y736D01*
X3341Y736D02*
X3347Y736D01*
X3998Y736D02*
X3998Y736D01*
X6Y735D02*
X6Y735D01*
X3042Y735D02*
X3049Y735D01*
X3342Y735D02*
X3348Y735D01*
X3998Y735D02*
X3998Y735D01*
X6Y734D02*
X6Y734D01*
X3043Y734D02*
X3050Y734D01*
X3343Y734D02*
X3349Y734D01*
X3998Y734D02*
X3998Y734D01*
X6Y733D02*
X6Y733D01*
X3044Y733D02*
X3051Y733D01*
X3344Y733D02*
X3350Y733D01*
X3998Y733D02*
X3998Y733D01*
X6Y732D02*
X6Y732D01*
X3045Y732D02*
X3052Y732D01*
X3345Y732D02*
X3351Y732D01*
X3998Y732D02*
X3998Y732D01*
X6Y731D02*
X6Y731D01*
X3046Y731D02*
X3053Y731D01*
X3346Y731D02*
X3352Y731D01*
X3998Y731D02*
X3998Y731D01*
X6Y730D02*
X6Y730D01*
X3047Y730D02*
X3053Y730D01*
X3347Y730D02*
X3353Y730D01*
X3998Y730D02*
X3998Y730D01*
X6Y729D02*
X6Y729D01*
X3048Y729D02*
X3052Y729D01*
X3348Y729D02*
X3352Y729D01*
X3998Y729D02*
X3998Y729D01*
X6Y728D02*
X6Y728D01*
X3049Y728D02*
X3051Y728D01*
X3349Y728D02*
X3351Y728D01*
X3998Y728D02*
X3998Y728D01*
X6Y727D02*
X6Y727D01*
X3998Y727D02*
X3998Y727D01*
X6Y726D02*
X6Y726D01*
X3998Y726D02*
X3998Y726D01*
X6Y725D02*
X6Y725D01*
X3998Y725D02*
X3998Y725D01*
X6Y724D02*
X6Y724D01*
X3998Y724D02*
X3998Y724D01*
X6Y723D02*
X6Y723D01*
X3998Y723D02*
X3998Y723D01*
X6Y722D02*
X6Y722D01*
X3998Y722D02*
X3998Y722D01*
X6Y721D02*
X6Y721D01*
X3998Y721D02*
X3998Y721D01*
X6Y720D02*
X6Y720D01*
X3998Y720D02*
X3998Y720D01*
X6Y719D02*
X6Y719D01*
X3998Y719D02*
X3998Y719D01*
X6Y718D02*
X6Y718D01*
X3998Y718D02*
X3998Y718D01*
X6Y717D02*
X6Y717D01*
X3998Y717D02*
X3998Y717D01*
X6Y716D02*
X6Y716D01*
X3998Y716D02*
X3998Y716D01*
X6Y715D02*
X6Y715D01*
X3998Y715D02*
X3998Y715D01*
X6Y714D02*
X6Y714D01*
X3998Y714D02*
X3998Y714D01*
X6Y713D02*
X6Y713D01*
X3998Y713D02*
X3998Y713D01*
X6Y712D02*
X6Y712D01*
X3998Y712D02*
X3998Y712D01*
X6Y711D02*
X6Y711D01*
X3998Y711D02*
X3998Y711D01*
X6Y710D02*
X6Y710D01*
X3998Y710D02*
X3998Y710D01*
X6Y709D02*
X6Y709D01*
X3998Y709D02*
X3998Y709D01*
X6Y708D02*
X6Y708D01*
X3998Y708D02*
X3998Y708D01*
X6Y707D02*
X6Y707D01*
X3998Y707D02*
X3998Y707D01*
X6Y706D02*
X6Y706D01*
X3998Y706D02*
X3998Y706D01*
X6Y705D02*
X6Y705D01*
X3998Y705D02*
X3998Y705D01*
X6Y704D02*
X6Y704D01*
X3998Y704D02*
X3998Y704D01*
X6Y703D02*
X6Y703D01*
X3998Y703D02*
X3998Y703D01*
X6Y702D02*
X6Y702D01*
X3998Y702D02*
X3998Y702D01*
X6Y701D02*
X6Y701D01*
X3998Y701D02*
X3998Y701D01*
X6Y700D02*
X6Y700D01*
X3998Y700D02*
X3998Y700D01*
X6Y699D02*
X6Y699D01*
X3998Y699D02*
X3998Y699D01*
X6Y698D02*
X6Y698D01*
X3998Y698D02*
X3998Y698D01*
X6Y697D02*
X6Y697D01*
X3998Y697D02*
X3998Y697D01*
X6Y696D02*
X6Y696D01*
X3998Y696D02*
X3998Y696D01*
X6Y695D02*
X6Y695D01*
X3998Y695D02*
X3998Y695D01*
X6Y694D02*
X6Y694D01*
X3998Y694D02*
X3998Y694D01*
X6Y693D02*
X6Y693D01*
X3998Y693D02*
X3998Y693D01*
X6Y692D02*
X6Y692D01*
X3998Y692D02*
X3998Y692D01*
X6Y691D02*
X6Y691D01*
X3998Y691D02*
X3998Y691D01*
X6Y690D02*
X6Y690D01*
X3998Y690D02*
X3998Y690D01*
X6Y689D02*
X6Y689D01*
X3998Y689D02*
X3998Y689D01*
X6Y688D02*
X6Y688D01*
X3998Y688D02*
X3998Y688D01*
X6Y687D02*
X6Y687D01*
X3998Y687D02*
X3998Y687D01*
X6Y686D02*
X6Y686D01*
X3998Y686D02*
X3998Y686D01*
X6Y685D02*
X6Y685D01*
X3998Y685D02*
X3998Y685D01*
X6Y684D02*
X6Y684D01*
X3998Y684D02*
X3998Y684D01*
X6Y683D02*
X6Y683D01*
X3998Y683D02*
X3998Y683D01*
X6Y682D02*
X6Y682D01*
X3998Y682D02*
X3998Y682D01*
X6Y681D02*
X6Y681D01*
X3998Y681D02*
X3998Y681D01*
X6Y680D02*
X6Y680D01*
X3998Y680D02*
X3998Y680D01*
X6Y679D02*
X6Y679D01*
X3998Y679D02*
X3998Y679D01*
X6Y678D02*
X6Y678D01*
X3998Y678D02*
X3998Y678D01*
X6Y677D02*
X6Y677D01*
X3998Y677D02*
X3998Y677D01*
X6Y676D02*
X6Y676D01*
X3998Y676D02*
X3998Y676D01*
X6Y675D02*
X6Y675D01*
X3998Y675D02*
X3998Y675D01*
X6Y674D02*
X6Y674D01*
X3998Y674D02*
X3998Y674D01*
X6Y673D02*
X6Y673D01*
X3998Y673D02*
X3998Y673D01*
X6Y672D02*
X6Y672D01*
X3998Y672D02*
X3998Y672D01*
X6Y671D02*
X6Y671D01*
X3998Y671D02*
X3998Y671D01*
X6Y670D02*
X6Y670D01*
X3998Y670D02*
X3998Y670D01*
X6Y669D02*
X6Y669D01*
X3998Y669D02*
X3998Y669D01*
X6Y668D02*
X6Y668D01*
X3998Y668D02*
X3998Y668D01*
X6Y667D02*
X6Y667D01*
X3998Y667D02*
X3998Y667D01*
X6Y666D02*
X6Y666D01*
X3998Y666D02*
X3998Y666D01*
X6Y665D02*
X6Y665D01*
X3998Y665D02*
X3998Y665D01*
X6Y664D02*
X6Y664D01*
X3998Y664D02*
X3998Y664D01*
X6Y663D02*
X6Y663D01*
X3998Y663D02*
X3998Y663D01*
X6Y662D02*
X6Y662D01*
X3998Y662D02*
X3998Y662D01*
X6Y661D02*
X6Y661D01*
X3998Y661D02*
X3998Y661D01*
X6Y660D02*
X6Y660D01*
X3998Y660D02*
X3998Y660D01*
X6Y659D02*
X6Y659D01*
X3998Y659D02*
X3998Y659D01*
X6Y658D02*
X6Y658D01*
X3998Y658D02*
X3998Y658D01*
X6Y657D02*
X6Y657D01*
X3998Y657D02*
X3998Y657D01*
X6Y656D02*
X6Y656D01*
X3998Y656D02*
X3998Y656D01*
X6Y655D02*
X6Y655D01*
X3998Y655D02*
X3998Y655D01*
X6Y654D02*
X6Y654D01*
X3998Y654D02*
X3998Y654D01*
X6Y653D02*
X6Y653D01*
X3998Y653D02*
X3998Y653D01*
X6Y652D02*
X6Y652D01*
X3998Y652D02*
X3998Y652D01*
X6Y651D02*
X6Y651D01*
X3998Y651D02*
X3998Y651D01*
X6Y650D02*
X6Y650D01*
X3998Y650D02*
X3998Y650D01*
X6Y649D02*
X6Y649D01*
X3998Y649D02*
X3998Y649D01*
X6Y648D02*
X6Y648D01*
X3998Y648D02*
X3998Y648D01*
X6Y647D02*
X6Y647D01*
X3998Y647D02*
X3998Y647D01*
X6Y646D02*
X6Y646D01*
X3998Y646D02*
X3998Y646D01*
X6Y645D02*
X6Y645D01*
X3998Y645D02*
X3998Y645D01*
X6Y644D02*
X6Y644D01*
X3998Y644D02*
X3998Y644D01*
X6Y643D02*
X6Y643D01*
X3998Y643D02*
X3998Y643D01*
X6Y642D02*
X6Y642D01*
X3998Y642D02*
X3998Y642D01*
X6Y641D02*
X6Y641D01*
X3998Y641D02*
X3998Y641D01*
X6Y640D02*
X6Y640D01*
X3998Y640D02*
X3998Y640D01*
X6Y639D02*
X6Y639D01*
X3998Y639D02*
X3998Y639D01*
X6Y638D02*
X6Y638D01*
X3998Y638D02*
X3998Y638D01*
X6Y637D02*
X6Y637D01*
X3998Y637D02*
X3998Y637D01*
X6Y636D02*
X6Y636D01*
X3998Y636D02*
X3998Y636D01*
X6Y635D02*
X6Y635D01*
X3998Y635D02*
X3998Y635D01*
X6Y634D02*
X6Y634D01*
X3998Y634D02*
X3998Y634D01*
X6Y633D02*
X6Y633D01*
X3998Y633D02*
X3998Y633D01*
X6Y632D02*
X6Y632D01*
X3998Y632D02*
X3998Y632D01*
X6Y631D02*
X6Y631D01*
X3998Y631D02*
X3998Y631D01*
X6Y630D02*
X6Y630D01*
X3998Y630D02*
X3998Y630D01*
X6Y629D02*
X6Y629D01*
X3998Y629D02*
X3998Y629D01*
X6Y628D02*
X6Y628D01*
X3998Y628D02*
X3998Y628D01*
X6Y627D02*
X6Y627D01*
X3998Y627D02*
X3998Y627D01*
X6Y626D02*
X6Y626D01*
X3998Y626D02*
X3998Y626D01*
X6Y625D02*
X6Y625D01*
X3998Y625D02*
X3998Y625D01*
X6Y624D02*
X6Y624D01*
X3998Y624D02*
X3998Y624D01*
X6Y623D02*
X6Y623D01*
X3998Y623D02*
X3998Y623D01*
X6Y622D02*
X6Y622D01*
X3998Y622D02*
X3998Y622D01*
X6Y621D02*
X6Y621D01*
X3998Y621D02*
X3998Y621D01*
X6Y620D02*
X6Y620D01*
X3998Y620D02*
X3998Y620D01*
X6Y619D02*
X6Y619D01*
X3998Y619D02*
X3998Y619D01*
X6Y618D02*
X6Y618D01*
X3998Y618D02*
X3998Y618D01*
X6Y617D02*
X6Y617D01*
X3998Y617D02*
X3998Y617D01*
X6Y616D02*
X6Y616D01*
X3998Y616D02*
X3998Y616D01*
X6Y615D02*
X6Y615D01*
X3998Y615D02*
X3998Y615D01*
X6Y614D02*
X6Y614D01*
X3998Y614D02*
X3998Y614D01*
X6Y613D02*
X6Y613D01*
X3998Y613D02*
X3998Y613D01*
X6Y612D02*
X6Y612D01*
X3998Y612D02*
X3998Y612D01*
X6Y611D02*
X6Y611D01*
X3998Y611D02*
X3998Y611D01*
X6Y610D02*
X6Y610D01*
X3998Y610D02*
X3998Y610D01*
X6Y609D02*
X6Y609D01*
X3998Y609D02*
X3998Y609D01*
X6Y608D02*
X6Y608D01*
X3998Y608D02*
X3998Y608D01*
X6Y607D02*
X7Y607D01*
X3998Y607D02*
X3998Y607D01*
X7Y606D02*
X8Y606D01*
X3998Y606D02*
X3998Y606D01*
X8Y605D02*
X9Y605D01*
X3998Y605D02*
X3998Y605D01*
X9Y604D02*
X10Y604D01*
X3998Y604D02*
X3998Y604D01*
X10Y603D02*
X11Y603D01*
X3998Y603D02*
X3998Y603D01*
X11Y602D02*
X12Y602D01*
X3998Y602D02*
X3998Y602D01*
X12Y601D02*
X13Y601D01*
X3998Y601D02*
X3998Y601D01*
X13Y600D02*
X14Y600D01*
X3998Y600D02*
X3998Y600D01*
X14Y599D02*
X15Y599D01*
X3998Y599D02*
X3998Y599D01*
X15Y598D02*
X16Y598D01*
X3998Y598D02*
X3998Y598D01*
X16Y597D02*
X17Y597D01*
X3998Y597D02*
X3998Y597D01*
X17Y596D02*
X18Y596D01*
X3998Y596D02*
X3998Y596D01*
X18Y595D02*
X19Y595D01*
X3998Y595D02*
X3998Y595D01*
X19Y594D02*
X20Y594D01*
X3998Y594D02*
X3998Y594D01*
X20Y593D02*
X21Y593D01*
X3998Y593D02*
X3998Y593D01*
X21Y592D02*
X22Y592D01*
X3998Y592D02*
X3998Y592D01*
X22Y591D02*
X23Y591D01*
X3998Y591D02*
X3998Y591D01*
X23Y590D02*
X24Y590D01*
X3998Y590D02*
X3998Y590D01*
X24Y589D02*
X25Y589D01*
X3998Y589D02*
X3998Y589D01*
X25Y588D02*
X26Y588D01*
X3998Y588D02*
X3998Y588D01*
X26Y587D02*
X27Y587D01*
X3998Y587D02*
X3998Y587D01*
X27Y586D02*
X28Y586D01*
X3998Y586D02*
X3998Y586D01*
X28Y585D02*
X29Y585D01*
X3998Y585D02*
X3998Y585D01*
X29Y584D02*
X30Y584D01*
X3998Y584D02*
X3998Y584D01*
X30Y583D02*
X31Y583D01*
X3998Y583D02*
X3998Y583D01*
X31Y582D02*
X32Y582D01*
X3998Y582D02*
X3998Y582D01*
X32Y581D02*
X33Y581D01*
X3998Y581D02*
X3998Y581D01*
X33Y580D02*
X34Y580D01*
X3998Y580D02*
X3998Y580D01*
X34Y579D02*
X35Y579D01*
X3998Y579D02*
X3998Y579D01*
X35Y578D02*
X36Y578D01*
X3998Y578D02*
X3998Y578D01*
X36Y577D02*
X37Y577D01*
X3998Y577D02*
X3998Y577D01*
X37Y576D02*
X38Y576D01*
X1730Y576D02*
X1751Y576D01*
X3998Y576D02*
X3998Y576D01*
X38Y575D02*
X39Y575D01*
X1729Y575D02*
X1751Y575D01*
X3998Y575D02*
X3998Y575D01*
X39Y574D02*
X40Y574D01*
X1728Y574D02*
X1751Y574D01*
X3998Y574D02*
X3998Y574D01*
X40Y573D02*
X41Y573D01*
X1727Y573D02*
X1751Y573D01*
X3998Y573D02*
X3998Y573D01*
X41Y572D02*
X42Y572D01*
X1726Y572D02*
X1751Y572D01*
X3998Y572D02*
X3998Y572D01*
X42Y571D02*
X43Y571D01*
X1725Y571D02*
X1751Y571D01*
X3998Y571D02*
X3998Y571D01*
X43Y570D02*
X44Y570D01*
X1724Y570D02*
X1751Y570D01*
X3998Y570D02*
X3998Y570D01*
X44Y569D02*
X45Y569D01*
X1723Y569D02*
X1732Y569D01*
X1745Y569D02*
X1751Y569D01*
X3998Y569D02*
X3998Y569D01*
X45Y568D02*
X46Y568D01*
X1723Y568D02*
X1731Y568D01*
X1745Y568D02*
X1751Y568D01*
X3998Y568D02*
X3998Y568D01*
X46Y567D02*
X47Y567D01*
X1722Y567D02*
X1730Y567D01*
X1745Y567D02*
X1751Y567D01*
X3998Y567D02*
X3998Y567D01*
X47Y566D02*
X48Y566D01*
X1721Y566D02*
X1729Y566D01*
X1745Y566D02*
X1751Y566D01*
X3998Y566D02*
X3998Y566D01*
X48Y565D02*
X49Y565D01*
X1720Y565D02*
X1728Y565D01*
X1745Y565D02*
X1751Y565D01*
X3998Y565D02*
X3998Y565D01*
X49Y564D02*
X50Y564D01*
X1719Y564D02*
X1727Y564D01*
X1745Y564D02*
X1751Y564D01*
X3998Y564D02*
X3998Y564D01*
X50Y563D02*
X51Y563D01*
X1718Y563D02*
X1727Y563D01*
X1745Y563D02*
X1751Y563D01*
X3998Y563D02*
X3998Y563D01*
X51Y562D02*
X52Y562D01*
X1700Y562D02*
X1726Y562D01*
X1745Y562D02*
X1751Y562D01*
X3998Y562D02*
X3998Y562D01*
X52Y561D02*
X53Y561D01*
X1699Y561D02*
X1725Y561D01*
X1745Y561D02*
X1751Y561D01*
X3998Y561D02*
X3998Y561D01*
X53Y560D02*
X54Y560D01*
X1699Y560D02*
X1724Y560D01*
X1745Y560D02*
X1751Y560D01*
X3998Y560D02*
X3998Y560D01*
X54Y559D02*
X55Y559D01*
X1698Y559D02*
X1723Y559D01*
X1745Y559D02*
X1751Y559D01*
X3998Y559D02*
X3998Y559D01*
X55Y558D02*
X56Y558D01*
X1699Y558D02*
X1722Y558D01*
X1745Y558D02*
X1751Y558D01*
X3998Y558D02*
X3998Y558D01*
X56Y557D02*
X57Y557D01*
X1699Y557D02*
X1721Y557D01*
X1745Y557D02*
X1751Y557D01*
X3998Y557D02*
X3998Y557D01*
X57Y556D02*
X58Y556D01*
X1700Y556D02*
X1720Y556D01*
X1745Y556D02*
X1751Y556D01*
X3998Y556D02*
X3998Y556D01*
X58Y555D02*
X59Y555D01*
X1745Y555D02*
X1751Y555D01*
X3998Y555D02*
X3998Y555D01*
X59Y554D02*
X60Y554D01*
X1745Y554D02*
X1751Y554D01*
X3998Y554D02*
X3998Y554D01*
X60Y553D02*
X61Y553D01*
X1745Y553D02*
X1751Y553D01*
X3998Y553D02*
X3998Y553D01*
X61Y552D02*
X62Y552D01*
X1745Y552D02*
X1751Y552D01*
X3998Y552D02*
X3998Y552D01*
X62Y551D02*
X63Y551D01*
X1745Y551D02*
X1751Y551D01*
X3998Y551D02*
X3998Y551D01*
X63Y550D02*
X64Y550D01*
X1745Y550D02*
X1751Y550D01*
X3998Y550D02*
X3998Y550D01*
X64Y549D02*
X65Y549D01*
X1745Y549D02*
X1751Y549D01*
X3998Y549D02*
X3998Y549D01*
X65Y548D02*
X66Y548D01*
X1744Y548D02*
X1751Y548D01*
X3998Y548D02*
X3998Y548D01*
X66Y547D02*
X67Y547D01*
X1743Y547D02*
X1751Y547D01*
X3998Y547D02*
X3998Y547D01*
X67Y546D02*
X68Y546D01*
X1743Y546D02*
X1751Y546D01*
X3998Y546D02*
X3998Y546D01*
X68Y545D02*
X69Y545D01*
X1743Y545D02*
X1751Y545D01*
X3998Y545D02*
X3998Y545D01*
X69Y544D02*
X70Y544D01*
X1743Y544D02*
X1751Y544D01*
X3998Y544D02*
X3998Y544D01*
X70Y543D02*
X71Y543D01*
X1743Y543D02*
X1751Y543D01*
X3998Y543D02*
X3998Y543D01*
X71Y542D02*
X72Y542D01*
X1745Y542D02*
X1749Y542D01*
X3998Y542D02*
X3998Y542D01*
X72Y541D02*
X73Y541D01*
X3998Y541D02*
X3998Y541D01*
X73Y540D02*
X74Y540D01*
X3998Y540D02*
X3998Y540D01*
X74Y539D02*
X75Y539D01*
X3998Y539D02*
X3998Y539D01*
X75Y538D02*
X76Y538D01*
X3998Y538D02*
X3998Y538D01*
X76Y537D02*
X77Y537D01*
X3998Y537D02*
X3998Y537D01*
X77Y536D02*
X78Y536D01*
X3998Y536D02*
X3998Y536D01*
X78Y535D02*
X79Y535D01*
X3998Y535D02*
X3998Y535D01*
X79Y534D02*
X80Y534D01*
X3998Y534D02*
X3998Y534D01*
X80Y533D02*
X81Y533D01*
X3998Y533D02*
X3998Y533D01*
X81Y532D02*
X82Y532D01*
X3998Y532D02*
X3998Y532D01*
X82Y531D02*
X83Y531D01*
X3998Y531D02*
X3998Y531D01*
X83Y530D02*
X84Y530D01*
X3998Y530D02*
X3998Y530D01*
X84Y529D02*
X85Y529D01*
X3998Y529D02*
X3998Y529D01*
X85Y528D02*
X86Y528D01*
X3998Y528D02*
X3998Y528D01*
X86Y527D02*
X87Y527D01*
X3998Y527D02*
X3998Y527D01*
X87Y526D02*
X88Y526D01*
X3998Y526D02*
X3998Y526D01*
X88Y525D02*
X89Y525D01*
X3998Y525D02*
X3998Y525D01*
X89Y524D02*
X90Y524D01*
X3998Y524D02*
X3998Y524D01*
X90Y523D02*
X91Y523D01*
X3998Y523D02*
X3998Y523D01*
X91Y522D02*
X92Y522D01*
X1705Y522D02*
X1750Y522D01*
X3998Y522D02*
X3998Y522D01*
X92Y521D02*
X93Y521D01*
X1703Y521D02*
X1751Y521D01*
X3998Y521D02*
X3998Y521D01*
X93Y520D02*
X94Y520D01*
X1702Y520D02*
X1751Y520D01*
X3998Y520D02*
X3998Y520D01*
X94Y519D02*
X95Y519D01*
X1701Y519D02*
X1751Y519D01*
X3998Y519D02*
X3998Y519D01*
X95Y518D02*
X96Y518D01*
X1700Y518D02*
X1751Y518D01*
X3998Y518D02*
X3998Y518D01*
X96Y517D02*
X97Y517D01*
X1700Y517D02*
X1751Y517D01*
X3998Y517D02*
X3998Y517D01*
X97Y516D02*
X98Y516D01*
X1699Y516D02*
X1749Y516D01*
X3998Y516D02*
X3998Y516D01*
X98Y515D02*
X99Y515D01*
X1699Y515D02*
X1706Y515D01*
X3998Y515D02*
X3998Y515D01*
X99Y514D02*
X100Y514D01*
X1699Y514D02*
X1705Y514D01*
X3998Y514D02*
X3998Y514D01*
X100Y513D02*
X101Y513D01*
X1698Y513D02*
X1705Y513D01*
X3998Y513D02*
X3998Y513D01*
X101Y512D02*
X102Y512D01*
X1698Y512D02*
X1704Y512D01*
X3998Y512D02*
X3998Y512D01*
X102Y511D02*
X103Y511D01*
X1698Y511D02*
X1704Y511D01*
X3998Y511D02*
X3998Y511D01*
X103Y510D02*
X104Y510D01*
X1698Y510D02*
X1704Y510D01*
X3998Y510D02*
X3998Y510D01*
X104Y509D02*
X105Y509D01*
X1698Y509D02*
X1704Y509D01*
X3998Y509D02*
X3998Y509D01*
X105Y508D02*
X106Y508D01*
X1698Y508D02*
X1704Y508D01*
X3998Y508D02*
X3998Y508D01*
X106Y507D02*
X106Y507D01*
X1698Y507D02*
X1704Y507D01*
X3998Y507D02*
X3998Y507D01*
X106Y506D02*
X106Y506D01*
X1698Y506D02*
X1704Y506D01*
X3998Y506D02*
X3998Y506D01*
X106Y505D02*
X106Y505D01*
X1698Y505D02*
X1704Y505D01*
X3998Y505D02*
X3998Y505D01*
X106Y504D02*
X106Y504D01*
X1698Y504D02*
X1705Y504D01*
X3998Y504D02*
X3998Y504D01*
X106Y503D02*
X106Y503D01*
X1699Y503D02*
X1705Y503D01*
X3998Y503D02*
X3998Y503D01*
X106Y502D02*
X106Y502D01*
X1699Y502D02*
X1707Y502D01*
X3998Y502D02*
X3998Y502D01*
X106Y501D02*
X106Y501D01*
X1699Y501D02*
X1721Y501D01*
X3998Y501D02*
X3998Y501D01*
X106Y500D02*
X106Y500D01*
X1700Y500D02*
X1722Y500D01*
X3998Y500D02*
X3998Y500D01*
X106Y499D02*
X106Y499D01*
X1701Y499D02*
X1722Y499D01*
X3998Y499D02*
X3998Y499D01*
X106Y498D02*
X106Y498D01*
X1701Y498D02*
X1722Y498D01*
X3998Y498D02*
X3998Y498D01*
X106Y497D02*
X106Y497D01*
X1703Y497D02*
X1722Y497D01*
X3998Y497D02*
X3998Y497D01*
X106Y496D02*
X106Y496D01*
X1704Y496D02*
X1721Y496D01*
X3998Y496D02*
X3998Y496D01*
X106Y495D02*
X106Y495D01*
X1708Y495D02*
X1719Y495D01*
X3998Y495D02*
X3998Y495D01*
X106Y494D02*
X106Y494D01*
X3998Y494D02*
X3998Y494D01*
X106Y493D02*
X106Y493D01*
X3998Y493D02*
X3998Y493D01*
X106Y492D02*
X106Y492D01*
X3998Y492D02*
X3998Y492D01*
X106Y491D02*
X106Y491D01*
X3998Y491D02*
X3998Y491D01*
X106Y490D02*
X106Y490D01*
X3998Y490D02*
X3998Y490D01*
X106Y489D02*
X106Y489D01*
X3998Y489D02*
X3998Y489D01*
X106Y488D02*
X106Y488D01*
X3998Y488D02*
X3998Y488D01*
X106Y487D02*
X106Y487D01*
X3998Y487D02*
X3998Y487D01*
X106Y486D02*
X106Y486D01*
X3998Y486D02*
X3998Y486D01*
X106Y485D02*
X106Y485D01*
X3998Y485D02*
X3998Y485D01*
X106Y484D02*
X106Y484D01*
X3998Y484D02*
X3998Y484D01*
X106Y483D02*
X106Y483D01*
X3998Y483D02*
X3998Y483D01*
X106Y482D02*
X106Y482D01*
X3998Y482D02*
X3998Y482D01*
X106Y481D02*
X106Y481D01*
X3998Y481D02*
X3998Y481D01*
X106Y480D02*
X106Y480D01*
X3998Y480D02*
X3998Y480D01*
X106Y479D02*
X106Y479D01*
X3998Y479D02*
X3998Y479D01*
X106Y478D02*
X106Y478D01*
X3998Y478D02*
X3998Y478D01*
X106Y477D02*
X106Y477D01*
X3998Y477D02*
X3998Y477D01*
X106Y476D02*
X106Y476D01*
X3998Y476D02*
X3998Y476D01*
X106Y475D02*
X106Y475D01*
X3998Y475D02*
X3998Y475D01*
X106Y474D02*
X106Y474D01*
X3998Y474D02*
X3998Y474D01*
X106Y473D02*
X106Y473D01*
X3998Y473D02*
X3998Y473D01*
X106Y472D02*
X106Y472D01*
X3998Y472D02*
X3998Y472D01*
X106Y471D02*
X106Y471D01*
X3998Y471D02*
X3998Y471D01*
X106Y470D02*
X106Y470D01*
X3998Y470D02*
X3998Y470D01*
X106Y469D02*
X106Y469D01*
X3998Y469D02*
X3998Y469D01*
X106Y468D02*
X106Y468D01*
X3998Y468D02*
X3998Y468D01*
X106Y467D02*
X106Y467D01*
X3998Y467D02*
X3998Y467D01*
X106Y466D02*
X106Y466D01*
X3998Y466D02*
X3998Y466D01*
X106Y465D02*
X106Y465D01*
X3998Y465D02*
X3998Y465D01*
X106Y464D02*
X106Y464D01*
X3998Y464D02*
X3998Y464D01*
X106Y463D02*
X106Y463D01*
X3998Y463D02*
X3998Y463D01*
X106Y462D02*
X106Y462D01*
X3998Y462D02*
X3998Y462D01*
X106Y461D02*
X106Y461D01*
X3998Y461D02*
X3998Y461D01*
X106Y460D02*
X106Y460D01*
X3998Y460D02*
X3998Y460D01*
X106Y459D02*
X106Y459D01*
X3998Y459D02*
X3998Y459D01*
X106Y458D02*
X106Y458D01*
X3998Y458D02*
X3998Y458D01*
X106Y457D02*
X106Y457D01*
X3998Y457D02*
X3998Y457D01*
X106Y456D02*
X106Y456D01*
X3998Y456D02*
X3998Y456D01*
X106Y455D02*
X106Y455D01*
X3998Y455D02*
X3998Y455D01*
X106Y454D02*
X106Y454D01*
X3998Y454D02*
X3998Y454D01*
X106Y453D02*
X106Y453D01*
X3998Y453D02*
X3998Y453D01*
X106Y452D02*
X106Y452D01*
X3998Y452D02*
X3998Y452D01*
X106Y451D02*
X106Y451D01*
X3998Y451D02*
X3998Y451D01*
X106Y450D02*
X106Y450D01*
X3998Y450D02*
X3998Y450D01*
X106Y449D02*
X106Y449D01*
X3998Y449D02*
X3998Y449D01*
X106Y448D02*
X106Y448D01*
X3998Y448D02*
X3998Y448D01*
X106Y447D02*
X106Y447D01*
X3998Y447D02*
X3998Y447D01*
X106Y446D02*
X106Y446D01*
X3998Y446D02*
X3998Y446D01*
X106Y445D02*
X106Y445D01*
X3998Y445D02*
X3998Y445D01*
X106Y444D02*
X106Y444D01*
X3998Y444D02*
X3998Y444D01*
X106Y443D02*
X106Y443D01*
X3998Y443D02*
X3998Y443D01*
X106Y442D02*
X106Y442D01*
X3998Y442D02*
X3998Y442D01*
X106Y441D02*
X106Y441D01*
X3998Y441D02*
X3998Y441D01*
X106Y440D02*
X106Y440D01*
X3998Y440D02*
X3998Y440D01*
X106Y439D02*
X106Y439D01*
X3998Y439D02*
X3998Y439D01*
X106Y438D02*
X106Y438D01*
X3998Y438D02*
X3998Y438D01*
X106Y437D02*
X106Y437D01*
X3998Y437D02*
X3998Y437D01*
X106Y436D02*
X106Y436D01*
X3998Y436D02*
X3998Y436D01*
X106Y435D02*
X106Y435D01*
X3998Y435D02*
X3998Y435D01*
X106Y434D02*
X106Y434D01*
X3998Y434D02*
X3998Y434D01*
X106Y433D02*
X106Y433D01*
X3998Y433D02*
X3998Y433D01*
X106Y432D02*
X106Y432D01*
X3998Y432D02*
X3998Y432D01*
X106Y431D02*
X106Y431D01*
X3998Y431D02*
X3998Y431D01*
X106Y430D02*
X106Y430D01*
X3998Y430D02*
X3998Y430D01*
X106Y429D02*
X106Y429D01*
X3998Y429D02*
X3998Y429D01*
X106Y428D02*
X106Y428D01*
X3998Y428D02*
X3998Y428D01*
X106Y427D02*
X106Y427D01*
X3998Y427D02*
X3998Y427D01*
X106Y426D02*
X106Y426D01*
X3998Y426D02*
X3998Y426D01*
X106Y425D02*
X106Y425D01*
X3998Y425D02*
X3998Y425D01*
X106Y424D02*
X106Y424D01*
X3998Y424D02*
X3998Y424D01*
X106Y423D02*
X106Y423D01*
X3998Y423D02*
X3998Y423D01*
X106Y422D02*
X106Y422D01*
X3998Y422D02*
X3998Y422D01*
X106Y421D02*
X106Y421D01*
X3998Y421D02*
X3998Y421D01*
X106Y420D02*
X106Y420D01*
X3998Y420D02*
X3998Y420D01*
X106Y419D02*
X106Y419D01*
X3998Y419D02*
X3998Y419D01*
X106Y418D02*
X106Y418D01*
X3998Y418D02*
X3998Y418D01*
X106Y417D02*
X106Y417D01*
X3998Y417D02*
X3998Y417D01*
X106Y416D02*
X106Y416D01*
X3998Y416D02*
X3998Y416D01*
X106Y415D02*
X106Y415D01*
X3998Y415D02*
X3998Y415D01*
X106Y414D02*
X106Y414D01*
X3998Y414D02*
X3998Y414D01*
X106Y413D02*
X106Y413D01*
X3998Y413D02*
X3998Y413D01*
X106Y412D02*
X106Y412D01*
X3998Y412D02*
X3998Y412D01*
X106Y411D02*
X106Y411D01*
X3998Y411D02*
X3998Y411D01*
X106Y410D02*
X106Y410D01*
X3998Y410D02*
X3998Y410D01*
X106Y409D02*
X106Y409D01*
X3998Y409D02*
X3998Y409D01*
X106Y408D02*
X106Y408D01*
X3998Y408D02*
X3998Y408D01*
X106Y407D02*
X106Y407D01*
X3998Y407D02*
X3998Y407D01*
X106Y406D02*
X106Y406D01*
X3998Y406D02*
X3998Y406D01*
X106Y405D02*
X106Y405D01*
X3998Y405D02*
X3998Y405D01*
X106Y404D02*
X106Y404D01*
X3998Y404D02*
X3998Y404D01*
X106Y403D02*
X106Y403D01*
X3998Y403D02*
X3998Y403D01*
X106Y402D02*
X106Y402D01*
X3998Y402D02*
X3998Y402D01*
X106Y401D02*
X106Y401D01*
X3998Y401D02*
X3998Y401D01*
X106Y400D02*
X106Y400D01*
X1650Y400D02*
X1650Y400D01*
X3998Y400D02*
X3998Y400D01*
X106Y399D02*
X106Y399D01*
X1649Y399D02*
X1651Y399D01*
X3998Y399D02*
X3998Y399D01*
X106Y398D02*
X106Y398D01*
X1648Y398D02*
X1652Y398D01*
X3998Y398D02*
X3998Y398D01*
X106Y397D02*
X106Y397D01*
X1647Y397D02*
X1653Y397D01*
X3998Y397D02*
X3998Y397D01*
X106Y396D02*
X106Y396D01*
X1646Y396D02*
X1653Y396D01*
X3998Y396D02*
X3998Y396D01*
X106Y395D02*
X106Y395D01*
X1645Y395D02*
X1652Y395D01*
X3998Y395D02*
X3998Y395D01*
X106Y394D02*
X106Y394D01*
X1644Y394D02*
X1651Y394D01*
X3998Y394D02*
X3998Y394D01*
X106Y393D02*
X106Y393D01*
X1643Y393D02*
X1650Y393D01*
X3998Y393D02*
X3998Y393D01*
X106Y392D02*
X106Y392D01*
X1642Y392D02*
X1649Y392D01*
X3998Y392D02*
X3998Y392D01*
X106Y391D02*
X106Y391D01*
X1641Y391D02*
X1648Y391D01*
X3998Y391D02*
X3998Y391D01*
X106Y390D02*
X106Y390D01*
X1640Y390D02*
X1647Y390D01*
X3998Y390D02*
X3998Y390D01*
X106Y389D02*
X106Y389D01*
X1639Y389D02*
X1646Y389D01*
X3998Y389D02*
X3998Y389D01*
X106Y388D02*
X106Y388D01*
X1638Y388D02*
X1645Y388D01*
X3998Y388D02*
X3998Y388D01*
X106Y387D02*
X106Y387D01*
X1638Y387D02*
X1644Y387D01*
X3998Y387D02*
X3998Y387D01*
X106Y386D02*
X106Y386D01*
X1637Y386D02*
X1643Y386D01*
X3998Y386D02*
X3998Y386D01*
X106Y385D02*
X106Y385D01*
X1636Y385D02*
X1642Y385D01*
X3998Y385D02*
X3998Y385D01*
X106Y384D02*
X106Y384D01*
X1635Y384D02*
X1641Y384D01*
X3998Y384D02*
X3998Y384D01*
X106Y383D02*
X106Y383D01*
X1634Y383D02*
X1640Y383D01*
X3998Y383D02*
X3998Y383D01*
X106Y382D02*
X106Y382D01*
X1633Y382D02*
X1639Y382D01*
X3998Y382D02*
X3998Y382D01*
X106Y381D02*
X106Y381D01*
X1632Y381D02*
X1638Y381D01*
X3998Y381D02*
X3998Y381D01*
X106Y380D02*
X106Y380D01*
X1631Y380D02*
X1637Y380D01*
X3998Y380D02*
X3998Y380D01*
X106Y379D02*
X106Y379D01*
X1630Y379D02*
X1636Y379D01*
X3998Y379D02*
X3998Y379D01*
X106Y378D02*
X106Y378D01*
X1628Y378D02*
X1635Y378D01*
X3998Y378D02*
X3998Y378D01*
X106Y377D02*
X106Y377D01*
X1627Y377D02*
X1634Y377D01*
X3998Y377D02*
X3998Y377D01*
X106Y376D02*
X106Y376D01*
X1626Y376D02*
X1633Y376D01*
X3998Y376D02*
X3998Y376D01*
X106Y375D02*
X106Y375D01*
X1625Y375D02*
X1632Y375D01*
X3998Y375D02*
X3998Y375D01*
X106Y374D02*
X106Y374D01*
X1624Y374D02*
X1631Y374D01*
X3998Y374D02*
X3998Y374D01*
X106Y373D02*
X106Y373D01*
X1623Y373D02*
X1630Y373D01*
X3998Y373D02*
X3998Y373D01*
X106Y372D02*
X106Y372D01*
X1622Y372D02*
X1629Y372D01*
X3998Y372D02*
X3998Y372D01*
X106Y371D02*
X106Y371D01*
X1621Y371D02*
X1628Y371D01*
X3998Y371D02*
X3998Y371D01*
X106Y370D02*
X106Y370D01*
X1620Y370D02*
X1627Y370D01*
X3998Y370D02*
X3998Y370D01*
X106Y369D02*
X106Y369D01*
X1619Y369D02*
X1626Y369D01*
X3998Y369D02*
X3998Y369D01*
X106Y368D02*
X106Y368D01*
X1618Y368D02*
X1625Y368D01*
X3998Y368D02*
X3998Y368D01*
X106Y367D02*
X106Y367D01*
X1617Y367D02*
X1624Y367D01*
X3998Y367D02*
X3998Y367D01*
X106Y366D02*
X106Y366D01*
X1616Y366D02*
X1623Y366D01*
X3998Y366D02*
X3998Y366D01*
X106Y365D02*
X106Y365D01*
X1616Y365D02*
X1622Y365D01*
X3998Y365D02*
X3998Y365D01*
X106Y364D02*
X106Y364D01*
X1617Y364D02*
X1621Y364D01*
X3998Y364D02*
X3998Y364D01*
X106Y363D02*
X106Y363D01*
X1618Y363D02*
X1620Y363D01*
X3998Y363D02*
X3998Y363D01*
X106Y362D02*
X106Y362D01*
X3998Y362D02*
X3998Y362D01*
X106Y361D02*
X106Y361D01*
X3998Y361D02*
X3998Y361D01*
X106Y360D02*
X106Y360D01*
X3998Y360D02*
X3998Y360D01*
X106Y359D02*
X106Y359D01*
X3998Y359D02*
X3998Y359D01*
X106Y358D02*
X106Y358D01*
X3998Y358D02*
X3998Y358D01*
X106Y357D02*
X106Y357D01*
X3998Y357D02*
X3998Y357D01*
X106Y356D02*
X106Y356D01*
X3998Y356D02*
X3998Y356D01*
X106Y355D02*
X106Y355D01*
X3998Y355D02*
X3998Y355D01*
X106Y354D02*
X106Y354D01*
X3998Y354D02*
X3998Y354D01*
X106Y353D02*
X106Y353D01*
X3998Y353D02*
X3998Y353D01*
X106Y352D02*
X106Y352D01*
X3998Y352D02*
X3998Y352D01*
X106Y351D02*
X106Y351D01*
X3998Y351D02*
X3998Y351D01*
X106Y350D02*
X106Y350D01*
X3998Y350D02*
X3998Y350D01*
X106Y349D02*
X106Y349D01*
X3998Y349D02*
X3998Y349D01*
X106Y348D02*
X106Y348D01*
X3998Y348D02*
X3998Y348D01*
X106Y347D02*
X106Y347D01*
X3998Y347D02*
X3998Y347D01*
X106Y346D02*
X106Y346D01*
X3998Y346D02*
X3998Y346D01*
X106Y345D02*
X106Y345D01*
X3998Y345D02*
X3998Y345D01*
X106Y344D02*
X106Y344D01*
X3998Y344D02*
X3998Y344D01*
X106Y343D02*
X106Y343D01*
X3998Y343D02*
X3998Y343D01*
X106Y342D02*
X106Y342D01*
X3998Y342D02*
X3998Y342D01*
X106Y341D02*
X106Y341D01*
X3998Y341D02*
X3998Y341D01*
X106Y340D02*
X106Y340D01*
X3998Y340D02*
X3998Y340D01*
X106Y339D02*
X106Y339D01*
X3998Y339D02*
X3998Y339D01*
X106Y338D02*
X106Y338D01*
X3998Y338D02*
X3998Y338D01*
X106Y337D02*
X106Y337D01*
X3998Y337D02*
X3998Y337D01*
X106Y336D02*
X106Y336D01*
X3998Y336D02*
X3998Y336D01*
X106Y335D02*
X106Y335D01*
X3998Y335D02*
X3998Y335D01*
X106Y334D02*
X106Y334D01*
X3998Y334D02*
X3998Y334D01*
X106Y333D02*
X106Y333D01*
X3998Y333D02*
X3998Y333D01*
X106Y332D02*
X106Y332D01*
X3998Y332D02*
X3998Y332D01*
X106Y331D02*
X106Y331D01*
X3998Y331D02*
X3998Y331D01*
X106Y330D02*
X106Y330D01*
X3998Y330D02*
X3998Y330D01*
X106Y329D02*
X106Y329D01*
X3998Y329D02*
X3998Y329D01*
X106Y328D02*
X106Y328D01*
X3998Y328D02*
X3998Y328D01*
X106Y327D02*
X106Y327D01*
X3998Y327D02*
X3998Y327D01*
X106Y326D02*
X106Y326D01*
X3998Y326D02*
X3998Y326D01*
X106Y325D02*
X106Y325D01*
X3998Y325D02*
X3998Y325D01*
X106Y324D02*
X106Y324D01*
X3998Y324D02*
X3998Y324D01*
X106Y323D02*
X106Y323D01*
X3998Y323D02*
X3998Y323D01*
X106Y322D02*
X106Y322D01*
X3998Y322D02*
X3998Y322D01*
X106Y321D02*
X106Y321D01*
X3998Y321D02*
X3998Y321D01*
X106Y320D02*
X106Y320D01*
X3998Y320D02*
X3998Y320D01*
X106Y319D02*
X106Y319D01*
X3998Y319D02*
X3998Y319D01*
X106Y318D02*
X106Y318D01*
X3998Y318D02*
X3998Y318D01*
X106Y317D02*
X106Y317D01*
X3998Y317D02*
X3998Y317D01*
X106Y316D02*
X106Y316D01*
X3998Y316D02*
X3998Y316D01*
X106Y315D02*
X106Y315D01*
X3998Y315D02*
X3998Y315D01*
X106Y314D02*
X106Y314D01*
X3998Y314D02*
X3998Y314D01*
X106Y313D02*
X106Y313D01*
X3998Y313D02*
X3998Y313D01*
X106Y312D02*
X106Y312D01*
X3998Y312D02*
X3998Y312D01*
X106Y311D02*
X106Y311D01*
X3998Y311D02*
X3998Y311D01*
X106Y310D02*
X106Y310D01*
X3998Y310D02*
X3998Y310D01*
X106Y309D02*
X106Y309D01*
X3998Y309D02*
X3998Y309D01*
X106Y308D02*
X106Y308D01*
X3998Y308D02*
X3998Y308D01*
X106Y307D02*
X106Y307D01*
X3998Y307D02*
X3998Y307D01*
X106Y306D02*
X106Y306D01*
X3998Y306D02*
X3998Y306D01*
X106Y305D02*
X106Y305D01*
X3998Y305D02*
X3998Y305D01*
X106Y304D02*
X106Y304D01*
X3998Y304D02*
X3998Y304D01*
X106Y303D02*
X106Y303D01*
X3998Y303D02*
X3998Y303D01*
X106Y302D02*
X106Y302D01*
X3998Y302D02*
X3998Y302D01*
X106Y301D02*
X106Y301D01*
X3998Y301D02*
X3998Y301D01*
X106Y300D02*
X106Y300D01*
X3998Y300D02*
X3998Y300D01*
X106Y299D02*
X106Y299D01*
X3998Y299D02*
X3998Y299D01*
X106Y298D02*
X106Y298D01*
X3998Y298D02*
X3998Y298D01*
X106Y297D02*
X106Y297D01*
X3998Y297D02*
X3998Y297D01*
X106Y296D02*
X106Y296D01*
X3998Y296D02*
X3998Y296D01*
X106Y295D02*
X106Y295D01*
X3998Y295D02*
X3998Y295D01*
X106Y294D02*
X106Y294D01*
X3998Y294D02*
X3998Y294D01*
X106Y293D02*
X106Y293D01*
X3998Y293D02*
X3998Y293D01*
X106Y292D02*
X106Y292D01*
X3998Y292D02*
X3998Y292D01*
X106Y291D02*
X106Y291D01*
X3998Y291D02*
X3998Y291D01*
X106Y290D02*
X106Y290D01*
X3998Y290D02*
X3998Y290D01*
X106Y289D02*
X106Y289D01*
X3998Y289D02*
X3998Y289D01*
X106Y288D02*
X106Y288D01*
X3998Y288D02*
X3998Y288D01*
X106Y287D02*
X106Y287D01*
X3998Y287D02*
X3998Y287D01*
X106Y286D02*
X106Y286D01*
X3998Y286D02*
X3998Y286D01*
X106Y285D02*
X106Y285D01*
X3998Y285D02*
X3998Y285D01*
X106Y284D02*
X106Y284D01*
X3998Y284D02*
X3998Y284D01*
X106Y283D02*
X106Y283D01*
X3998Y283D02*
X3998Y283D01*
X106Y282D02*
X106Y282D01*
X3998Y282D02*
X3998Y282D01*
X106Y281D02*
X106Y281D01*
X3998Y281D02*
X3998Y281D01*
X106Y280D02*
X106Y280D01*
X3998Y280D02*
X3998Y280D01*
X106Y279D02*
X106Y279D01*
X3998Y279D02*
X3998Y279D01*
X106Y278D02*
X106Y278D01*
X3998Y278D02*
X3998Y278D01*
X106Y277D02*
X106Y277D01*
X3998Y277D02*
X3998Y277D01*
X106Y276D02*
X106Y276D01*
X3998Y276D02*
X3998Y276D01*
X106Y275D02*
X106Y275D01*
X3998Y275D02*
X3998Y275D01*
X106Y274D02*
X106Y274D01*
X3998Y274D02*
X3998Y274D01*
X106Y273D02*
X106Y273D01*
X3998Y273D02*
X3998Y273D01*
X106Y272D02*
X106Y272D01*
X3998Y272D02*
X3998Y272D01*
X106Y271D02*
X106Y271D01*
X3998Y271D02*
X3998Y271D01*
X106Y270D02*
X106Y270D01*
X3998Y270D02*
X3998Y270D01*
X106Y269D02*
X106Y269D01*
X3998Y269D02*
X3998Y269D01*
X106Y268D02*
X106Y268D01*
X3998Y268D02*
X3998Y268D01*
X106Y267D02*
X106Y267D01*
X3998Y267D02*
X3998Y267D01*
X106Y266D02*
X106Y266D01*
X3998Y266D02*
X3998Y266D01*
X106Y265D02*
X106Y265D01*
X3998Y265D02*
X3998Y265D01*
X106Y264D02*
X106Y264D01*
X3998Y264D02*
X3998Y264D01*
X106Y263D02*
X106Y263D01*
X3998Y263D02*
X3998Y263D01*
X106Y262D02*
X106Y262D01*
X3998Y262D02*
X3998Y262D01*
X106Y261D02*
X106Y261D01*
X3998Y261D02*
X3998Y261D01*
X106Y260D02*
X106Y260D01*
X3998Y260D02*
X3998Y260D01*
X106Y259D02*
X106Y259D01*
X3998Y259D02*
X3998Y259D01*
X106Y258D02*
X106Y258D01*
X3998Y258D02*
X3998Y258D01*
X106Y257D02*
X106Y257D01*
X3998Y257D02*
X3998Y257D01*
X106Y256D02*
X106Y256D01*
X3998Y256D02*
X3998Y256D01*
X106Y255D02*
X106Y255D01*
X3998Y255D02*
X3998Y255D01*
X106Y254D02*
X106Y254D01*
X3998Y254D02*
X3998Y254D01*
X106Y253D02*
X106Y253D01*
X3998Y253D02*
X3998Y253D01*
X106Y252D02*
X106Y252D01*
X3998Y252D02*
X3998Y252D01*
X106Y251D02*
X106Y251D01*
X3998Y251D02*
X3998Y251D01*
X106Y250D02*
X106Y250D01*
X3998Y250D02*
X3998Y250D01*
X106Y249D02*
X106Y249D01*
X3998Y249D02*
X3998Y249D01*
X106Y248D02*
X106Y248D01*
X3998Y248D02*
X3998Y248D01*
X106Y247D02*
X106Y247D01*
X3998Y247D02*
X3998Y247D01*
X106Y246D02*
X106Y246D01*
X3998Y246D02*
X3998Y246D01*
X106Y245D02*
X106Y245D01*
X3998Y245D02*
X3998Y245D01*
X106Y244D02*
X106Y244D01*
X3998Y244D02*
X3998Y244D01*
X106Y243D02*
X106Y243D01*
X3998Y243D02*
X3998Y243D01*
X106Y242D02*
X106Y242D01*
X3998Y242D02*
X3998Y242D01*
X106Y241D02*
X106Y241D01*
X3998Y241D02*
X3998Y241D01*
X106Y240D02*
X106Y240D01*
X3998Y240D02*
X3998Y240D01*
X106Y239D02*
X106Y239D01*
X3998Y239D02*
X3998Y239D01*
X106Y238D02*
X106Y238D01*
X3998Y238D02*
X3998Y238D01*
X106Y237D02*
X106Y237D01*
X3998Y237D02*
X3998Y237D01*
X106Y236D02*
X106Y236D01*
X3998Y236D02*
X3998Y236D01*
X106Y235D02*
X106Y235D01*
X3998Y235D02*
X3998Y235D01*
X106Y234D02*
X106Y234D01*
X3998Y234D02*
X3998Y234D01*
X106Y233D02*
X106Y233D01*
X3998Y233D02*
X3998Y233D01*
X106Y232D02*
X106Y232D01*
X3998Y232D02*
X3998Y232D01*
X106Y231D02*
X106Y231D01*
X3998Y231D02*
X3998Y231D01*
X106Y230D02*
X106Y230D01*
X3998Y230D02*
X3998Y230D01*
X106Y229D02*
X106Y229D01*
X3998Y229D02*
X3998Y229D01*
X106Y228D02*
X106Y228D01*
X3998Y228D02*
X3998Y228D01*
X106Y227D02*
X106Y227D01*
X3998Y227D02*
X3998Y227D01*
X106Y226D02*
X106Y226D01*
X3998Y226D02*
X3998Y226D01*
X106Y225D02*
X106Y225D01*
X3998Y225D02*
X3998Y225D01*
X106Y224D02*
X106Y224D01*
X3998Y224D02*
X3998Y224D01*
X106Y223D02*
X106Y223D01*
X3998Y223D02*
X3998Y223D01*
X106Y222D02*
X106Y222D01*
X3998Y222D02*
X3998Y222D01*
X106Y221D02*
X106Y221D01*
X3998Y221D02*
X3998Y221D01*
X106Y220D02*
X106Y220D01*
X3998Y220D02*
X3998Y220D01*
X106Y219D02*
X106Y219D01*
X3998Y219D02*
X3998Y219D01*
X106Y218D02*
X106Y218D01*
X3998Y218D02*
X3998Y218D01*
X106Y217D02*
X106Y217D01*
X3998Y217D02*
X3998Y217D01*
X106Y216D02*
X106Y216D01*
X3998Y216D02*
X3998Y216D01*
X106Y215D02*
X106Y215D01*
X3998Y215D02*
X3998Y215D01*
X106Y214D02*
X106Y214D01*
X3998Y214D02*
X3998Y214D01*
X106Y213D02*
X106Y213D01*
X3998Y213D02*
X3998Y213D01*
X106Y212D02*
X106Y212D01*
X3998Y212D02*
X3998Y212D01*
X106Y211D02*
X106Y211D01*
X3998Y211D02*
X3998Y211D01*
X106Y210D02*
X106Y210D01*
X3998Y210D02*
X3998Y210D01*
X106Y209D02*
X106Y209D01*
X3998Y209D02*
X3998Y209D01*
X106Y208D02*
X106Y208D01*
X3998Y208D02*
X3998Y208D01*
X106Y207D02*
X106Y207D01*
X3998Y207D02*
X3998Y207D01*
X106Y206D02*
X106Y206D01*
X3998Y206D02*
X3998Y206D01*
X106Y205D02*
X106Y205D01*
X3998Y205D02*
X3998Y205D01*
X106Y204D02*
X106Y204D01*
X3998Y204D02*
X3998Y204D01*
X106Y203D02*
X106Y203D01*
X3998Y203D02*
X3998Y203D01*
X106Y202D02*
X106Y202D01*
X3998Y202D02*
X3998Y202D01*
X106Y201D02*
X106Y201D01*
X3998Y201D02*
X3998Y201D01*
X106Y200D02*
X106Y200D01*
X3998Y200D02*
X3998Y200D01*
X106Y199D02*
X106Y199D01*
X3998Y199D02*
X3998Y199D01*
X106Y198D02*
X106Y198D01*
X3998Y198D02*
X3998Y198D01*
X106Y197D02*
X106Y197D01*
X3998Y197D02*
X3998Y197D01*
X106Y196D02*
X106Y196D01*
X3998Y196D02*
X3998Y196D01*
X106Y195D02*
X106Y195D01*
X3998Y195D02*
X3998Y195D01*
X106Y194D02*
X106Y194D01*
X3998Y194D02*
X3998Y194D01*
X106Y193D02*
X106Y193D01*
X3998Y193D02*
X3998Y193D01*
X106Y192D02*
X106Y192D01*
X3998Y192D02*
X3998Y192D01*
X106Y191D02*
X106Y191D01*
X3998Y191D02*
X3998Y191D01*
X106Y190D02*
X106Y190D01*
X3998Y190D02*
X3998Y190D01*
X106Y189D02*
X106Y189D01*
X3998Y189D02*
X3998Y189D01*
X106Y188D02*
X106Y188D01*
X3998Y188D02*
X3998Y188D01*
X106Y187D02*
X106Y187D01*
X3998Y187D02*
X3998Y187D01*
X106Y186D02*
X106Y186D01*
X3998Y186D02*
X3998Y186D01*
X106Y185D02*
X106Y185D01*
X3998Y185D02*
X3998Y185D01*
X106Y184D02*
X106Y184D01*
X3998Y184D02*
X3998Y184D01*
X106Y183D02*
X106Y183D01*
X3998Y183D02*
X3998Y183D01*
X106Y182D02*
X106Y182D01*
X3998Y182D02*
X3998Y182D01*
X106Y181D02*
X106Y181D01*
X3998Y181D02*
X3998Y181D01*
X106Y180D02*
X106Y180D01*
X3998Y180D02*
X3998Y180D01*
X106Y179D02*
X106Y179D01*
X3998Y179D02*
X3998Y179D01*
X106Y178D02*
X106Y178D01*
X3998Y178D02*
X3998Y178D01*
X106Y177D02*
X106Y177D01*
X3998Y177D02*
X3998Y177D01*
X106Y176D02*
X106Y176D01*
X3998Y176D02*
X3998Y176D01*
X106Y175D02*
X106Y175D01*
X3998Y175D02*
X3998Y175D01*
X106Y174D02*
X106Y174D01*
X3998Y174D02*
X3998Y174D01*
X106Y173D02*
X106Y173D01*
X3998Y173D02*
X3998Y173D01*
X106Y172D02*
X106Y172D01*
X3998Y172D02*
X3998Y172D01*
X106Y171D02*
X106Y171D01*
X3998Y171D02*
X3998Y171D01*
X106Y170D02*
X106Y170D01*
X3998Y170D02*
X3998Y170D01*
X106Y169D02*
X106Y169D01*
X3998Y169D02*
X3998Y169D01*
X106Y168D02*
X106Y168D01*
X3998Y168D02*
X3998Y168D01*
X106Y167D02*
X106Y167D01*
X3998Y167D02*
X3998Y167D01*
X106Y166D02*
X106Y166D01*
X3998Y166D02*
X3998Y166D01*
X106Y165D02*
X106Y165D01*
X3998Y165D02*
X3998Y165D01*
X106Y164D02*
X106Y164D01*
X3998Y164D02*
X3998Y164D01*
X106Y163D02*
X106Y163D01*
X3998Y163D02*
X3998Y163D01*
X106Y162D02*
X106Y162D01*
X3998Y162D02*
X3998Y162D01*
X106Y161D02*
X106Y161D01*
X3998Y161D02*
X3998Y161D01*
X106Y160D02*
X106Y160D01*
X3998Y160D02*
X3998Y160D01*
X106Y159D02*
X106Y159D01*
X3998Y159D02*
X3998Y159D01*
X106Y158D02*
X106Y158D01*
X3998Y158D02*
X3998Y158D01*
X106Y157D02*
X106Y157D01*
X3998Y157D02*
X3998Y157D01*
X106Y156D02*
X106Y156D01*
X3998Y156D02*
X3998Y156D01*
X106Y155D02*
X106Y155D01*
X3998Y155D02*
X3998Y155D01*
X106Y154D02*
X106Y154D01*
X3998Y154D02*
X3998Y154D01*
X106Y153D02*
X106Y153D01*
X3998Y153D02*
X3998Y153D01*
X106Y152D02*
X106Y152D01*
X3998Y152D02*
X3998Y152D01*
X106Y151D02*
X106Y151D01*
X3998Y151D02*
X3998Y151D01*
X106Y150D02*
X106Y150D01*
X3998Y150D02*
X3998Y150D01*
X106Y149D02*
X106Y149D01*
X3998Y149D02*
X3998Y149D01*
X106Y148D02*
X106Y148D01*
X3998Y148D02*
X3998Y148D01*
X106Y147D02*
X106Y147D01*
X3998Y147D02*
X3998Y147D01*
X106Y146D02*
X106Y146D01*
X3998Y146D02*
X3998Y146D01*
X106Y145D02*
X106Y145D01*
X3998Y145D02*
X3998Y145D01*
X106Y144D02*
X106Y144D01*
X3998Y144D02*
X3998Y144D01*
X106Y143D02*
X106Y143D01*
X3998Y143D02*
X3998Y143D01*
X106Y142D02*
X106Y142D01*
X3998Y142D02*
X3998Y142D01*
X106Y141D02*
X106Y141D01*
X3998Y141D02*
X3998Y141D01*
X106Y140D02*
X106Y140D01*
X3998Y140D02*
X3998Y140D01*
X106Y139D02*
X106Y139D01*
X3998Y139D02*
X3998Y139D01*
X106Y138D02*
X106Y138D01*
X3998Y138D02*
X3998Y138D01*
X106Y137D02*
X106Y137D01*
X3998Y137D02*
X3998Y137D01*
X106Y136D02*
X106Y136D01*
X3998Y136D02*
X3998Y136D01*
X106Y135D02*
X106Y135D01*
X3998Y135D02*
X3998Y135D01*
X106Y134D02*
X106Y134D01*
X3998Y134D02*
X3998Y134D01*
X106Y133D02*
X106Y133D01*
X3998Y133D02*
X3998Y133D01*
X106Y132D02*
X106Y132D01*
X3998Y132D02*
X3998Y132D01*
X106Y131D02*
X106Y131D01*
X3998Y131D02*
X3998Y131D01*
X106Y130D02*
X106Y130D01*
X3998Y130D02*
X3998Y130D01*
X106Y129D02*
X106Y129D01*
X3998Y129D02*
X3998Y129D01*
X106Y128D02*
X106Y128D01*
X3998Y128D02*
X3998Y128D01*
X106Y127D02*
X106Y127D01*
X3998Y127D02*
X3998Y127D01*
X106Y126D02*
X106Y126D01*
X3998Y126D02*
X3998Y126D01*
X106Y125D02*
X106Y125D01*
X3998Y125D02*
X3998Y125D01*
X106Y124D02*
X106Y124D01*
X3998Y124D02*
X3998Y124D01*
X106Y123D02*
X106Y123D01*
X3998Y123D02*
X3998Y123D01*
X106Y122D02*
X106Y122D01*
X3998Y122D02*
X3998Y122D01*
X106Y121D02*
X106Y121D01*
X3998Y121D02*
X3998Y121D01*
X106Y120D02*
X106Y120D01*
X3998Y120D02*
X3998Y120D01*
X106Y119D02*
X106Y119D01*
X3998Y119D02*
X3998Y119D01*
X106Y118D02*
X106Y118D01*
X3998Y118D02*
X3998Y118D01*
X106Y117D02*
X106Y117D01*
X3998Y117D02*
X3998Y117D01*
X106Y116D02*
X106Y116D01*
X3998Y116D02*
X3998Y116D01*
X106Y115D02*
X106Y115D01*
X3998Y115D02*
X3998Y115D01*
X106Y114D02*
X106Y114D01*
X3998Y114D02*
X3998Y114D01*
X106Y113D02*
X106Y113D01*
X3998Y113D02*
X3998Y113D01*
X106Y112D02*
X106Y112D01*
X3998Y112D02*
X3998Y112D01*
X106Y111D02*
X106Y111D01*
X3998Y111D02*
X3998Y111D01*
X106Y110D02*
X106Y110D01*
X3998Y110D02*
X3998Y110D01*
X106Y109D02*
X106Y109D01*
X3998Y109D02*
X3998Y109D01*
X107Y108D02*
X107Y108D01*
X3998Y108D02*
X3998Y108D01*
X108Y107D02*
X108Y107D01*
X3998Y107D02*
X3998Y107D01*
X109Y106D02*
X109Y106D01*
X3998Y106D02*
X3998Y106D01*
X110Y105D02*
X110Y105D01*
X3998Y105D02*
X3998Y105D01*
X111Y104D02*
X111Y104D01*
X3998Y104D02*
X3998Y104D01*
X112Y103D02*
X112Y103D01*
X3998Y103D02*
X3998Y103D01*
X113Y102D02*
X113Y102D01*
X3998Y102D02*
X3998Y102D01*
X114Y101D02*
X114Y101D01*
X3998Y101D02*
X3998Y101D01*
X115Y100D02*
X115Y100D01*
X3998Y100D02*
X3998Y100D01*
X116Y99D02*
X116Y99D01*
X3998Y99D02*
X3998Y99D01*
X117Y98D02*
X117Y98D01*
X3998Y98D02*
X3998Y98D01*
X118Y97D02*
X118Y97D01*
X3998Y97D02*
X3998Y97D01*
X119Y96D02*
X119Y96D01*
X3998Y96D02*
X3998Y96D01*
X120Y95D02*
X120Y95D01*
X3998Y95D02*
X3998Y95D01*
X121Y94D02*
X121Y94D01*
X3998Y94D02*
X3998Y94D01*
X122Y93D02*
X122Y93D01*
X3998Y93D02*
X3998Y93D01*
X123Y92D02*
X123Y92D01*
X3998Y92D02*
X3998Y92D01*
X124Y91D02*
X124Y91D01*
X3998Y91D02*
X3998Y91D01*
X125Y90D02*
X125Y90D01*
X3998Y90D02*
X3998Y90D01*
X126Y89D02*
X126Y89D01*
X3998Y89D02*
X3998Y89D01*
X127Y88D02*
X127Y88D01*
X3998Y88D02*
X3998Y88D01*
X128Y87D02*
X128Y87D01*
X3998Y87D02*
X3998Y87D01*
X129Y86D02*
X129Y86D01*
X3998Y86D02*
X3998Y86D01*
X130Y85D02*
X130Y85D01*
X3998Y85D02*
X3998Y85D01*
X131Y84D02*
X131Y84D01*
X3998Y84D02*
X3998Y84D01*
X132Y83D02*
X132Y83D01*
X3998Y83D02*
X3998Y83D01*
X133Y82D02*
X133Y82D01*
X3998Y82D02*
X3998Y82D01*
X134Y81D02*
X134Y81D01*
X3998Y81D02*
X3998Y81D01*
X135Y80D02*
X135Y80D01*
X3998Y80D02*
X3998Y80D01*
X136Y79D02*
X136Y79D01*
X3998Y79D02*
X3998Y79D01*
X137Y78D02*
X137Y78D01*
X3998Y78D02*
X3998Y78D01*
X138Y77D02*
X138Y77D01*
X3998Y77D02*
X3998Y77D01*
X139Y76D02*
X139Y76D01*
X3998Y76D02*
X3998Y76D01*
X140Y75D02*
X140Y75D01*
X3998Y75D02*
X3998Y75D01*
X141Y74D02*
X141Y74D01*
X3998Y74D02*
X3998Y74D01*
X142Y73D02*
X142Y73D01*
X3998Y73D02*
X3998Y73D01*
X143Y72D02*
X143Y72D01*
X3998Y72D02*
X3998Y72D01*
X144Y71D02*
X144Y71D01*
X3998Y71D02*
X3998Y71D01*
X145Y70D02*
X145Y70D01*
X3998Y70D02*
X3998Y70D01*
X146Y69D02*
X146Y69D01*
X3998Y69D02*
X3998Y69D01*
X147Y68D02*
X147Y68D01*
X3998Y68D02*
X3998Y68D01*
X148Y67D02*
X148Y67D01*
X3998Y67D02*
X3998Y67D01*
X149Y66D02*
X149Y66D01*
X3998Y66D02*
X3998Y66D01*
X150Y65D02*
X150Y65D01*
X3998Y65D02*
X3998Y65D01*
X151Y64D02*
X151Y64D01*
X3998Y64D02*
X3998Y64D01*
X152Y63D02*
X152Y63D01*
X3998Y63D02*
X3998Y63D01*
X153Y62D02*
X153Y62D01*
X3998Y62D02*
X3998Y62D01*
X154Y61D02*
X154Y61D01*
X3998Y61D02*
X3998Y61D01*
X155Y60D02*
X155Y60D01*
X3998Y60D02*
X3998Y60D01*
X156Y59D02*
X156Y59D01*
X3998Y59D02*
X3998Y59D01*
X157Y58D02*
X157Y58D01*
X3998Y58D02*
X3998Y58D01*
X158Y57D02*
X158Y57D01*
X3998Y57D02*
X3998Y57D01*
X159Y56D02*
X159Y56D01*
X3998Y56D02*
X3998Y56D01*
X160Y55D02*
X160Y55D01*
X3998Y55D02*
X3998Y55D01*
X161Y54D02*
X161Y54D01*
X3998Y54D02*
X3998Y54D01*
X162Y53D02*
X162Y53D01*
X3998Y53D02*
X3998Y53D01*
X163Y52D02*
X163Y52D01*
X3998Y52D02*
X3998Y52D01*
X164Y51D02*
X164Y51D01*
X3998Y51D02*
X3998Y51D01*
X165Y50D02*
X165Y50D01*
X3998Y50D02*
X3998Y50D01*
X166Y49D02*
X166Y49D01*
X3998Y49D02*
X3998Y49D01*
X167Y48D02*
X167Y48D01*
X3998Y48D02*
X3998Y48D01*
X168Y47D02*
X168Y47D01*
X3998Y47D02*
X3998Y47D01*
X169Y46D02*
X169Y46D01*
X3998Y46D02*
X3998Y46D01*
X170Y45D02*
X170Y45D01*
X3998Y45D02*
X3998Y45D01*
X171Y44D02*
X171Y44D01*
X3998Y44D02*
X3998Y44D01*
X172Y43D02*
X172Y43D01*
X3998Y43D02*
X3998Y43D01*
X173Y42D02*
X173Y42D01*
X3998Y42D02*
X3998Y42D01*
X174Y41D02*
X174Y41D01*
X3998Y41D02*
X3998Y41D01*
X175Y40D02*
X175Y40D01*
X3998Y40D02*
X3998Y40D01*
X176Y39D02*
X176Y39D01*
X3997Y39D02*
X3997Y39D01*
X177Y38D02*
X177Y38D01*
X3997Y38D02*
X3997Y38D01*
X178Y37D02*
X178Y37D01*
X3997Y37D02*
X3997Y37D01*
X179Y36D02*
X179Y36D01*
X3997Y36D02*
X3997Y36D01*
X180Y35D02*
X180Y35D01*
X3997Y35D02*
X3997Y35D01*
X181Y34D02*
X181Y34D01*
X3996Y34D02*
X3996Y34D01*
X182Y33D02*
X182Y33D01*
X3996Y33D02*
X3996Y33D01*
X183Y32D02*
X183Y32D01*
X3996Y32D02*
X3996Y32D01*
X184Y31D02*
X184Y31D01*
X3995Y31D02*
X3995Y31D01*
X185Y30D02*
X185Y30D01*
X3995Y30D02*
X3995Y30D01*
X186Y29D02*
X186Y29D01*
X3994Y29D02*
X3994Y29D01*
X187Y28D02*
X187Y28D01*
X3994Y28D02*
X3994Y28D01*
X188Y27D02*
X189Y27D01*
X3993Y27D02*
X3993Y27D01*
X189Y26D02*
X190Y26D01*
X3993Y26D02*
X3993Y26D01*
X190Y25D02*
X191Y25D01*
X3992Y25D02*
X3992Y25D01*
X191Y24D02*
X192Y24D01*
X3991Y24D02*
X3991Y24D01*
X192Y23D02*
X193Y23D01*
X3990Y23D02*
X3991Y23D01*
X193Y22D02*
X194Y22D01*
X3990Y22D02*
X3990Y22D01*
X194Y21D02*
X195Y21D01*
X3989Y21D02*
X3989Y21D01*
X195Y20D02*
X196Y20D01*
X3988Y20D02*
X3988Y20D01*
X196Y19D02*
X197Y19D01*
X3987Y19D02*
X3987Y19D01*
X197Y18D02*
X198Y18D01*
X3986Y18D02*
X3986Y18D01*
X198Y17D02*
X199Y17D01*
X3984Y17D02*
X3985Y17D01*
X199Y16D02*
X200Y16D01*
X3983Y16D02*
X3984Y16D01*
X200Y15D02*
X201Y15D01*
X3981Y15D02*
X3982Y15D01*
X201Y14D02*
X202Y14D01*
X3980Y14D02*
X3981Y14D01*
X202Y13D02*
X203Y13D01*
X3978Y13D02*
X3979Y13D01*
X203Y12D02*
X204Y12D01*
X3975Y12D02*
X3977Y12D01*
X204Y11D02*
X205Y11D01*
X3972Y11D02*
X3974Y11D01*
X205Y10D02*
X3971Y10D01*
D02*
G04 End of Silk0*
M02*