; NON-PLATED HOLES START AT T1
; THROUGH (PLATED) HOLES START AT T100
M48
INCH
T100C0.038194
T101C0.035000
T102C0.038000
%
T100
X010030Y001131
X003030Y013131
X010030Y020131
X002030Y005131
X027630Y001131
X003030Y009131
X003030Y012131
X004030Y020131
X002030Y004131
X013030Y001131
X013030Y020131
X022030Y001131
X003030Y008131
X022030Y020131
X003030Y011131
X002030Y003131
X007030Y001131
X007030Y020131
X016030Y001131
X031630Y001131
X003030Y007131
X016030Y020131
X002030Y018131
X025030Y020131
X003030Y010131
X002030Y002131
X025630Y001131
X003030Y006131
X019030Y001131
X002030Y017131
X019030Y020131
X028030Y020131
X002030Y001131
X011030Y001131
X011030Y020131
X003030Y005131
X020030Y001131
X028630Y001131
X002030Y016131
X020030Y020131
X005030Y020131
X003030Y004131
X002030Y015131
X014030Y020131
X023030Y020131
X003030Y003131
X008030Y001131
X023630Y001131
X008030Y020131
X002030Y014131
X017030Y001131
X032630Y001131
X017030Y020131
X003030Y018131
X026030Y020131
X003030Y002131
X002030Y013131
X026630Y001131
X003030Y017131
X002030Y009131
X029030Y020131
X003030Y001131
X002030Y012131
X012030Y001131
X021030Y001131
X029630Y001131
X003030Y016131
X002030Y008131
X002030Y011131
X006030Y001131
X006030Y020131
X015030Y001131
X030630Y001131
X003030Y015131
X015030Y020131
X002030Y007131
X024030Y020131
X002030Y010131
X009030Y001131
X024630Y001131
X003030Y014131
X009030Y020131
X002030Y006131
X018030Y001131
X018030Y020131
X027030Y020131
T101
X020030Y013131
X015030Y013131
X035030Y015131
X035030Y016131
T102
X030030Y009131
X014030Y016131
X033030Y009131
X013030Y016131
X030030Y010131
X033030Y010131
X030030Y007131
X033030Y007131
X038030Y015131
X030030Y013131
X033030Y013131
X016030Y004131
X015030Y004131
X006030Y005131
X007030Y005131
X024030Y012131
X026030Y012131
X038030Y016131
X023030Y012131
X025030Y012131
X027030Y012131
X030030Y006131
X012030Y013131
X024030Y010131
X026030Y010131
X033030Y006131
X023030Y010131
X025030Y010131
X027030Y010131
X030030Y012131
X033030Y012131
T00
M30
