G04 MADE WITH FRITZING*
G04 WWW.FRITZING.ORG*
G04 DOUBLE SIDED*
G04 HOLES PLATED*
G04 CONTOUR ON CENTER OF CONTOUR VECTOR*
%ASAXBY*%
%FSLAX23Y23*%
%MOIN*%
%OFA0B0*%
%SFA1.0B1.0*%
%ADD10C,0.072917*%
%ADD11C,0.075000*%
%ADD12C,0.078000*%
%ADD13R,0.075000X0.075000*%
%ADD14C,0.024000*%
%LNCOPPER0*%
G90*
G70*
G54D10*
X1003Y2013D03*
X2603Y2013D03*
X903Y2013D03*
X803Y2013D03*
X703Y2013D03*
X603Y2013D03*
X303Y613D03*
X503Y2013D03*
X403Y2013D03*
X2563Y113D03*
X2003Y2013D03*
X1903Y2013D03*
X1803Y2013D03*
X1703Y2013D03*
X303Y1413D03*
X1603Y2013D03*
X1503Y2013D03*
X1403Y2013D03*
X1303Y2013D03*
X1803Y113D03*
X303Y213D03*
X303Y1013D03*
X303Y1813D03*
X2963Y113D03*
X2203Y2013D03*
X2203Y113D03*
X303Y413D03*
X303Y813D03*
X303Y1213D03*
X603Y113D03*
X303Y1613D03*
X703Y113D03*
X803Y113D03*
X903Y113D03*
X1003Y113D03*
X1103Y113D03*
X1203Y113D03*
X1303Y113D03*
X3163Y113D03*
X2763Y113D03*
X2363Y113D03*
X2803Y2013D03*
X2403Y2013D03*
X1603Y113D03*
X2003Y113D03*
X303Y113D03*
X303Y313D03*
X303Y513D03*
X303Y713D03*
X303Y913D03*
X303Y1113D03*
X303Y1313D03*
X303Y1513D03*
X303Y1713D03*
X3263Y113D03*
X3063Y113D03*
X2863Y113D03*
X2663Y113D03*
X2463Y113D03*
X2903Y2013D03*
X2703Y2013D03*
X2503Y2013D03*
X2303Y2013D03*
X1503Y113D03*
X1703Y113D03*
X1903Y113D03*
X2103Y113D03*
X203Y113D03*
X203Y213D03*
X203Y313D03*
X203Y413D03*
X203Y513D03*
X203Y613D03*
X203Y713D03*
X203Y813D03*
X203Y913D03*
X203Y1013D03*
X203Y1113D03*
X203Y1213D03*
X203Y1313D03*
X203Y1413D03*
X203Y1513D03*
X203Y1613D03*
X203Y1713D03*
X203Y1813D03*
X1103Y2013D03*
G54D11*
X2003Y1313D03*
X1503Y1313D03*
X3503Y1513D03*
X3503Y1613D03*
G54D12*
X3003Y1313D03*
X3003Y1213D03*
X3003Y1313D03*
X3003Y1213D03*
X3003Y1013D03*
X3003Y913D03*
X3003Y1013D03*
X3003Y913D03*
X3003Y713D03*
X3003Y613D03*
X3003Y713D03*
X3003Y613D03*
X3303Y1313D03*
X3303Y1213D03*
X3303Y1313D03*
X3303Y1213D03*
X3303Y1013D03*
X3303Y913D03*
X3303Y1013D03*
X3303Y913D03*
X3303Y713D03*
X3303Y613D03*
X3303Y713D03*
X3303Y613D03*
X1603Y413D03*
X1503Y413D03*
X1603Y413D03*
X1503Y413D03*
X1403Y1613D03*
X1303Y1613D03*
X1403Y1613D03*
X1303Y1613D03*
X1203Y1313D03*
X1203Y1313D03*
X2703Y1213D03*
X2603Y1213D03*
X2503Y1213D03*
X2403Y1213D03*
X2303Y1213D03*
X2703Y1013D03*
X2603Y1013D03*
X2503Y1013D03*
X2403Y1013D03*
X2303Y1013D03*
X3803Y1613D03*
X3803Y1513D03*
X3803Y1613D03*
X3803Y1513D03*
X703Y513D03*
X603Y513D03*
X703Y513D03*
X603Y513D03*
G54D13*
X3503Y1513D03*
G54D14*
X2003Y1285D02*
X2005Y315D01*
D02*
X2005Y315D02*
X2102Y315D01*
D02*
X2102Y315D02*
X2103Y143D01*
D02*
X3003Y1283D02*
X3003Y1243D01*
D02*
X3003Y683D02*
X3003Y643D01*
D02*
X3003Y883D02*
X3003Y743D01*
D02*
X3003Y983D02*
X3003Y943D01*
D02*
X3003Y1183D02*
X3003Y1043D01*
D02*
X2503Y1983D02*
X2504Y1610D01*
D02*
X3003Y1610D02*
X3003Y1343D01*
D02*
X2504Y1610D02*
X3003Y1610D01*
D02*
X3303Y1283D02*
X3303Y1243D01*
D02*
X3303Y1183D02*
X3303Y1043D01*
D02*
X3303Y683D02*
X3303Y643D01*
D02*
X3303Y883D02*
X3303Y743D01*
D02*
X3303Y983D02*
X3303Y943D01*
D02*
X2613Y1984D02*
X2702Y1713D01*
D02*
X3303Y1713D02*
X3303Y1343D01*
D02*
X2702Y1713D02*
X3303Y1713D01*
D02*
X1503Y143D02*
X1503Y383D01*
D02*
X1500Y1815D02*
X1302Y1713D01*
D02*
X1503Y1983D02*
X1500Y1815D01*
D02*
X1302Y1713D02*
X1303Y1643D01*
D02*
X1603Y1713D02*
X1430Y1627D01*
D02*
X1603Y1983D02*
X1603Y1713D01*
D02*
X1474Y1313D02*
X1233Y1313D01*
D02*
X2702Y1515D02*
X2703Y1243D01*
D02*
X2402Y1515D02*
X2702Y1515D01*
D02*
X2403Y1983D02*
X2402Y1515D01*
D02*
X2703Y1183D02*
X2703Y1043D01*
D02*
X2673Y1013D02*
X2633Y1013D01*
D02*
X2573Y1013D02*
X2533Y1013D01*
D02*
X2473Y1013D02*
X2433Y1013D01*
D02*
X2373Y1013D02*
X2333Y1013D01*
D02*
X2603Y1183D02*
X2603Y1043D01*
D02*
X2503Y1183D02*
X2503Y1043D01*
D02*
X2403Y1183D02*
X2403Y1043D01*
D02*
X2303Y1183D02*
X2303Y1043D01*
D02*
X2373Y1213D02*
X2333Y1213D01*
D02*
X2473Y1213D02*
X2433Y1213D01*
D02*
X2573Y1213D02*
X2533Y1213D01*
D02*
X2673Y1213D02*
X2633Y1213D01*
D02*
X2204Y1515D02*
X1801Y1515D01*
D02*
X2294Y1242D02*
X2204Y1515D01*
D02*
X1801Y613D02*
X1624Y435D01*
D02*
X1801Y1515D02*
X1801Y613D01*
D02*
X3105Y313D02*
X3069Y143D01*
D02*
X3303Y415D02*
X3105Y313D01*
D02*
X3303Y583D02*
X3303Y415D01*
D02*
X703Y483D02*
X703Y143D01*
D02*
X603Y483D02*
X603Y143D01*
G04 End of Copper0*
M02*